<?xml version="1.0" encoding="UTF-8" standalone="no"?>
<!DOCTYPE svg PUBLIC "-//W3C//DTD SVG 1.1//EN" "http://www.w3.org/Graphics/SVG/1.1/DTD/svg11.dtd">
<svg xmlns="http://www.w3.org/2000/svg" version="1.1" viewBox="0.00 0.00 1920.00 1080.00">
<g stroke-width="2.00" fill="none" stroke-linecap="butt">
<path stroke="#83fbfd" vector-effect="non-scaling-stroke" d="
  M 818.86 616.27
  L 808.57 616.02"
/>
<path stroke="#83fbfd" vector-effect="non-scaling-stroke" d="
  M 815.56 628.41
  Q 813.44 626.11 808.75 627.34"
/>
<path stroke="#7f7f7f" vector-effect="non-scaling-stroke" d="
  M 808.75 627.34
  Q 805.80 627.20 803.72 630.41"
/>
<path stroke="#83fbfd" vector-effect="non-scaling-stroke" d="
  M 802.72 644.69
  Q 805.68 648.16 810.46 648.31"
/>
<path stroke="#83fbfd" vector-effect="non-scaling-stroke" d="
  M 811.20 644.99
  L 811.07 644.78
  Q 810.95 644.60 810.74 644.58
  L 806.76 644.31
  Q 806.10 644.26 806.02 643.61
  C 805.12 636.88 805.30 631.84 814.17 634.05"
/>
<path stroke="#83fbfd" vector-effect="non-scaling-stroke" d="
  M 807.20 658.98
  L 797.22 658.06"
/>
<path stroke="#047d7e" vector-effect="non-scaling-stroke" d="
  M 787.75 688.52
  Q 787.57 689.88 787.97 691.00
  Q 788.16 691.53 788.30 690.98
  L 788.94 688.59"
/>
<path stroke="#047d7e" vector-effect="non-scaling-stroke" d="
  M 804.83 630.42
  Q 805.21 628.36 808.75 627.34"
/>
<path stroke="#83fbfd" vector-effect="non-scaling-stroke" d="
  M 780.09 655.38
  C 776.20 655.38 775.06 658.65 771.74 658.91"
/>
<path stroke="#83fbfd" vector-effect="non-scaling-stroke" d="
  M 775.09 618.25
  Q 773.04 618.25 771.17 617.47
  C 767.84 616.08 765.82 616.24 762.50 615.98"
/>
<path stroke="#047d7e" vector-effect="non-scaling-stroke" d="
  M 961.49 547.08
  C 961.72 549.87 963.23 551.33 964.09 553.80
  Q 964.60 555.24 965.52 556.51
  Q 965.79 556.88 965.67 557.32
  L 965.46 558.08
  Q 965.32 558.55 965.72 558.84
  Q 966.52 559.41 967.29 560.73
  C 975.32 574.56 988.75 586.28 1005.09 590.14
  C 1006.58 590.49 1008.74 592.02 1009.75 592.02
  Q 1031.77 592.06 1053.81 591.97
  A 1.58 1.57 -61.8 0 0 1054.69 591.70
  Q 1058.17 589.39 1062.35 590.09
  A 0.53 0.53 0.0 0 0 1062.97 589.61
  L 1063.01 589.03
  Q 1063.06 588.33 1063.75 588.19
  L 1070.38 586.85
  Q 1070.81 586.76 1070.92 586.33
  L 1071.18 585.33
  Q 1071.33 584.75 1071.92 584.91
  Q 1074.20 585.54 1075.64 584.02
  Q 1076.03 583.60 1076.58 583.40
  L 1080.56 581.93
  A 0.69 0.67 -10.8 0 0 1081.00 581.30
  L 1081.00 545.50
  Q 1081.00 545.00 1080.50 545.00
  L 1076.51 545.00
  Q 1075.91 545.00 1075.49 545.43
  Q 1070.55 550.51 1064.61 554.39
  A 1.26 0.07 -52.9 0 0 1063.94 555.18
  Q 1063.17 556.17 1061.82 555.97
  A 0.85 0.83 75.8 0 1 1061.26 555.63
  Q 1060.90 555.12 1060.38 555.18
  A 0.35 0.35 0.0 0 0 1060.23 555.83
  L 1060.74 556.13
  Q 1061.30 556.46 1060.79 556.87
  C 1058.95 558.31 1055.73 558.69 1054.63 560.45
  Q 1054.34 560.91 1053.80 560.89
  C 1050.84 560.80 1049.15 562.47 1046.81 562.99
  Q 1030.86 566.56 1016.33 559.01
  C 1014.76 558.20 1014.01 557.09 1012.54 556.13
  Q 1010.73 554.96 1009.85 553.92
  C 1005.42 548.69 1002.31 545.07 1001.77 538.80
  A 0.78 0.77 -79.9 0 0 1001.34 538.17
  L 1000.43 537.72
  Q 999.96 537.49 1000.01 536.98
  Q 1000.41 532.59 998.56 526.19
  C 996.81 520.12 998.92 512.73 1000.04 506.53
  C 1002.32 494.01 1009.11 483.83 1020.91 478.90
  C 1041.37 470.35 1059.45 480.62 1074.74 493.77
  Q 1077.31 495.98 1080.51 494.74
  Q 1081.00 494.55 1081.00 494.03
  L 1081.00 457.74
  Q 1081.00 457.19 1080.45 457.16
  Q 1078.03 457.03 1075.55 455.49
  Q 1071.56 453.01 1066.26 451.74
  C 1064.56 451.33 1063.63 450.25 1061.77 449.89
  C 1057.25 449.03 1053.29 447.19 1048.75 446.99
  C 1037.75 446.50 1021.70 445.46 1009.60 448.13
  C 1007.98 448.49 1006.90 449.50 1005.15 449.97
  C 988.72 454.36 976.88 465.25 967.69 479.21
  C 967.10 480.10 966.95 481.35 965.96 482.14
  Q 965.59 482.44 965.52 482.91
  Q 965.49 483.12 965.61 483.25
  Q 965.92 483.59 965.70 483.99
  C 956.12 501.38 957.09 525.63 960.49 545.55
  Q 960.59 546.12 961.04 546.37
  Q 961.45 546.61 961.49 547.08"
/>
<path stroke="#047d7e" vector-effect="non-scaling-stroke" d="
  M 821.68 504.47
  Q 825.70 515.35 830.71 526.02
  Q 831.62 527.95 832.37 531.17
  Q 832.50 531.70 832.95 532.02
  Q 834.34 532.99 833.97 534.73
  A 0.65 0.63 -66.7 0 0 834.22 535.39
  Q 837.10 537.44 835.37 540.37
  A 0.25 0.25 0.0 0 0 835.66 540.73
  L 836.33 540.53
  Q 836.91 540.34 837.28 540.82
  Q 838.71 542.65 837.24 544.33
  Q 836.58 545.07 837.53 544.78
  L 838.19 544.57
  Q 838.61 544.44 838.78 544.84
  L 843.54 555.98
  A 3.33 3.32 -11.5 0 0 846.60 558.00
  L 871.01 558.00
  Q 871.61 558.00 871.84 557.44
  Q 874.44 550.92 877.00 544.39
  C 877.59 542.88 879.13 541.32 879.01 538.91
  Q 878.97 538.26 879.58 538.48
  L 880.21 538.72
  A 0.50 0.50 0.0 0 0 880.88 538.28
  L 881.06 535.15
  A 0.59 0.58 5.4 0 1 881.73 534.60
  L 882.59 534.73
  A 0.30 0.30 0.0 0 0 882.78 534.17
  Q 881.94 533.70 881.95 532.86
  C 881.97 531.93 883.14 530.96 883.76 530.32
  A 0.99 0.98 -27.9 0 0 884.02 529.50
  Q 883.79 528.10 884.91 527.22
  Q 885.34 526.88 885.54 526.36
  L 889.48 515.77
  Q 889.65 515.31 890.06 515.05
  Q 891.10 514.39 891.04 513.16
  Q 891.01 512.63 891.24 512.16
  Q 893.51 507.49 894.29 502.35
  A 0.20 0.20 0.0 0 1 894.68 502.31
  Q 894.84 502.74 894.77 503.26
  Q 894.05 508.88 894.05 516.50
  Q 894.00 553.46 893.99 588.93
  Q 893.99 592.00 897.06 592.00
  L 930.01 591.98
  A 3.99 3.99 0.0 0 0 934.00 587.99
  L 933.99 450.75
  A 2.75 2.74 -90.0 0 0 931.25 448.00
  L 891.00 448.00
  A 1.06 1.03 -66.9 0 0 890.26 448.31
  C 886.79 451.74 885.11 457.14 883.81 461.74
  Q 883.67 462.24 883.31 462.60
  L 882.31 463.60
  Q 881.88 464.03 881.99 464.62
  Q 882.29 466.32 880.86 467.08
  Q 880.37 467.35 880.22 467.88
  L 878.81 473.00
  Q 878.70 473.41 878.36 473.67
  C 876.98 474.75 876.87 476.71 876.34 477.88
  Q 872.19 487.11 867.70 496.21
  Q 867.44 496.72 866.93 496.99
  Q 865.44 497.78 866.48 498.91
  A 0.68 0.68 0.0 0 1 866.46 499.85
  Q 864.90 501.44 864.82 503.75
  Q 864.80 504.25 864.37 504.52
  C 862.11 505.92 863.84 507.95 861.95 508.92
  Q 861.53 509.14 861.39 509.59
  L 859.28 516.59
  A 0.58 0.58 0.0 0 1 858.16 516.56
  L 856.73 510.88
  Q 856.61 510.40 856.23 510.10
  L 855.27 509.37
  Q 854.87 509.07 854.97 508.58
  Q 855.31 506.75 853.81 505.75
  Q 853.37 505.46 853.25 504.94
  L 851.78 498.86
  Q 851.67 498.39 851.27 498.11
  L 850.29 497.44
  A 0.84 0.84 0.0 0 1 849.95 496.52
  Q 850.43 494.76 848.97 493.97
  Q 848.42 493.68 848.24 493.08
  Q 847.47 490.49 845.55 488.49
  A 0.92 0.91 -16.1 0 1 846.40 486.96
  Q 846.97 487.07 846.62 486.39
  Q 846.46 486.07 846.16 486.29
  L 845.88 486.49
  A 0.38 0.38 0.0 0 1 845.31 486.35
  L 838.01 470.60
  A 0.62 0.60 -55.7 0 1 837.95 470.26
  Q 838.14 468.37 836.50 467.75
  A 0.87 0.86 17.1 0 1 835.96 466.74
  Q 836.38 464.97 835.02 463.97
  Q 834.65 463.69 834.51 463.25
  Q 832.13 455.90 828.29 449.15
  Q 828.03 448.69 827.52 448.57
  Q 824.93 447.95 822.25 447.95
  Q 803.90 447.99 786.13 448.01
  A 1.69 1.69 0.0 0 0 784.46 449.51
  Q 784.04 453.34 784.04 456.50
  Q 784.00 522.84 784.00 588.26
  A 3.74 3.74 0.0 0 0 787.74 592.00
  L 818.50 592.00
  Q 821.00 592.00 821.00 589.50
  L 821.00 504.59
  A 0.35 0.35 0.0 0 1 821.68 504.47"
/>
<path stroke="#047d7e" vector-effect="non-scaling-stroke" d="
  M 623.68 544.07
  L 624.12 548.12
  Q 624.18 548.64 624.63 548.91
  L 625.08 549.18
  Q 625.53 549.45 625.64 549.97
  C 626.89 555.96 629.38 559.96 633.76 565.65
  C 643.21 577.94 655.07 586.23 670.20 590.24
  Q 670.86 590.42 672.98 591.43
  C 674.71 592.25 676.38 591.90 677.98 591.93
  Q 699.67 592.31 721.37 592.10
  C 724.39 592.08 726.74 590.45 729.83 590.09
  Q 731.73 589.86 733.40 589.21
  C 736.30 588.06 739.88 587.64 742.33 586.84
  Q 746.06 585.62 749.90 584.67
  Q 750.38 584.55 750.74 584.21
  Q 752.23 582.80 754.34 583.03
  Q 756.00 583.21 756.00 581.53
  L 756.00 511.50
  A 0.50 0.50 0.0 0 0 755.50 511.00
  L 689.25 511.00
  A 2.25 2.25 0.0 0 0 687.00 513.25
  L 687.00 538.99
  A 1.98 1.98 0.0 0 0 688.98 540.97
  L 714.78 541.01
  Q 715.30 541.01 715.27 541.53
  Q 714.59 553.52 715.75 565.47
  A 0.48 0.48 0.0 0 1 715.30 565.99
  C 709.29 566.29 702.40 566.55 696.59 564.92
  Q 694.82 564.42 692.24 564.04
  Q 675.02 561.51 666.47 545.77
  Q 663.92 541.08 663.74 537.05
  Q 663.72 536.53 663.33 536.20
  L 662.66 535.62
  Q 662.29 535.29 662.23 534.80
  Q 660.57 520.47 662.35 506.15
  Q 662.43 505.52 662.96 505.20
  Q 664.03 504.55 663.73 503.25
  A 1.70 1.64 -44.0 0 1 663.76 502.39
  C 666.12 494.49 671.64 486.17 679.07 482.25
  C 681.76 480.83 683.76 479.34 686.74 478.62
  C 690.78 477.63 694.94 476.21 698.83 475.88
  C 715.52 474.48 733.35 481.97 745.96 492.45
  C 746.80 493.15 746.75 493.32 747.05 494.34
  A 0.94 0.93 -8.3 0 0 747.95 495.00
  L 753.48 495.00
  Q 753.98 495.00 753.98 494.50
  Q 754.04 478.10 753.99 461.67
  C 753.98 458.52 752.43 456.98 749.39 456.96
  A 1.56 1.55 -27.4 0 1 748.50 456.68
  Q 743.41 453.15 737.41 451.93
  C 734.57 451.35 732.60 449.58 729.20 449.89
  Q 728.68 449.94 728.30 449.59
  C 723.27 444.94 689.47 447.12 681.45 447.28
  C 674.70 447.41 667.24 450.84 661.11 453.22
  C 648.13 458.26 637.22 468.88 630.53 480.08
  Q 630.28 480.50 629.89 480.78
  Q 628.93 481.46 628.99 482.68
  Q 629.02 483.24 628.57 483.57
  L 627.72 484.21
  Q 627.27 484.55 627.14 485.09
  L 625.77 490.69
  Q 625.64 491.26 625.20 491.66
  Q 623.36 493.34 624.11 495.86
  A 0.64 0.64 0.0 0 1 623.75 496.64
  L 622.60 497.13
  Q 622.04 497.37 622.02 497.98
  Q 621.33 520.07 622.13 542.15
  Q 622.14 542.64 622.55 542.92
  L 623.25 543.38
  Q 623.63 543.63 623.68 544.07"
/>
<path stroke="#7f7f7f" vector-effect="non-scaling-stroke" d="
  M 782.75 637.98
  A 18.39 18.39 0.0 0 0 764.36 619.59
  A 18.39 18.39 0.0 0 0 745.97 637.98
  A 18.39 18.39 0.0 0 0 764.36 656.37
  A 18.39 18.39 0.0 0 0 782.75 637.98"
/>
<path stroke="#7f7f7f" vector-effect="non-scaling-stroke" d="
  M 816.40 642.23
  L 816.52 650.96
  Q 816.53 651.60 815.91 651.75
  C 808.19 653.66 800.45 650.67 798.34 642.65
  C 794.00 626.20 809.59 618.26 822.23 627.06
  A 0.63 0.63 0.0 0 0 823.22 626.51
  L 823.06 623.14
  A 0.77 0.76 -78.1 0 0 822.64 622.49
  C 814.93 618.66 805.03 618.24 797.93 623.24
  C 786.48 631.31 789.14 650.50 802.43 655.14
  C 809.52 657.62 814.92 656.13 821.85 654.30
  A 1.88 1.88 0.0 0 0 823.25 652.48
  L 823.25 637.75
  A 0.50 0.50 0.0 0 0 822.75 637.25
  L 810.09 637.25
  Q 809.42 637.25 809.39 637.91
  L 809.28 640.00
  Q 809.20 641.49 810.69 641.49
  L 815.67 641.51
  A 0.73 0.73 0.0 0 1 816.40 642.23"
/>
<path stroke="#7f7f7f" vector-effect="non-scaling-stroke" d="
  M 862.41 629.81
  C 860.60 644.22 888.06 637.02 883.83 649.06
  C 881.60 655.42 867.51 651.54 863.07 648.76
  A 0.86 0.86 0.0 0 0 861.75 649.49
  L 861.75 652.71
  Q 861.75 653.12 862.12 653.31
  C 870.35 657.50 886.42 658.67 890.63 648.06
  C 894.72 637.75 881.28 635.65 875.12 634.19
  C 870.27 633.04 867.71 630.78 869.98 625.66
  A 1.34 1.32 -87.5 0 1 870.72 624.97
  Q 880.22 621.43 888.95 626.48
  A 0.53 0.53 0.0 0 0 889.75 626.02
  L 889.75 622.45
  Q 889.75 621.80 889.13 621.58
  C 881.22 618.75 863.93 617.69 862.41 629.81"
/>
<path stroke="#7f7f7f" vector-effect="non-scaling-stroke" d="
  M 963.34 635.28
  C 960.82 653.04 978.40 661.28 992.58 653.32
  Q 993.01 653.07 993.00 652.57
  L 992.88 649.19
  A 0.55 0.55 0.0 0 0 991.98 648.79
  C 985.20 654.57 973.87 653.65 971.02 644.23
  Q 969.36 638.73 971.01 632.23
  C 973.45 622.59 984.55 620.94 991.25 626.79
  A 1.09 1.08 -71.0 0 0 993.04 625.91
  L 992.90 623.14
  Q 992.87 622.55 992.35 622.28
  C 980.30 616.03 965.42 620.60 963.34 635.28"
/>
<path stroke="#7f7f7f" vector-effect="non-scaling-stroke" d="
  M 1003.18 625.91
  C 997.70 635.40 1009.21 640.26 1016.80 641.42
  C 1021.50 642.13 1024.73 643.38 1023.38 648.82
  C 1021.64 655.84 1006.38 651.13 1002.55 648.76
  A 0.98 0.98 0.0 0 0 1001.05 649.58
  L 1001.00 652.47
  Q 1000.99 653.06 1001.51 653.32
  C 1009.82 657.46 1024.74 658.66 1029.74 648.89
  C 1035.44 637.75 1019.18 635.01 1012.48 633.58
  C 1008.08 632.63 1007.29 625.81 1011.40 624.53
  Q 1020.26 621.76 1028.53 626.50
  A 0.56 0.55 16.9 0 0 1029.36 626.06
  L 1029.55 622.92
  Q 1029.60 622.23 1028.96 621.95
  C 1021.60 618.76 1007.87 617.78 1003.18 625.91"
/>
<path stroke="#7f7f7f" vector-effect="non-scaling-stroke" d="
  M 722.94 651.50
  A 0.91 0.91 0.0 0 1 722.03 650.59
  L 721.98 621.17
  A 0.91 0.91 0.0 0 0 721.06 620.26
  L 715.15 620.36
  A 0.91 0.91 0.0 0 0 714.25 621.27
  L 714.25 654.59
  A 0.91 0.91 0.0 0 0 715.16 655.50
  L 738.03 655.50
  A 0.91 0.91 0.0 0 0 738.94 654.62
  L 739.02 652.44
  A 0.91 0.91 0.0 0 0 738.11 651.50
  L 722.94 651.50"
/>
<path stroke="#7f7f7f" vector-effect="non-scaling-stroke" d="
  M 840.49 625.39
  L 840.45 650.56
  A 0.79 0.79 0.0 0 1 839.69 651.35
  L 834.60 651.58
  A 0.58 0.58 0.0 0 0 834.05 652.10
  L 833.77 654.69
  A 0.74 0.73 -87.2 0 0 834.50 655.50
  L 852.76 655.50
  Q 853.45 655.50 853.51 654.81
  L 853.71 652.34
  A 0.70 0.70 0.0 0 0 853.06 651.59
  L 847.76 651.27
  Q 847.28 651.24 847.28 650.76
  L 847.24 625.59
  Q 847.24 625.01 847.80 624.87
  C 850.21 624.27 853.54 625.59 853.79 622.08
  A 1.71 1.71 0.0 0 0 852.09 620.25
  Q 844.79 620.25 836.85 620.25
  C 834.45 620.25 832.99 621.38 834.05 623.88
  A 0.80 0.80 0.0 0 0 834.72 624.36
  L 839.89 624.74
  Q 840.49 624.79 840.49 625.39"
/>
<path stroke="#7f7f7f" vector-effect="non-scaling-stroke" d="
  M 909.75 625.19
  L 909.75 654.88
  Q 909.75 655.52 910.39 655.51
  L 915.95 655.47
  Q 916.55 655.46 916.55 654.86
  L 916.50 625.79
  Q 916.50 624.58 917.71 624.57
  L 927.49 624.47
  Q 928.18 624.46 928.18 623.76
  L 928.18 621.19
  A 0.93 0.93 0.0 0 0 927.25 620.26
  Q 913.47 620.24 899.69 620.27
  Q 898.04 620.27 897.57 620.80
  Q 896.97 621.48 896.98 622.99
  A 1.45 1.44 -89.6 0 0 898.40 624.44
  L 909.20 624.63
  Q 909.75 624.64 909.75 625.19"
/>
<path stroke="#7f7f7f" vector-effect="non-scaling-stroke" d="
  M 941.71 625.27
  L 941.73 650.67
  A 0.86 0.86 0.0 0 1 940.85 651.53
  C 938.64 651.49 935.74 650.31 935.36 653.68
  Q 935.16 655.50 936.98 655.50
  L 954.13 655.50
  A 0.66 0.66 0.0 0 0 954.79 654.79
  L 954.57 651.88
  Q 954.53 651.25 953.89 651.25
  L 949.00 651.25
  Q 948.50 651.25 948.50 650.75
  L 948.50 625.50
  Q 948.50 625.03 948.94 624.86
  Q 950.76 624.19 952.56 624.85
  A 1.61 1.60 -80.6 0 0 954.72 623.30
  L 954.67 620.95
  A 0.72 0.72 0.0 0 0 953.95 620.25
  L 936.33 620.25
  A 0.69 0.69 0.0 0 0 935.64 620.90
  L 935.45 623.80
  A 0.62 0.62 0.0 0 0 936.06 624.46
  L 941.03 624.58
  Q 941.71 624.59 941.71 625.27"
/>
<path stroke="#7f7f7f" vector-effect="non-scaling-stroke" d="
  M 758.19 650.31
  Q 764.21 654.20 769.63 651.11
  C 776.46 647.22 776.45 636.38 774.02 630.05
  C 771.07 622.36 760.96 621.31 756.29 627.20
  C 752.06 632.54 751.88 646.23 758.19 650.31"
/>
<path stroke="#83fbfd" vector-effect="non-scaling-stroke" d="
  M 768.87 647.14
  C 773.32 643.40 773.25 631.30 767.60 628.29
  Q 766.38 627.64 764.76 626.94"
/>
</g>
<path fill="#08f9fc" d="
  M 818.86 616.27
  L 808.57 616.02
  L 813.48 596.61
  Q 813.62 596.06 813.05 596.05
  Q 801.23 595.89 789.61 596.00
  C 783.45 596.06 780.00 593.57 780.00 587.34
  Q 779.99 519.17 780.01 451.00
  C 780.01 445.31 783.94 444.01 789.06 444.00
  Q 807.04 443.97 824.99 443.98
  C 828.88 443.99 831.34 445.35 833.09 449.03
  Q 840.72 465.06 847.54 481.44
  A 1.52 1.48 -86.4 0 0 848.14 482.14
  Q 851.21 484.06 850.73 487.75
  Q 850.66 488.31 850.98 488.77
  C 854.53 493.91 856.08 499.38 858.59 504.95
  Q 858.76 505.33 858.95 504.96
  Q 860.78 501.57 861.96 497.92
  C 863.07 494.52 865.08 492.06 866.52 488.82
  C 867.76 486.04 866.40 483.57 869.66 481.42
  Q 870.08 481.15 870.29 480.68
  Q 877.32 464.93 884.06 449.06
  C 886.69 442.86 894.15 443.95 899.49 443.98
  A 0.78 0.78 0.0 0 0 900.25 443.42
  Q 918.93 382.10 937.53 320.81
  C 938.42 317.91 939.61 314.56 943.23 314.86
  Q 945.96 315.08 946.96 318.05
  Q 969.35 384.07 991.73 450.08
  Q 991.92 450.63 992.46 450.42
  C 996.13 449.00 999.18 446.97 1003.05 445.93
  C 1007.70 444.67 1010.19 443.35 1016.25 443.06
  C 1029.46 442.43 1046.46 441.29 1059.22 444.85
  Q 1070.54 448.00 1074.94 450.27
  Q 1080.28 453.01 1082.92 453.78
  A 1.43 1.43 0.0 0 1 1083.67 454.29
  Q 1084.96 455.94 1084.96 457.81
  Q 1085.04 475.91 1085.01 494.00
  C 1085.01 498.85 1079.55 499.81 1075.89 499.07
  Q 1073.74 498.63 1070.93 496.24
  C 1061.79 488.48 1052.45 482.31 1041.48 480.29
  C 1028.92 477.98 1013.67 484.21 1008.17 496.22
  A 2.34 2.29 -42.7 0 0 1008.08 497.94
  L 1028.40 557.90
  Q 1028.56 558.37 1029.00 558.60
  C 1036.80 562.55 1048.38 558.72 1055.66 554.58
  Q 1056.15 554.30 1056.44 553.80
  Q 1058.15 550.81 1061.84 550.87
  Q 1062.42 550.88 1062.87 550.54
  C 1066.06 548.14 1072.25 541.54 1075.77 540.93
  C 1088.12 538.77 1085.06 550.93 1085.02 558.09
  A 0.68 0.68 0.0 0 0 1085.70 558.78
  Q 1192.70 558.58 1298.94 559.55
  C 1365.87 560.16 1427.33 559.80 1477.25 560.28
  Q 1477.90 560.28 1477.66 561.04
  Q 1477.52 561.51 1477.03 561.51
  L 1085.58 563.33
  A 0.58 0.58 0.0 0 0 1085.00 563.91
  L 1085.00 581.68
  A 4.12 4.10 -11.4 0 1 1082.47 585.47
  Q 1078.11 587.28 1073.30 589.91
  C 1070.97 591.19 1067.54 590.68 1066.31 593.64
  Q 1059.93 609.07 1053.51 624.46
  C 1052.80 626.17 1051.66 629.15 1049.69 629.49
  C 1047.87 629.80 1047.02 628.87 1046.42 627.22
  Q 1040.99 612.28 1035.81 596.77
  A 1.14 1.13 -9.2 0 0 1034.73 596.00
  Q 1023.50 596.00 1011.92 595.99
  C 1006.32 595.99 996.59 592.32 991.63 589.81
  C 980.08 583.96 971.80 575.00 964.31 564.44
  Q 962.22 561.50 960.71 557.46
  C 959.02 552.95 956.79 548.66 956.10 543.96
  Q 953.08 523.31 955.30 502.57
  C 957.20 484.72 965.84 472.92 977.63 460.60
  C 979.91 458.21 982.84 456.56 985.45 454.35
  A 1.10 1.10 0.0 0 0 985.77 453.15
  L 943.33 331.98
  Q 943.00 331.05 942.72 331.99
  L 909.53 443.44
  Q 909.37 443.98 909.93 443.98
  Q 920.76 444.06 931.50 443.92
  C 936.26 443.86 937.99 448.16 937.99 452.25
  Q 937.99 519.52 938.01 586.79
  C 938.02 593.60 934.40 595.86 928.18 595.94
  Q 904.01 596.24 896.20 595.91
  C 891.79 595.72 889.98 592.34 889.99 588.08
  Q 890.01 558.90 889.80 529.76
  Q 889.80 529.28 889.74 529.00
  A 0.51 0.51 0.0 0 0 888.76 528.93
  C 887.33 532.91 886.38 536.69 884.20 540.37
  C 878.59 549.84 874.96 560.62 871.77 571.12
  C 870.72 574.58 869.19 577.71 865.23 577.00
  C 860.49 576.16 859.01 566.56 857.63 562.52
  A 0.74 0.73 80.5 0 0 856.94 562.02
  Q 852.12 561.97 847.45 561.98
  C 840.32 562.00 839.68 557.17 836.86 552.11
  A 0.33 0.33 0.0 0 0 836.25 552.19
  L 818.86 616.27
  Z
  M 961.49 547.08
  C 961.72 549.87 963.23 551.33 964.09 553.80
  Q 964.60 555.24 965.52 556.51
  Q 965.79 556.88 965.67 557.32
  L 965.46 558.08
  Q 965.32 558.55 965.72 558.84
  Q 966.52 559.41 967.29 560.73
  C 975.32 574.56 988.75 586.28 1005.09 590.14
  C 1006.58 590.49 1008.74 592.02 1009.75 592.02
  Q 1031.77 592.06 1053.81 591.97
  A 1.58 1.57 -61.8 0 0 1054.69 591.70
  Q 1058.17 589.39 1062.35 590.09
  A 0.53 0.53 0.0 0 0 1062.97 589.61
  L 1063.01 589.03
  Q 1063.06 588.33 1063.75 588.19
  L 1070.38 586.85
  Q 1070.81 586.76 1070.92 586.33
  L 1071.18 585.33
  Q 1071.33 584.75 1071.92 584.91
  Q 1074.20 585.54 1075.64 584.02
  Q 1076.03 583.60 1076.58 583.40
  L 1080.56 581.93
  A 0.69 0.67 -10.8 0 0 1081.00 581.30
  L 1081.00 545.50
  Q 1081.00 545.00 1080.50 545.00
  L 1076.51 545.00
  Q 1075.91 545.00 1075.49 545.43
  Q 1070.55 550.51 1064.61 554.39
  A 1.26 0.07 -52.9 0 0 1063.94 555.18
  Q 1063.17 556.17 1061.82 555.97
  A 0.85 0.83 75.8 0 1 1061.26 555.63
  Q 1060.90 555.12 1060.38 555.18
  A 0.35 0.35 0.0 0 0 1060.23 555.83
  L 1060.74 556.13
  Q 1061.30 556.46 1060.79 556.87
  C 1058.95 558.31 1055.73 558.69 1054.63 560.45
  Q 1054.34 560.91 1053.80 560.89
  C 1050.84 560.80 1049.15 562.47 1046.81 562.99
  Q 1030.86 566.56 1016.33 559.01
  C 1014.76 558.20 1014.01 557.09 1012.54 556.13
  Q 1010.73 554.96 1009.85 553.92
  C 1005.42 548.69 1002.31 545.07 1001.77 538.80
  A 0.78 0.77 -79.9 0 0 1001.34 538.17
  L 1000.43 537.72
  Q 999.96 537.49 1000.01 536.98
  Q 1000.41 532.59 998.56 526.19
  C 996.81 520.12 998.92 512.73 1000.04 506.53
  C 1002.32 494.01 1009.11 483.83 1020.91 478.90
  C 1041.37 470.35 1059.45 480.62 1074.74 493.77
  Q 1077.31 495.98 1080.51 494.74
  Q 1081.00 494.55 1081.00 494.03
  L 1081.00 457.74
  Q 1081.00 457.19 1080.45 457.16
  Q 1078.03 457.03 1075.55 455.49
  Q 1071.56 453.01 1066.26 451.74
  C 1064.56 451.33 1063.63 450.25 1061.77 449.89
  C 1057.25 449.03 1053.29 447.19 1048.75 446.99
  C 1037.75 446.50 1021.70 445.46 1009.60 448.13
  C 1007.98 448.49 1006.90 449.50 1005.15 449.97
  C 988.72 454.36 976.88 465.25 967.69 479.21
  C 967.10 480.10 966.95 481.35 965.96 482.14
  Q 965.59 482.44 965.52 482.91
  Q 965.49 483.12 965.61 483.25
  Q 965.92 483.59 965.70 483.99
  C 956.12 501.38 957.09 525.63 960.49 545.55
  Q 960.59 546.12 961.04 546.37
  Q 961.45 546.61 961.49 547.08
  Z
  M 821.68 504.47
  Q 825.70 515.35 830.71 526.02
  Q 831.62 527.95 832.37 531.17
  Q 832.50 531.70 832.95 532.02
  Q 834.34 532.99 833.97 534.73
  A 0.65 0.63 -66.7 0 0 834.22 535.39
  Q 837.10 537.44 835.37 540.37
  A 0.25 0.25 0.0 0 0 835.66 540.73
  L 836.33 540.53
  Q 836.91 540.34 837.28 540.82
  Q 838.71 542.65 837.24 544.33
  Q 836.58 545.07 837.53 544.78
  L 838.19 544.57
  Q 838.61 544.44 838.78 544.84
  L 843.54 555.98
  A 3.33 3.32 -11.5 0 0 846.60 558.00
  L 871.01 558.00
  Q 871.61 558.00 871.84 557.44
  Q 874.44 550.92 877.00 544.39
  C 877.59 542.88 879.13 541.32 879.01 538.91
  Q 878.97 538.26 879.58 538.48
  L 880.21 538.72
  A 0.50 0.50 0.0 0 0 880.88 538.28
  L 881.06 535.15
  A 0.59 0.58 5.4 0 1 881.73 534.60
  L 882.59 534.73
  A 0.30 0.30 0.0 0 0 882.78 534.17
  Q 881.94 533.70 881.95 532.86
  C 881.97 531.93 883.14 530.96 883.76 530.32
  A 0.99 0.98 -27.9 0 0 884.02 529.50
  Q 883.79 528.10 884.91 527.22
  Q 885.34 526.88 885.54 526.36
  L 889.48 515.77
  Q 889.65 515.31 890.06 515.05
  Q 891.10 514.39 891.04 513.16
  Q 891.01 512.63 891.24 512.16
  Q 893.51 507.49 894.29 502.35
  A 0.20 0.20 0.0 0 1 894.68 502.31
  Q 894.84 502.74 894.77 503.26
  Q 894.05 508.88 894.05 516.50
  Q 894.00 553.46 893.99 588.93
  Q 893.99 592.00 897.06 592.00
  L 930.01 591.98
  A 3.99 3.99 0.0 0 0 934.00 587.99
  L 933.99 450.75
  A 2.75 2.74 -90.0 0 0 931.25 448.00
  L 891.00 448.00
  A 1.06 1.03 -66.9 0 0 890.26 448.31
  C 886.79 451.74 885.11 457.14 883.81 461.74
  Q 883.67 462.24 883.31 462.60
  L 882.31 463.60
  Q 881.88 464.03 881.99 464.62
  Q 882.29 466.32 880.86 467.08
  Q 880.37 467.35 880.22 467.88
  L 878.81 473.00
  Q 878.70 473.41 878.36 473.67
  C 876.98 474.75 876.87 476.71 876.34 477.88
  Q 872.19 487.11 867.70 496.21
  Q 867.44 496.72 866.93 496.99
  Q 865.44 497.78 866.48 498.91
  A 0.68 0.68 0.0 0 1 866.46 499.85
  Q 864.90 501.44 864.82 503.75
  Q 864.80 504.25 864.37 504.52
  C 862.11 505.92 863.84 507.95 861.95 508.92
  Q 861.53 509.14 861.39 509.59
  L 859.28 516.59
  A 0.58 0.58 0.0 0 1 858.16 516.56
  L 856.73 510.88
  Q 856.61 510.40 856.23 510.10
  L 855.27 509.37
  Q 854.87 509.07 854.97 508.58
  Q 855.31 506.75 853.81 505.75
  Q 853.37 505.46 853.25 504.94
  L 851.78 498.86
  Q 851.67 498.39 851.27 498.11
  L 850.29 497.44
  A 0.84 0.84 0.0 0 1 849.95 496.52
  Q 850.43 494.76 848.97 493.97
  Q 848.42 493.68 848.24 493.08
  Q 847.47 490.49 845.55 488.49
  A 0.92 0.91 -16.1 0 1 846.40 486.96
  Q 846.97 487.07 846.62 486.39
  Q 846.46 486.07 846.16 486.29
  L 845.88 486.49
  A 0.38 0.38 0.0 0 1 845.31 486.35
  L 838.01 470.60
  A 0.62 0.60 -55.7 0 1 837.95 470.26
  Q 838.14 468.37 836.50 467.75
  A 0.87 0.86 17.1 0 1 835.96 466.74
  Q 836.38 464.97 835.02 463.97
  Q 834.65 463.69 834.51 463.25
  Q 832.13 455.90 828.29 449.15
  Q 828.03 448.69 827.52 448.57
  Q 824.93 447.95 822.25 447.95
  Q 803.90 447.99 786.13 448.01
  A 1.69 1.69 0.0 0 0 784.46 449.51
  Q 784.04 453.34 784.04 456.50
  Q 784.00 522.84 784.00 588.26
  A 3.74 3.74 0.0 0 0 787.74 592.00
  L 818.50 592.00
  Q 821.00 592.00 821.00 589.50
  L 821.00 504.59
  A 0.35 0.35 0.0 0 1 821.68 504.47
  Z
  M 1007.27 542.93
  C 1010.89 549.51 1015.29 553.34 1021.39 556.73
  A 0.24 0.24 0.0 0 0 1021.74 556.44
  Q 1013.70 533.74 1005.87 511.15
  C 1005.39 509.79 1005.18 508.00 1004.65 506.47
  Q 1004.30 505.45 1004.25 506.53
  C 1003.86 514.82 1000.32 518.99 1003.35 527.59
  C 1004.33 530.38 1003.81 532.91 1004.96 535.94
  C 1005.90 538.39 1006.04 540.69 1007.27 542.93
  Z
  M 824.99 525.75
  L 825.06 549.71
  A 0.44 0.44 0.0 0 0 825.94 549.79
  Q 827.20 543.09 829.43 536.43
  Q 829.80 535.31 828.86 534.33
  A 1.56 1.55 -70.5 0 1 828.47 533.51
  Q 827.84 529.28 825.74 525.55
  A 0.40 0.40 0.0 0 0 824.99 525.75
  Z
  M 1049.82 619.31
  L 1060.49 594.51
  A 0.47 0.46 -1.3 0 0 1059.86 593.91
  C 1053.63 596.88 1048.72 595.77 1042.03 596.07
  Q 1041.40 596.10 1041.61 596.70
  L 1049.41 619.29
  A 0.22 0.22 0.0 0 0 1049.82 619.31
  Z"
/>
<path fill="#08f9fc" d="
  M 775.09 618.25
  Q 773.04 618.25 771.17 617.47
  C 767.84 616.08 765.82 616.24 762.50 615.98
  L 756.40 587.44
  A 0.59 0.58 74.0 0 0 755.63 587.01
  Q 746.76 590.17 739.09 591.90
  C 736.35 592.52 733.10 594.23 729.47 594.11
  A 1.80 1.77 30.9 0 0 728.52 594.34
  Q 725.60 595.98 724.19 595.98
  Q 700.78 596.01 677.38 596.00
  C 672.40 596.00 668.15 594.16 663.54 592.57
  C 653.92 589.26 644.83 583.69 637.74 576.76
  C 636.68 575.73 636.08 575.00 634.47 575.00
  Q 536.49 575.00 438.50 575.01
  Q 438.24 575.01 438.01 574.90
  Q 437.65 574.73 437.26 574.73
  Q 338.85 574.32 240.43 574.55
  Q 240.35 574.55 239.58 574.61
  Q 238.38 574.71 238.00 573.72
  A 0.57 0.57 0.0 0 1 238.52 572.94
  L 631.07 569.94
  Q 631.55 569.94 631.27 569.55
  C 627.94 565.01 624.68 561.02 622.75 555.62
  C 621.02 550.78 618.16 545.05 618.05 539.91
  Q 617.59 519.76 618.08 499.60
  Q 618.15 496.99 619.22 494.46
  C 621.44 489.20 623.13 483.46 625.93 478.85
  Q 636.31 461.71 652.34 452.58
  C 662.49 446.79 676.59 442.30 688.96 442.92
  A 1.31 1.31 0.0 0 0 690.26 442.06
  Q 701.31 411.64 712.71 381.15
  C 714.50 376.37 719.00 378.52 719.88 382.49
  Q 726.86 413.73 733.59 445.03
  Q 733.70 445.53 734.11 445.81
  C 738.21 448.59 743.33 448.76 747.86 451.35
  C 752.46 453.98 758.01 453.65 758.01 460.83
  Q 758.00 477.17 757.99 493.50
  C 757.99 500.45 751.19 499.28 746.17 498.78
  Q 745.63 498.73 745.74 499.25
  L 747.13 506.44
  A 0.63 0.63 0.0 0 0 747.72 506.94
  C 754.49 507.23 760.09 504.89 760.03 514.24
  Q 759.86 537.37 760.13 560.48
  Q 760.19 565.20 761.26 569.90
  Q 766.38 592.27 771.05 614.70
  Q 771.50 616.89 775.09 618.25
  Z
  M 716.40 443.05
  C 719.05 443.06 722.35 443.66 725.41 443.78
  Q 726.19 443.81 726.02 443.05
  L 715.40 394.01
  Q 715.25 393.33 715.00 393.98
  L 696.43 442.43
  Q 696.21 443.00 696.81 443.00
  Q 706.63 442.99 716.40 443.05
  Z
  M 623.68 544.07
  L 624.12 548.12
  Q 624.18 548.64 624.63 548.91
  L 625.08 549.18
  Q 625.53 549.45 625.64 549.97
  C 626.89 555.96 629.38 559.96 633.76 565.65
  C 643.21 577.94 655.07 586.23 670.20 590.24
  Q 670.86 590.42 672.98 591.43
  C 674.71 592.25 676.38 591.90 677.98 591.93
  Q 699.67 592.31 721.37 592.10
  C 724.39 592.08 726.74 590.45 729.83 590.09
  Q 731.73 589.86 733.40 589.21
  C 736.30 588.06 739.88 587.64 742.33 586.84
  Q 746.06 585.62 749.90 584.67
  Q 750.38 584.55 750.74 584.21
  Q 752.23 582.80 754.34 583.03
  Q 756.00 583.21 756.00 581.53
  L 756.00 511.50
  A 0.50 0.50 0.0 0 0 755.50 511.00
  L 689.25 511.00
  A 2.25 2.25 0.0 0 0 687.00 513.25
  L 687.00 538.99
  A 1.98 1.98 0.0 0 0 688.98 540.97
  L 714.78 541.01
  Q 715.30 541.01 715.27 541.53
  Q 714.59 553.52 715.75 565.47
  A 0.48 0.48 0.0 0 1 715.30 565.99
  C 709.29 566.29 702.40 566.55 696.59 564.92
  Q 694.82 564.42 692.24 564.04
  Q 675.02 561.51 666.47 545.77
  Q 663.92 541.08 663.74 537.05
  Q 663.72 536.53 663.33 536.20
  L 662.66 535.62
  Q 662.29 535.29 662.23 534.80
  Q 660.57 520.47 662.35 506.15
  Q 662.43 505.52 662.96 505.20
  Q 664.03 504.55 663.73 503.25
  A 1.70 1.64 -44.0 0 1 663.76 502.39
  C 666.12 494.49 671.64 486.17 679.07 482.25
  C 681.76 480.83 683.76 479.34 686.74 478.62
  C 690.78 477.63 694.94 476.21 698.83 475.88
  C 715.52 474.48 733.35 481.97 745.96 492.45
  C 746.80 493.15 746.75 493.32 747.05 494.34
  A 0.94 0.93 -8.3 0 0 747.95 495.00
  L 753.48 495.00
  Q 753.98 495.00 753.98 494.50
  Q 754.04 478.10 753.99 461.67
  C 753.98 458.52 752.43 456.98 749.39 456.96
  A 1.56 1.55 -27.4 0 1 748.50 456.68
  Q 743.41 453.15 737.41 451.93
  C 734.57 451.35 732.60 449.58 729.20 449.89
  Q 728.68 449.94 728.30 449.59
  C 723.27 444.94 689.47 447.12 681.45 447.28
  C 674.70 447.41 667.24 450.84 661.11 453.22
  C 648.13 458.26 637.22 468.88 630.53 480.08
  Q 630.28 480.50 629.89 480.78
  Q 628.93 481.46 628.99 482.68
  Q 629.02 483.24 628.57 483.57
  L 627.72 484.21
  Q 627.27 484.55 627.14 485.09
  L 625.77 490.69
  Q 625.64 491.26 625.20 491.66
  Q 623.36 493.34 624.11 495.86
  A 0.64 0.64 0.0 0 1 623.75 496.64
  L 622.60 497.13
  Q 622.04 497.37 622.02 497.98
  Q 621.33 520.07 622.13 542.15
  Q 622.14 542.64 622.55 542.92
  L 623.25 543.38
  Q 623.63 543.63 623.68 544.07
  Z
  M 668.02 537.51
  C 671.57 550.19 680.56 557.94 693.35 560.04
  C 698.99 560.97 704.19 562.86 710.41 561.95
  A 0.69 0.68 86.2 0 0 711.00 561.27
  L 711.00 545.51
  Q 711.00 545.04 710.53 545.04
  Q 699.89 545.02 689.26 544.69
  Q 683.16 544.50 683.08 538.01
  Q 682.93 525.93 683.01 513.84
  C 683.03 511.79 683.55 510.41 684.40 508.62
  Q 684.59 508.21 685.02 508.09
  C 686.67 507.63 687.83 506.98 689.57 506.98
  Q 714.15 507.06 738.78 506.97
  Q 739.38 506.97 739.27 506.38
  L 736.35 491.49
  A 2.17 2.16 10.5 0 0 735.36 490.06
  C 718.61 479.69 697.68 475.22 680.00 486.91
  A 1.56 1.54 84.3 0 0 679.41 487.64
  Q 673.02 504.42 666.71 521.23
  C 664.80 526.31 666.47 531.99 668.02 537.51
  Z"
/>
<path fill="#000000" d="
  M 961.04 546.37
  Q 960.59 546.12 960.49 545.55
  C 957.09 525.63 956.12 501.38 965.70 483.99
  Q 965.92 483.59 965.61 483.25
  Q 965.49 483.12 965.52 482.91
  Q 965.59 482.44 965.96 482.14
  C 966.95 481.35 967.10 480.10 967.69 479.21
  C 976.88 465.25 988.72 454.36 1005.15 449.97
  C 1006.90 449.50 1007.98 448.49 1009.60 448.13
  C 1021.70 445.46 1037.75 446.50 1048.75 446.99
  C 1053.29 447.19 1057.25 449.03 1061.77 449.89
  C 1063.63 450.25 1064.56 451.33 1066.26 451.74
  Q 1071.56 453.01 1075.55 455.49
  Q 1078.03 457.03 1080.45 457.16
  Q 1081.00 457.19 1081.00 457.74
  L 1081.00 494.03
  Q 1081.00 494.55 1080.51 494.74
  Q 1077.31 495.98 1074.74 493.77
  C 1059.45 480.62 1041.37 470.35 1020.91 478.90
  C 1009.11 483.83 1002.32 494.01 1000.04 506.53
  C 998.92 512.73 996.81 520.12 998.56 526.19
  Q 1000.41 532.59 1000.01 536.98
  Q 999.96 537.49 1000.43 537.72
  L 1001.34 538.17
  A 0.78 0.77 -79.9 0 1 1001.77 538.80
  C 1002.31 545.07 1005.42 548.69 1009.85 553.92
  Q 1010.73 554.96 1012.54 556.13
  C 1014.01 557.09 1014.76 558.20 1016.33 559.01
  Q 1030.86 566.56 1046.81 562.99
  C 1049.15 562.47 1050.84 560.80 1053.80 560.89
  Q 1054.34 560.91 1054.63 560.45
  C 1055.73 558.69 1058.95 558.31 1060.79 556.87
  Q 1061.30 556.46 1060.74 556.13
  L 1060.23 555.83
  A 0.35 0.35 0.0 0 1 1060.38 555.18
  Q 1060.90 555.12 1061.26 555.63
  A 0.85 0.83 75.8 0 0 1061.82 555.97
  Q 1063.17 556.17 1063.94 555.18
  A 1.26 0.07 -52.9 0 1 1064.61 554.39
  Q 1070.55 550.51 1075.49 545.43
  Q 1075.91 545.00 1076.51 545.00
  L 1080.50 545.00
  Q 1081.00 545.00 1081.00 545.50
  L 1081.00 581.30
  A 0.69 0.67 -10.8 0 1 1080.56 581.93
  L 1076.58 583.40
  Q 1076.03 583.60 1075.64 584.02
  Q 1074.20 585.54 1071.92 584.91
  Q 1071.33 584.75 1071.18 585.33
  L 1070.92 586.33
  Q 1070.81 586.76 1070.38 586.85
  L 1063.75 588.19
  Q 1063.06 588.33 1063.01 589.03
  L 1062.97 589.61
  A 0.53 0.53 0.0 0 1 1062.35 590.09
  Q 1058.17 589.39 1054.69 591.70
  A 1.58 1.57 -61.8 0 1 1053.81 591.97
  Q 1031.77 592.06 1009.75 592.02
  C 1008.74 592.02 1006.58 590.49 1005.09 590.14
  C 988.75 586.28 975.32 574.56 967.29 560.73
  Q 966.52 559.41 965.72 558.84
  Q 965.32 558.55 965.46 558.08
  L 965.67 557.32
  Q 965.79 556.88 965.52 556.51
  Q 964.60 555.24 964.09 553.80
  C 963.23 551.33 961.72 549.87 961.49 547.08
  Q 961.45 546.61 961.04 546.37
  Z"
/>
<path fill="#000000" d="
  M 623.25 543.38
  L 622.55 542.92
  Q 622.14 542.64 622.13 542.15
  Q 621.33 520.07 622.02 497.98
  Q 622.04 497.37 622.60 497.13
  L 623.75 496.64
  A 0.64 0.64 0.0 0 0 624.11 495.86
  Q 623.36 493.34 625.20 491.66
  Q 625.64 491.26 625.77 490.69
  L 627.14 485.09
  Q 627.27 484.55 627.72 484.21
  L 628.57 483.57
  Q 629.02 483.24 628.99 482.68
  Q 628.93 481.46 629.89 480.78
  Q 630.28 480.50 630.53 480.08
  C 637.22 468.88 648.13 458.26 661.11 453.22
  C 667.24 450.84 674.70 447.41 681.45 447.28
  C 689.47 447.12 723.27 444.94 728.30 449.59
  Q 728.68 449.94 729.20 449.89
  C 732.60 449.58 734.57 451.35 737.41 451.93
  Q 743.41 453.15 748.50 456.68
  A 1.56 1.55 -27.4 0 0 749.39 456.96
  C 752.43 456.98 753.98 458.52 753.99 461.67
  Q 754.04 478.10 753.98 494.50
  Q 753.98 495.00 753.48 495.00
  L 747.95 495.00
  A 0.94 0.93 -8.3 0 1 747.05 494.34
  C 746.75 493.32 746.80 493.15 745.96 492.45
  C 733.35 481.97 715.52 474.48 698.83 475.88
  C 694.94 476.21 690.78 477.63 686.74 478.62
  C 683.76 479.34 681.76 480.83 679.07 482.25
  C 671.64 486.17 666.12 494.49 663.76 502.39
  A 1.70 1.64 -44.0 0 0 663.73 503.25
  Q 664.03 504.55 662.96 505.20
  Q 662.43 505.52 662.35 506.15
  Q 660.57 520.47 662.23 534.80
  Q 662.29 535.29 662.66 535.62
  L 663.33 536.20
  Q 663.72 536.53 663.74 537.05
  Q 663.92 541.08 666.47 545.77
  Q 675.02 561.51 692.24 564.04
  Q 694.82 564.42 696.59 564.92
  C 702.40 566.55 709.29 566.29 715.30 565.99
  A 0.48 0.48 0.0 0 0 715.75 565.47
  Q 714.59 553.52 715.27 541.53
  Q 715.30 541.01 714.78 541.01
  L 688.98 540.97
  A 1.98 1.98 0.0 0 1 687.00 538.99
  L 687.00 513.25
  A 2.25 2.25 0.0 0 1 689.25 511.00
  L 755.50 511.00
  A 0.50 0.50 0.0 0 1 756.00 511.50
  L 756.00 581.53
  Q 756.00 583.21 754.34 583.03
  Q 752.23 582.80 750.74 584.21
  Q 750.38 584.55 749.90 584.67
  Q 746.06 585.62 742.33 586.84
  C 739.88 587.64 736.30 588.06 733.40 589.21
  Q 731.73 589.86 729.83 590.09
  C 726.74 590.45 724.39 592.08 721.37 592.10
  Q 699.67 592.31 677.98 591.93
  C 676.38 591.90 674.71 592.25 672.98 591.43
  Q 670.86 590.42 670.20 590.24
  C 655.07 586.23 643.21 577.94 633.76 565.65
  C 629.38 559.96 626.89 555.96 625.64 549.97
  Q 625.53 549.45 625.08 549.18
  L 624.63 548.91
  Q 624.18 548.64 624.12 548.12
  L 623.68 544.07
  Q 623.63 543.63 623.25 543.38
  Z"
/>
<path fill="#000000" d="
  M 821.68 504.47
  A 0.35 0.35 0.0 0 0 821.00 504.59
  L 821.00 589.50
  Q 821.00 592.00 818.50 592.00
  L 787.74 592.00
  A 3.74 3.74 0.0 0 1 784.00 588.26
  Q 784.00 522.84 784.04 456.50
  Q 784.04 453.34 784.46 449.51
  A 1.69 1.69 0.0 0 1 786.13 448.01
  Q 803.90 447.99 822.25 447.95
  Q 824.93 447.95 827.52 448.57
  Q 828.03 448.69 828.29 449.15
  Q 832.13 455.90 834.51 463.25
  Q 834.65 463.69 835.02 463.97
  Q 836.38 464.97 835.96 466.74
  A 0.87 0.86 17.1 0 0 836.50 467.75
  Q 838.14 468.37 837.95 470.26
  A 0.62 0.60 -55.7 0 0 838.01 470.60
  L 845.31 486.35
  A 0.38 0.38 0.0 0 0 845.88 486.49
  L 846.16 486.29
  Q 846.46 486.07 846.62 486.39
  Q 846.97 487.07 846.40 486.96
  A 0.92 0.91 -16.1 0 0 845.55 488.49
  Q 847.47 490.49 848.24 493.08
  Q 848.42 493.68 848.97 493.97
  Q 850.43 494.76 849.95 496.52
  A 0.84 0.84 0.0 0 0 850.29 497.44
  L 851.27 498.11
  Q 851.67 498.39 851.78 498.86
  L 853.25 504.94
  Q 853.37 505.46 853.81 505.75
  Q 855.31 506.75 854.97 508.58
  Q 854.87 509.07 855.27 509.37
  L 856.23 510.10
  Q 856.61 510.40 856.73 510.88
  L 858.16 516.56
  A 0.58 0.58 0.0 0 0 859.28 516.59
  L 861.39 509.59
  Q 861.53 509.14 861.95 508.92
  C 863.84 507.95 862.11 505.92 864.37 504.52
  Q 864.80 504.25 864.82 503.75
  Q 864.90 501.44 866.46 499.85
  A 0.68 0.68 0.0 0 0 866.48 498.91
  Q 865.44 497.78 866.93 496.99
  Q 867.44 496.72 867.70 496.21
  Q 872.19 487.11 876.34 477.88
  C 876.87 476.71 876.98 474.75 878.36 473.67
  Q 878.70 473.41 878.81 473.00
  L 880.22 467.88
  Q 880.37 467.35 880.86 467.08
  Q 882.29 466.32 881.99 464.62
  Q 881.88 464.03 882.31 463.60
  L 883.31 462.60
  Q 883.67 462.24 883.81 461.74
  C 885.11 457.14 886.79 451.74 890.26 448.31
  A 1.06 1.03 -66.9 0 1 891.00 448.00
  L 931.25 448.00
  A 2.75 2.74 90.0 0 1 933.99 450.75
  L 934.00 587.99
  A 3.99 3.99 0.0 0 1 930.01 591.98
  L 897.06 592.00
  Q 893.99 592.00 893.99 588.93
  Q 894.00 553.46 894.05 516.50
  Q 894.05 508.88 894.77 503.26
  Q 894.84 502.74 894.68 502.31
  A 0.20 0.20 0.0 0 0 894.29 502.35
  Q 893.51 507.49 891.24 512.16
  Q 891.01 512.63 891.04 513.16
  Q 891.10 514.39 890.06 515.05
  Q 889.65 515.31 889.48 515.77
  L 885.54 526.36
  Q 885.34 526.88 884.91 527.22
  Q 883.79 528.10 884.02 529.50
  A 0.99 0.98 -27.9 0 1 883.76 530.32
  C 883.14 530.96 881.97 531.93 881.95 532.86
  Q 881.94 533.70 882.78 534.17
  A 0.30 0.30 0.0 0 1 882.59 534.73
  L 881.73 534.60
  A 0.59 0.58 5.4 0 0 881.06 535.15
  L 880.88 538.28
  A 0.50 0.50 0.0 0 1 880.21 538.72
  L 879.58 538.48
  Q 878.97 538.26 879.01 538.91
  C 879.13 541.32 877.59 542.88 877.00 544.39
  Q 874.44 550.92 871.84 557.44
  Q 871.61 558.00 871.01 558.00
  L 846.60 558.00
  A 3.33 3.32 -11.5 0 1 843.54 555.98
  L 838.78 544.84
  Q 838.61 544.44 838.19 544.57
  L 837.53 544.78
  Q 836.58 545.07 837.24 544.33
  Q 838.71 542.65 837.28 540.82
  Q 836.91 540.34 836.33 540.53
  L 835.66 540.73
  A 0.25 0.25 0.0 0 1 835.37 540.37
  Q 837.10 537.44 834.22 535.39
  A 0.65 0.63 -66.7 0 1 833.97 534.73
  Q 834.34 532.99 832.95 532.02
  Q 832.50 531.70 832.37 531.17
  Q 831.62 527.95 830.71 526.02
  Q 825.70 515.35 821.68 504.47
  Z"
/>
<path fill="#fdfdfd" d="
  M 762.50 615.98
  C 765.82 616.24 767.84 616.08 771.17 617.47
  Q 773.04 618.25 775.09 618.25
  C 780.14 620.33 782.69 624.32 784.51 629.24
  C 787.80 638.13 784.83 647.71 780.09 655.38
  C 776.20 655.38 775.06 658.65 771.74 658.91
  C 765.24 658.97 757.57 660.08 751.75 656.71
  C 744.08 652.25 741.72 641.35 743.16 633.16
  Q 745.95 617.24 762.50 615.98
  Z
  M 782.75 637.98
  A 18.39 18.39 0.0 0 0 764.36 619.59
  A 18.39 18.39 0.0 0 0 745.97 637.98
  A 18.39 18.39 0.0 0 0 764.36 656.37
  A 18.39 18.39 0.0 0 0 782.75 637.98
  Z"
/>
<path fill="#fdfdfd" d="
  M 808.57 616.02
  L 818.86 616.27
  L 825.03 619.39
  A 2.68 2.67 -76.7 0 1 826.50 621.78
  L 826.50 630.94
  Q 826.50 631.44 826.02 631.59
  C 820.59 633.25 819.40 627.47 815.56 628.41
  Q 813.44 626.11 808.75 627.34
  Q 805.80 627.20 803.72 630.41
  Q 799.11 637.71 802.72 644.69
  Q 805.68 648.16 810.46 648.31
  Q 810.86 649.74 812.75 649.08
  A 0.79 0.79 0.0 0 0 813.28 648.28
  L 813.12 645.41
  Q 813.08 644.84 812.51 644.77
  Q 811.62 644.65 811.20 644.99
  L 811.07 644.78
  Q 810.95 644.60 810.74 644.58
  L 806.76 644.31
  Q 806.10 644.26 806.02 643.61
  C 805.12 636.88 805.30 631.84 814.17 634.05
  L 825.96 634.65
  Q 826.50 634.68 826.50 635.22
  L 826.50 655.25
  Q 826.50 655.73 826.21 656.10
  C 823.69 659.29 811.36 659.21 807.20 658.98
  L 797.22 658.06
  Q 796.92 657.97 796.98 657.65
  A 0.51 0.50 26.7 0 0 796.81 657.15
  C 794.29 654.98 791.53 652.55 789.89 649.80
  C 787.11 645.11 786.61 635.70 788.17 630.72
  Q 792.60 616.52 808.57 616.02
  Z
  M 816.40 642.23
  L 816.52 650.96
  Q 816.53 651.60 815.91 651.75
  C 808.19 653.66 800.45 650.67 798.34 642.65
  C 794.00 626.20 809.59 618.26 822.23 627.06
  A 0.63 0.63 0.0 0 0 823.22 626.51
  L 823.06 623.14
  A 0.77 0.76 -78.1 0 0 822.64 622.49
  C 814.93 618.66 805.03 618.24 797.93 623.24
  C 786.48 631.31 789.14 650.50 802.43 655.14
  C 809.52 657.62 814.92 656.13 821.85 654.30
  A 1.88 1.88 0.0 0 0 823.25 652.48
  L 823.25 637.75
  A 0.50 0.50 0.0 0 0 822.75 637.25
  L 810.09 637.25
  Q 809.42 637.25 809.39 637.91
  L 809.28 640.00
  Q 809.20 641.49 810.69 641.49
  L 815.67 641.51
  A 0.73 0.73 0.0 0 1 816.40 642.23
  Z"
/>
<path fill="#fdfdfd" d="
  M 867.96 617.46
  Q 868.20 617.00 868.50 616.94
  C 875.42 615.61 887.33 614.42 892.53 619.46
  A 1.23 1.22 22.2 0 1 892.89 620.30
  L 893.05 629.46
  A 2.17 2.17 0.0 0 1 889.75 631.35
  C 884.53 628.18 879.71 625.64 873.42 627.78
  Q 872.89 627.97 872.92 628.54
  Q 873.02 630.05 874.37 630.24
  Q 875.03 630.33 875.12 630.35
  C 883.29 632.26 893.36 633.38 894.71 642.59
  Q 895.63 648.86 891.86 653.80
  C 886.07 661.38 869.15 659.63 860.64 657.33
  A 2.46 2.45 -83.6 0 1 858.83 655.05
  L 858.50 645.91
  A 2.36 2.36 0.0 0 1 861.97 643.74
  C 867.89 646.89 872.69 650.26 879.80 648.38
  A 1.30 1.30 0.0 0 0 879.84 645.87
  C 872.11 643.55 861.66 643.30 859.09 633.88
  C 857.18 626.89 860.84 620.57 867.48 617.89
  A 0.96 0.93 2.4 0 0 867.96 617.46
  Z
  M 862.41 629.81
  C 860.60 644.22 888.06 637.02 883.83 649.06
  C 881.60 655.42 867.51 651.54 863.07 648.76
  A 0.86 0.86 0.0 0 0 861.75 649.49
  L 861.75 652.71
  Q 861.75 653.12 862.12 653.31
  C 870.35 657.50 886.42 658.67 890.63 648.06
  C 894.72 637.75 881.28 635.65 875.12 634.19
  C 870.27 633.04 867.71 630.78 869.98 625.66
  A 1.34 1.32 -87.5 0 1 870.72 624.97
  Q 880.22 621.43 888.95 626.48
  A 0.53 0.53 0.0 0 0 889.75 626.02
  L 889.75 622.45
  Q 889.75 621.80 889.13 621.58
  C 881.22 618.75 863.93 617.69 862.41 629.81
  Z"
/>
<path fill="#fdfdfd" d="
  M 980.23 627.36
  C 970.77 630.85 971.36 648.48 983.03 648.72
  C 988.24 648.83 990.08 642.73 995.05 643.85
  A 1.12 1.12 0.0 0 1 995.92 644.94
  L 995.94 655.75
  Q 995.94 656.23 995.53 656.46
  C 988.51 660.49 972.72 660.19 966.77 655.72
  C 960.72 651.19 959.04 641.87 959.81 634.75
  C 961.82 616.11 980.99 611.61 995.48 619.27
  A 1.00 0.98 -78.0 0 1 996.01 620.10
  Q 996.15 623.53 995.78 629.74
  C 995.56 633.46 992.61 632.65 990.68 631.04
  C 988.08 628.88 983.77 626.06 980.23 627.36
  Z
  M 963.34 635.28
  C 960.82 653.04 978.40 661.28 992.58 653.32
  Q 993.01 653.07 993.00 652.57
  L 992.88 649.19
  A 0.55 0.55 0.0 0 0 991.98 648.79
  C 985.20 654.57 973.87 653.65 971.02 644.23
  Q 969.36 638.73 971.01 632.23
  C 973.45 622.59 984.55 620.94 991.25 626.79
  A 1.09 1.08 -71.0 0 0 993.04 625.91
  L 992.90 623.14
  Q 992.87 622.55 992.35 622.28
  C 980.30 616.03 965.42 620.60 963.34 635.28
  Z"
/>
<path fill="#fdfdfd" d="
  M 1002.19 639.81
  C 997.32 636.41 997.30 627.11 1000.69 622.70
  C 1006.77 614.78 1017.90 615.17 1026.98 616.78
  C 1034.87 618.17 1032.52 624.45 1032.48 629.91
  A 1.69 1.69 0.0 0 1 1030.26 631.50
  C 1023.95 629.40 1020.69 625.30 1013.30 627.66
  A 1.28 1.28 0.0 0 0 1013.45 630.14
  C 1021.57 631.68 1031.43 633.12 1033.97 641.22
  Q 1035.53 646.19 1033.16 650.98
  C 1028.64 660.15 1019.61 659.01 1010.75 659.04
  C 1008.23 659.05 998.46 658.51 998.34 654.93
  Q 998.18 650.23 998.28 645.03
  A 1.41 1.39 71.2 0 1 998.80 643.96
  Q 999.98 643.00 1001.93 644.12
  C 1007.22 647.18 1013.06 650.22 1019.33 648.30
  A 1.22 1.22 0.0 0 0 1019.36 645.97
  Q 1018.05 645.53 1017.08 644.80
  A 0.85 0.81 64.6 0 0 1016.66 644.64
  Q 1008.51 644.23 1002.19 639.81
  Z
  M 1003.18 625.91
  C 997.70 635.40 1009.21 640.26 1016.80 641.42
  C 1021.50 642.13 1024.73 643.38 1023.38 648.82
  C 1021.64 655.84 1006.38 651.13 1002.55 648.76
  A 0.98 0.98 0.0 0 0 1001.05 649.58
  L 1001.00 652.47
  Q 1000.99 653.06 1001.51 653.32
  C 1009.82 657.46 1024.74 658.66 1029.74 648.89
  C 1035.44 637.75 1019.18 635.01 1012.48 633.58
  C 1008.08 632.63 1007.29 625.81 1011.40 624.53
  Q 1020.26 621.76 1028.53 626.50
  A 0.56 0.55 16.9 0 0 1029.36 626.06
  L 1029.55 622.92
  Q 1029.60 622.23 1028.96 621.95
  C 1021.60 618.76 1007.87 617.78 1003.18 625.91
  Z"
/>
<path fill="#fdfdfd" d="
  M 725.51 618.79
  L 725.29 647.68
  Q 725.29 648.25 725.86 648.25
  L 740.72 648.25
  A 1.23 1.23 0.0 0 1 741.95 649.47
  L 742.02 658.23
  Q 742.03 658.73 741.53 658.73
  L 712.01 658.76
  Q 711.25 658.76 711.25 658.01
  L 711.25 618.08
  A 1.27 1.27 0.0 0 1 712.49 616.81
  L 723.29 616.59
  A 2.19 2.18 89.6 0 1 725.51 618.79
  Z
  M 722.94 651.50
  A 0.91 0.91 0.0 0 1 722.03 650.59
  L 721.98 621.17
  A 0.91 0.91 0.0 0 0 721.06 620.26
  L 715.15 620.36
  A 0.91 0.91 0.0 0 0 714.25 621.27
  L 714.25 654.59
  A 0.91 0.91 0.0 0 0 715.16 655.50
  L 738.03 655.50
  A 0.91 0.91 0.0 0 0 738.94 654.62
  L 739.02 652.44
  A 0.91 0.91 0.0 0 0 738.11 651.50
  L 722.94 651.50
  Z"
/>
<path fill="#fdfdfd" d="
  M 851.00 648.25
  L 854.79 648.25
  A 1.58 1.58 0.0 0 1 856.37 649.78
  L 856.63 658.18
  A 0.55 0.55 0.0 0 1 856.08 658.75
  L 831.92 658.75
  A 0.83 0.83 0.0 0 1 831.09 657.93
  L 830.96 649.28
  A 1.01 1.00 -0.6 0 1 831.97 648.26
  L 836.58 648.24
  A 0.45 0.45 0.0 0 0 837.03 647.79
  L 837.06 628.14
  A 0.54 0.54 0.0 0 0 836.51 627.60
  L 832.32 627.65
  A 1.32 1.31 -0.0 0 1 830.98 626.32
  L 831.05 618.30
  A 1.58 1.57 -89.8 0 1 832.61 616.74
  C 839.61 616.69 847.19 617.24 854.33 616.70
  C 858.10 616.42 856.68 625.49 856.38 627.21
  A 0.71 0.70 5.9 0 1 855.65 627.80
  L 851.59 627.61
  Q 850.50 627.56 850.50 628.65
  L 850.50 647.75
  Q 850.50 648.25 851.00 648.25
  Z
  M 840.49 625.39
  L 840.45 650.56
  A 0.79 0.79 0.0 0 1 839.69 651.35
  L 834.60 651.58
  A 0.58 0.58 0.0 0 0 834.05 652.10
  L 833.77 654.69
  A 0.74 0.73 -87.2 0 0 834.50 655.50
  L 852.76 655.50
  Q 853.45 655.50 853.51 654.81
  L 853.71 652.34
  A 0.70 0.70 0.0 0 0 853.06 651.59
  L 847.76 651.27
  Q 847.28 651.24 847.28 650.76
  L 847.24 625.59
  Q 847.24 625.01 847.80 624.87
  C 850.21 624.27 853.54 625.59 853.79 622.08
  A 1.71 1.71 0.0 0 0 852.09 620.25
  Q 844.79 620.25 836.85 620.25
  C 834.45 620.25 832.99 621.38 834.05 623.88
  A 0.80 0.80 0.0 0 0 834.72 624.36
  L 839.89 624.74
  Q 840.49 624.79 840.49 625.39
  Z"
/>
<path fill="#fdfdfd" d="
  M 905.46 627.69
  L 895.57 627.78
  A 1.03 1.03 0.0 0 1 894.53 626.79
  L 894.15 617.52
  A 1.03 1.03 0.0 0 1 895.19 616.45
  L 929.95 616.62
  A 1.03 1.03 0.0 0 1 930.98 617.65
  L 931.02 626.65
  A 1.03 1.03 0.0 0 1 930.00 627.69
  L 920.77 627.77
  A 1.03 1.03 0.0 0 0 919.75 628.80
  L 919.75 657.72
  A 1.03 1.03 0.0 0 1 918.72 658.75
  L 907.53 658.75
  A 1.03 1.03 0.0 0 1 906.50 657.72
  L 906.50 628.72
  A 1.03 1.03 0.0 0 0 905.46 627.69
  Z
  M 909.75 625.19
  L 909.75 654.88
  Q 909.75 655.52 910.39 655.51
  L 915.95 655.47
  Q 916.55 655.46 916.55 654.86
  L 916.50 625.79
  Q 916.50 624.58 917.71 624.57
  L 927.49 624.47
  Q 928.18 624.46 928.18 623.76
  L 928.18 621.19
  A 0.93 0.93 0.0 0 0 927.25 620.26
  Q 913.47 620.24 899.69 620.27
  Q 898.04 620.27 897.57 620.80
  Q 896.97 621.48 896.98 622.99
  A 1.45 1.44 -89.6 0 0 898.40 624.44
  L 909.20 624.63
  Q 909.75 624.64 909.75 625.19
  Z"
/>
<path fill="#fdfdfd" d="
  M 958.06 649.17
  L 958.15 658.02
  A 0.67 0.67 0.0 0 1 957.48 658.70
  L 932.99 658.78
  A 0.67 0.67 0.0 0 1 932.32 658.12
  L 932.23 649.11
  A 0.67 0.67 0.0 0 1 932.86 648.44
  L 937.86 648.18
  A 0.67 0.67 0.0 0 0 938.50 647.51
  L 938.50 628.50
  A 0.67 0.67 0.0 0 0 937.87 627.83
  L 933.13 627.55
  A 0.67 0.67 0.0 0 1 932.50 626.88
  L 932.50 617.72
  A 0.67 0.67 0.0 0 1 933.16 617.05
  L 957.15 616.87
  A 0.67 0.67 0.0 0 1 957.82 617.51
  L 958.13 626.98
  A 0.67 0.67 0.0 0 1 957.47 627.67
  L 952.41 627.78
  A 0.67 0.67 0.0 0 0 951.76 628.44
  L 951.66 647.51
  A 0.67 0.67 0.0 0 0 952.29 648.18
  L 957.43 648.51
  A 0.67 0.67 0.0 0 1 958.06 649.17
  Z
  M 941.71 625.27
  L 941.73 650.67
  A 0.86 0.86 0.0 0 1 940.85 651.53
  C 938.64 651.49 935.74 650.31 935.36 653.68
  Q 935.16 655.50 936.98 655.50
  L 954.13 655.50
  A 0.66 0.66 0.0 0 0 954.79 654.79
  L 954.57 651.88
  Q 954.53 651.25 953.89 651.25
  L 949.00 651.25
  Q 948.50 651.25 948.50 650.75
  L 948.50 625.50
  Q 948.50 625.03 948.94 624.86
  Q 950.76 624.19 952.56 624.85
  A 1.61 1.60 -80.6 0 0 954.72 623.30
  L 954.67 620.95
  A 0.72 0.72 0.0 0 0 953.95 620.25
  L 936.33 620.25
  A 0.69 0.69 0.0 0 0 935.64 620.90
  L 935.45 623.80
  A 0.62 0.62 0.0 0 0 936.06 624.46
  L 941.03 624.58
  Q 941.71 624.59 941.71 625.27
  Z"
/>
<path fill="#000000" d="
  M 782.75 637.98
  A 18.39 18.39 0.0 0 1 764.36 656.37
  A 18.39 18.39 0.0 0 1 745.97 637.98
  A 18.39 18.39 0.0 0 1 764.36 619.59
  A 18.39 18.39 0.0 0 1 782.75 637.98
  Z
  M 758.19 650.31
  Q 764.21 654.20 769.63 651.11
  C 776.46 647.22 776.45 636.38 774.02 630.05
  C 771.07 622.36 760.96 621.31 756.29 627.20
  C 752.06 632.54 751.88 646.23 758.19 650.31
  Z"
/>
<path fill="#000000" d="
  M 815.67 641.51
  L 810.69 641.49
  Q 809.20 641.49 809.28 640.00
  L 809.39 637.91
  Q 809.42 637.25 810.09 637.25
  L 822.75 637.25
  A 0.50 0.50 0.0 0 1 823.25 637.75
  L 823.25 652.48
  A 1.88 1.88 0.0 0 1 821.85 654.30
  C 814.92 656.13 809.52 657.62 802.43 655.14
  C 789.14 650.50 786.48 631.31 797.93 623.24
  C 805.03 618.24 814.93 618.66 822.64 622.49
  A 0.77 0.76 -78.1 0 1 823.06 623.14
  L 823.22 626.51
  A 0.63 0.63 0.0 0 1 822.23 627.06
  C 809.59 618.26 794.00 626.20 798.34 642.65
  C 800.45 650.67 808.19 653.66 815.91 651.75
  Q 816.53 651.60 816.52 650.96
  L 816.40 642.23
  A 0.73 0.73 0.0 0 0 815.67 641.51
  Z"
/>
<path fill="#000000" d="
  M 883.83 649.06
  C 888.06 637.02 860.60 644.22 862.41 629.81
  C 863.93 617.69 881.22 618.75 889.13 621.58
  Q 889.75 621.80 889.75 622.45
  L 889.75 626.02
  A 0.53 0.53 0.0 0 1 888.95 626.48
  Q 880.22 621.43 870.72 624.97
  A 1.34 1.32 -87.5 0 0 869.98 625.66
  C 867.71 630.78 870.27 633.04 875.12 634.19
  C 881.28 635.65 894.72 637.75 890.63 648.06
  C 886.42 658.67 870.35 657.50 862.12 653.31
  Q 861.75 653.12 861.75 652.71
  L 861.75 649.49
  A 0.86 0.86 0.0 0 1 863.07 648.76
  C 867.51 651.54 881.60 655.42 883.83 649.06
  Z"
/>
<path fill="#000000" d="
  M 992.58 653.32
  C 978.40 661.28 960.82 653.04 963.34 635.28
  C 965.42 620.60 980.30 616.03 992.35 622.28
  Q 992.87 622.55 992.90 623.14
  L 993.04 625.91
  A 1.09 1.08 -71.0 0 1 991.25 626.79
  C 984.55 620.94 973.45 622.59 971.01 632.23
  Q 969.36 638.73 971.02 644.23
  C 973.87 653.65 985.20 654.57 991.98 648.79
  A 0.55 0.55 0.0 0 1 992.88 649.19
  L 993.00 652.57
  Q 993.01 653.07 992.58 653.32
  Z"
/>
<path fill="#000000" d="
  M 1016.80 641.42
  C 1009.21 640.26 997.70 635.40 1003.18 625.91
  C 1007.87 617.78 1021.60 618.76 1028.96 621.95
  Q 1029.60 622.23 1029.55 622.92
  L 1029.36 626.06
  A 0.56 0.55 16.9 0 1 1028.53 626.50
  Q 1020.26 621.76 1011.40 624.53
  C 1007.29 625.81 1008.08 632.63 1012.48 633.58
  C 1019.18 635.01 1035.44 637.75 1029.74 648.89
  C 1024.74 658.66 1009.82 657.46 1001.51 653.32
  Q 1000.99 653.06 1001.00 652.47
  L 1001.05 649.58
  A 0.98 0.98 0.0 0 1 1002.55 648.76
  C 1006.38 651.13 1021.64 655.84 1023.38 648.82
  C 1024.73 643.38 1021.50 642.13 1016.80 641.42
  Z"
/>
<path fill="#000000" d="
  M 722.94 651.50
  L 738.11 651.50
  A 0.91 0.91 0.0 0 1 739.02 652.44
  L 738.94 654.62
  A 0.91 0.91 0.0 0 1 738.03 655.50
  L 715.16 655.50
  A 0.91 0.91 0.0 0 1 714.25 654.59
  L 714.25 621.27
  A 0.91 0.91 0.0 0 1 715.15 620.36
  L 721.06 620.26
  A 0.91 0.91 0.0 0 1 721.98 621.17
  L 722.03 650.59
  A 0.91 0.91 0.0 0 0 722.94 651.50
  Z"
/>
<path fill="#000000" d="
  M 839.89 624.74
  L 834.72 624.36
  A 0.80 0.80 0.0 0 1 834.05 623.88
  C 832.99 621.38 834.45 620.25 836.85 620.25
  Q 844.79 620.25 852.09 620.25
  A 1.71 1.71 0.0 0 1 853.79 622.08
  C 853.54 625.59 850.21 624.27 847.80 624.87
  Q 847.24 625.01 847.24 625.59
  L 847.28 650.76
  Q 847.28 651.24 847.76 651.27
  L 853.06 651.59
  A 0.70 0.70 0.0 0 1 853.71 652.34
  L 853.51 654.81
  Q 853.45 655.50 852.76 655.50
  L 834.50 655.50
  A 0.74 0.73 -87.2 0 1 833.77 654.69
  L 834.05 652.10
  A 0.58 0.58 0.0 0 1 834.60 651.58
  L 839.69 651.35
  A 0.79 0.79 0.0 0 0 840.45 650.56
  L 840.49 625.39
  Q 840.49 624.79 839.89 624.74
  Z"
/>
<path fill="#000000" d="
  M 909.20 624.63
  L 898.40 624.44
  A 1.45 1.44 -89.6 0 1 896.98 622.99
  Q 896.97 621.48 897.57 620.80
  Q 898.04 620.27 899.69 620.27
  Q 913.47 620.24 927.25 620.26
  A 0.93 0.93 0.0 0 1 928.18 621.19
  L 928.18 623.76
  Q 928.18 624.46 927.49 624.47
  L 917.71 624.57
  Q 916.50 624.58 916.50 625.79
  L 916.55 654.86
  Q 916.55 655.46 915.95 655.47
  L 910.39 655.51
  Q 909.75 655.52 909.75 654.88
  L 909.75 625.19
  Q 909.75 624.64 909.20 624.63
  Z"
/>
<path fill="#000000" d="
  M 941.03 624.58
  L 936.06 624.46
  A 0.62 0.62 0.0 0 1 935.45 623.80
  L 935.64 620.90
  A 0.69 0.69 0.0 0 1 936.33 620.25
  L 953.95 620.25
  A 0.72 0.72 0.0 0 1 954.67 620.95
  L 954.72 623.30
  A 1.61 1.60 -80.6 0 1 952.56 624.85
  Q 950.76 624.19 948.94 624.86
  Q 948.50 625.03 948.50 625.50
  L 948.50 650.75
  Q 948.50 651.25 949.00 651.25
  L 953.89 651.25
  Q 954.53 651.25 954.57 651.88
  L 954.79 654.79
  A 0.66 0.66 0.0 0 1 954.13 655.50
  L 936.98 655.50
  Q 935.16 655.50 935.36 653.68
  C 935.74 650.31 938.64 651.49 940.85 651.53
  A 0.86 0.86 0.0 0 0 941.73 650.67
  L 941.71 625.27
  Q 941.71 624.59 941.03 624.58
  Z"
/>
<path fill="#fdfdfd" d="
  M 758.19 650.31
  C 751.88 646.23 752.06 632.54 756.29 627.20
  C 760.96 621.31 771.07 622.36 774.02 630.05
  C 776.45 636.38 776.46 647.22 769.63 651.11
  Q 764.21 654.20 758.19 650.31
  Z
  M 768.87 647.14
  C 773.32 643.40 773.25 631.30 767.60 628.29
  Q 766.38 627.64 764.76 626.94
  Q 759.93 627.41 757.41 633.18
  Q 756.54 635.18 757.00 640.36
  C 757.52 646.15 762.71 651.39 768.87 647.14
  Z"
/>
<path fill="#08f9fc" d="
  M 815.56 628.41
  L 814.17 634.05
  C 805.30 631.84 805.12 636.88 806.02 643.61
  Q 806.10 644.26 806.76 644.31
  L 810.74 644.58
  Q 810.95 644.60 811.07 644.78
  L 811.20 644.99
  L 810.46 648.31
  Q 805.68 648.16 802.72 644.69
  Q 800.98 638.95 804.83 630.42
  Q 805.21 628.36 808.75 627.34
  Q 813.44 626.11 815.56 628.41
  Z"
/>
<path fill="#000000" d="
  M 808.75 627.34
  Q 805.21 628.36 804.83 630.42
  Q 803.93 630.64 803.72 630.41
  Q 805.80 627.20 808.75 627.34
  Z"
/>
<path fill="#08f9fc" d="
  M 764.76 626.94
  Q 766.38 627.64 767.60 628.29
  C 773.25 631.30 773.32 643.40 768.87 647.14
  L 764.76 626.94
  Z"
/>
<path fill="#08f9fc" d="
  M 780.09 655.38
  L 787.75 688.52
  Q 787.57 689.88 787.97 691.00
  Q 788.16 691.53 788.30 690.98
  L 788.94 688.59
  L 797.22 658.06
  L 807.20 658.98
  Q 800.87 683.18 794.14 706.99
  C 793.23 710.22 792.58 715.55 788.54 716.21
  C 785.99 716.62 783.57 714.64 783.02 712.25
  Q 779.11 695.36 771.74 658.91
  C 775.06 658.65 776.20 655.38 780.09 655.38
  Z"
/>
<path fill="#000000" d="
  M 787.75 688.52
  L 788.94 688.59
  L 788.30 690.98
  Q 788.16 691.53 787.97 691.00
  Q 787.57 689.88 787.75 688.52
  Z"
/>
</svg>
