<?xml version="1.0" encoding="UTF-8"?>
<svg version="1.1" xmlns="http://www.w3.org/2000/svg" width="500" height="280">
<path d="M0 0 C1.24842997 -0.00260775 2.49685993 -0.00521549 3.78312111 -0.00790226 C5.18651977 -0.00573974 6.58991828 -0.00348306 7.99331665 -0.0011425 C9.47014594 -0.00229334 10.94697494 -0.00388061 12.42380333 -0.00586975 C16.50138449 -0.01006818 20.57894243 -0.00797008 24.6565237 -0.00488353 C29.04647929 -0.00263172 33.43643072 -0.00610794 37.8263855 -0.00886345 C46.43395559 -0.01332251 55.04151699 -0.01234408 63.64908743 -0.00945081 C70.64133367 -0.0071973 77.63357747 -0.00688402 84.62582397 -0.00797462 C85.61897909 -0.00812786 86.6121342 -0.00828109 87.63538492 -0.00843897 C89.65262365 -0.00875868 91.66986239 -0.00908289 93.68710113 -0.00941156 C112.62646648 -0.01226675 131.565827 -0.00897872 150.50519156 -0.00361119 C166.77483594 0.00085688 183.04447318 0.00008096 199.31411743 -0.00452995 C218.18324972 -0.00987503 237.05237776 -0.01199205 255.9215107 -0.00891769 C257.93155034 -0.00859912 259.94158999 -0.00828475 261.95162964 -0.00797462 C263.4353033 -0.00774321 263.4353033 -0.00774321 264.94895017 -0.00750712 C271.93710836 -0.00664177 278.92526386 -0.00810524 285.91342163 -0.01045418 C294.42345915 -0.01325164 302.93348743 -0.01251506 311.44352388 -0.00717343 C315.78988179 -0.00453569 320.13622428 -0.00353258 324.48258209 -0.00682259 C328.45484651 -0.00978406 332.4270811 -0.00819525 336.39934278 -0.00284503 C337.84279324 -0.0017202 339.28624618 -0.00231347 340.72969508 -0.00472082 C342.67894625 -0.00772446 344.62820439 -0.00407163 346.57745361 0 C348.20734946 0.00024353 348.20734946 0.00024353 349.8701725 0.00049198 C352.28872681 0.12584114 352.28872681 0.12584114 353.28872681 1.12584114 C353.38709722 2.81911171 353.41504696 4.51650769 353.41571045 6.21263313 C353.41853027 7.31481682 353.4213501 8.4170005 353.42425537 9.55258369 C353.42121902 11.38225433 353.42121902 11.38225433 353.41812134 13.24888802 C353.42074982 15.16327423 353.42074982 15.16327423 353.4234314 17.11633492 C353.4280053 20.62657106 353.42621635 24.13677794 353.42305231 27.64701462 C353.42052848 31.31276849 353.42286631 34.97851979 353.42443848 38.64427376 C353.42626011 44.80138285 353.42385404 50.95847996 353.4190979 57.11558723 C353.41365529 64.24389719 353.41541795 71.37217854 353.42092431 78.5004878 C353.42545562 84.61002965 353.42610589 90.71956287 353.42348564 96.82910585 C353.42192297 100.48274549 353.42172883 104.13637167 353.42502213 107.79001045 C353.42843496 111.86095575 353.4237108 115.93185139 353.41812134 120.00279427 C353.42014557 121.22257469 353.4221698 122.44235512 353.42425537 123.69909859 C353.42002563 125.35237411 353.42002563 125.35237411 353.41571045 127.03904915 C353.41533342 128.00286758 353.4149564 128.96668602 353.41456795 129.95971107 C353.28872681 132.12584114 353.28872681 132.12584114 352.28872681 133.12584114 C350.60688733 133.35871122 348.91748521 133.5384828 347.22622681 133.68834114 C344.78216431 133.90490364 344.78216431 133.90490364 342.28872681 134.12584114 C346.57872681 134.45584114 350.86872681 134.78584114 355.28872681 135.12584114 C355.27318253 133.63579567 355.25763824 132.1457502 355.24162292 130.61055183 C355.09976678 116.57336038 354.99438832 102.53626211 354.9260416 88.49854279 C354.88996785 81.28140511 354.84080012 74.06480299 354.76065063 66.84800911 C354.69081381 60.55677797 354.64570396 54.26593472 354.63010734 47.97432673 C354.62099163 44.6435758 354.59593269 41.31419128 354.54861641 37.98373222 C354.49785011 34.26268983 354.4908015 30.54395105 354.49404907 26.82261848 C354.45629868 25.17184303 354.45629868 25.17184303 354.41778564 23.48771858 C354.48646855 16.22199429 354.48646855 16.22199429 356.7884655 13.0766964 C359.77810648 10.37236546 361.37300163 9.16175193 365.47622681 9.00084114 C369.74622278 10.26083995 373.94785005 11.65784857 378.12857056 13.18834114 C386.64165885 15.71385559 395.60690683 15.40094144 404.41372681 15.62584114 C449.56988628 16.79744858 449.56988628 16.79744858 465.35122681 32.48912239 C470.50188027 39.49858023 471.90027977 46.11091796 472.03872681 54.68834114 C472.08319946 56.05829231 472.08319946 56.05829231 472.12857056 57.45591927 C472.1984153 59.67931037 472.25152425 61.90170582 472.28872681 64.12584114 C470.30872681 65.11584114 470.30872681 65.11584114 468.28872681 66.12584114 C468.36970587 70.52242292 468.4825448 74.91762824 468.60122681 79.31334114 C468.6237854 80.55922005 468.64634399 81.80509895 468.66958618 83.08873177 C468.72276001 84.89180794 468.72276001 84.89180794 468.77700806 86.73130989 C468.80319214 87.83627815 468.82937622 88.94124641 468.85635376 90.07969856 C469.33634754 93.46133739 470.47739962 95.27294963 472.28872681 98.12584114 C472.79702759 100.35142708 472.79702759 100.35142708 472.98403931 102.61021614 C473.05969116 103.45551888 473.13534302 104.30082161 473.21328735 105.17173958 C473.27943237 106.06409309 473.34557739 106.95644661 473.41372681 107.87584114 C473.49082886 108.79655403 473.56793091 109.71726692 473.64736938 110.6658802 C473.87727033 113.48489786 474.08615816 116.30473841 474.28872681 119.12584114 C474.35334106 119.99209114 474.41795532 120.85834114 474.48452759 121.75084114 C474.65843815 124.12529998 474.82124095 126.50007781 474.97622681 128.87584114 C475.02472778 129.59610481 475.07322876 130.31636848 475.12319946 131.05845833 C475.22052337 132.74568223 475.26084942 134.43604255 475.28872681 136.12584114 C470.81589261 140.59867534 453.25431954 138.52954137 446.5506897 138.64073372 C445.08573306 138.67244274 443.62103574 138.72027227 442.15713501 138.78428841 C430.09734558 139.29996323 423.36296736 136.74529613 413.28872681 130.12584114 C406.20286389 126.89053065 397.77381104 127.81328528 390.47232056 129.95005989 C385.7586544 131.72734385 382.09888149 133.77752339 378.28872681 137.12584114 C375.52307298 138.04772575 373.90588979 138.24369336 371.05825806 138.22349739 C370.25581665 138.22027473 369.45337524 138.21705208 368.62661743 138.21373177 C367.79323853 138.20535286 366.95985962 138.19697395 366.10122681 138.18834114 C365.25624634 138.18382942 364.41126587 138.1793177 363.54067993 138.17466927 C361.45666526 138.16289517 359.37268704 138.14496004 357.28872681 138.12584114 C357.28872681 143.07584114 357.28872681 148.02584114 357.28872681 153.12584114 C353.7388391 154.01331307 351.14691903 154.23129581 347.53872681 154.18834114 C346.55388306 154.1793177 345.56903931 154.17029427 344.55435181 154.16099739 C343.80669556 154.14939583 343.05903931 154.13779427 342.28872681 154.12584114 C342.28872681 156.43584114 342.28872681 158.74584114 342.28872681 161.12584114 C342.97837524 161.11423958 343.66802368 161.10263802 344.37857056 161.09068489 C350.44645332 161.0324199 356.27230077 161.33680166 362.28872681 162.12584114 C363.45538588 166.2461847 363.42874363 169.85532809 363.28872681 174.12584114 C362.28872681 175.12584114 362.28872681 175.12584114 359.37016964 175.24888897 C357.391541 175.24750628 357.391541 175.24750628 355.37294006 175.24609566 C354.27522462 175.24737729 354.27522462 175.24737729 353.1553331 175.24868482 C350.68471801 175.2503418 348.2141697 175.24481473 345.74356079 175.23936653 C343.97988893 175.23908468 342.21621696 175.23924235 340.45254517 175.23980904 C335.64902838 175.24009709 330.84553634 175.23419906 326.04202533 175.22723508 C321.02782995 175.22100288 316.01363407 175.22039785 310.99943542 175.21920967 C301.4973592 175.21609596 291.99529442 175.20788203 282.49322325 175.19786018 C271.67841342 175.18670028 260.86360306 175.18118891 250.04878891 175.17616475 C227.79542847 175.16569945 205.54207836 175.14809924 183.28872681 175.12584114 C182.29983869 170.13195616 182.40320493 166.93392192 184.28872681 162.12584114 C185.27872681 161.79584114 186.26872681 161.46584114 187.28872681 161.12584114 C187.28872681 158.81584114 187.28872681 156.50584114 187.28872681 154.12584114 C186.19560181 154.02271614 185.10247681 153.91959114 183.97622681 153.81334114 C180.28872681 153.12584114 180.28872681 153.12584114 178.47622681 151.93834114 C176.86442201 149.47821804 176.10120405 146.93826237 175.28872681 144.12584114 C174.95872681 144.12584114 174.62872681 144.12584114 174.28872681 144.12584114 C173.95872681 146.76584114 173.62872681 149.40584114 173.28872681 152.12584114 C169.80012435 150.86606803 167.20045591 149.4006295 164.28872681 147.12584114 C156.90608929 142.13062372 148.58407863 141.55717568 139.91372681 142.75084114 C133.76636801 144.01432991 129.54304174 146.15331558 124.78872681 150.31334114 C121.50514576 152.6939374 119.33446385 153.12584114 115.28872681 153.12584114 C112.35122681 151.50084114 112.35122681 151.50084114 109.28872681 149.12584114 C101.29439987 143.62155046 94.06940419 141.19156748 84.28872681 142.12584114 C76.96426089 143.52514209 70.2821945 146.20139067 65.65591431 152.26646614 C62.1071549 155.05394053 58.60150882 154.58451021 54.28872681 154.43834114 C53.36624146 154.42287239 52.4437561 154.40740364 51.49331665 154.39146614 C48.09089249 154.32623353 44.69030478 154.22593898 41.28872681 154.12584114 C38.960577 154.06558935 36.63237463 154.00765712 34.3041687 153.94961739 C24.63134881 153.70721876 14.95990336 153.42621801 5.28872681 153.12584114 C4.19888306 151.32505989 4.19888306 151.32505989 3.28872681 149.12584114 C5.98998828 143.13608745 10.20188394 138.23439472 14.28872681 133.12584114 C7.68872681 133.12584114 1.08872681 133.12584114 -5.71127319 133.12584114 C-7.66153699 129.22531355 -7.95552483 127.9392689 -7.92054749 123.7921772 C-7.91632782 122.71111198 -7.91210815 121.63004677 -7.90776062 120.516222 C-7.89279037 119.33527962 -7.87782013 118.15433723 -7.86239624 116.93760872 C-7.85454102 115.69017387 -7.84668579 114.44273903 -7.83859253 113.15750313 C-7.81491407 109.74027473 -7.78216145 106.32336677 -7.74506354 102.90627313 C-7.70813538 99.33268108 -7.68193683 95.75900921 -7.65434265 92.18533516 C-7.60642519 86.18731801 -7.55066088 80.18941441 -7.48983765 74.19151497 C-7.41949299 67.24895828 -7.35971465 60.30637496 -7.30597848 53.36367112 C-7.24872532 45.97928023 -7.18392256 38.59496983 -7.11682153 31.2106626 C-7.09795395 29.07857852 -7.08049199 26.94648671 -7.0633297 24.81438828 C-7.03097627 20.85148863 -6.99016439 16.88870147 -6.94833374 12.92588997 C-6.93943619 11.73887489 -6.93053864 10.55185982 -6.92137146 9.32887459 C-6.90235275 7.71996597 -6.90235275 7.71996597 -6.88294983 6.07855415 C-6.87389964 5.14075521 -6.86484945 4.20295626 -6.85552502 3.23673916 C-6.56131378 -1.06857841 -3.68584358 0.00055071 0 0 Z M390.28872681 62.12584114 C389.09570539 65.7049054 389.2684721 68.36273706 389.47622681 72.12584114 C389.53165649 73.36334114 389.58708618 74.60084114 389.64419556 75.87584114 C390.02284745 79.0729421 390.02284745 79.0729421 391.73013306 80.95787239 C395.68885354 82.76498296 399.74993928 83.23368965 404.03872681 83.81334114 C404.92689087 83.94289192 405.81505493 84.0724427 406.73013306 84.20591927 C408.91505004 84.52308463 411.10092822 84.82932515 413.28872681 85.12584114 C415.36289348 82.01459114 415.61616775 80.83814434 415.92153931 77.23912239 C416.00532837 76.30132942 416.08911743 75.36353645 416.17544556 74.39732552 C416.29339478 72.93262825 416.29339478 72.93262825 416.41372681 71.43834114 C416.50009399 70.45027473 416.58646118 69.46220833 416.67544556 68.44420052 C416.88752404 66.00529799 417.09163882 63.56599326 417.28872681 61.12584114 C412.83126565 59.64002076 408.45741239 59.9414661 403.78872681 59.93834114 C402.34433228 59.919972 402.34433228 59.919972 400.87075806 59.90123177 C399.94650024 59.89929817 399.02224243 59.89736458 398.06997681 59.89537239 C397.22499634 59.8912635 396.38001587 59.88715462 395.50942993 59.88292122 C393.00115807 59.98465706 393.00115807 59.98465706 390.28872681 62.12584114 Z M420.28872681 60.12584114 C420.28872681 69.36584114 420.28872681 78.60584114 420.28872681 88.12584114 C440.15667905 91.88164676 440.15667905 91.88164676 460.28872681 93.12584114 C460.31346131 89.05073676 460.33160318 84.9756615 460.34365845 80.90049934 C460.34868457 79.51442389 460.35550646 78.12835373 460.36416626 76.74229622 C460.37630699 74.74907399 460.38143702 72.75581295 460.38638306 70.76255989 C460.39161987 69.56332893 460.39685669 68.36409798 460.4022522 67.12852669 C460.42718298 64.07427663 460.42718298 64.07427663 459.28872681 61.12584114 C455.5631833 59.49810289 451.23876072 60.00049237 447.24185181 60.02818489 C446.08504913 60.03030731 446.08504913 60.03030731 444.90487671 60.03247261 C442.44945342 60.0380558 439.99412239 60.05060519 437.53872681 60.06334114 C435.87075938 60.06835831 434.20279051 60.07292084 432.53482056 60.07701302 C428.45272545 60.08716748 424.37082901 60.10674607 420.28872681 60.12584114 Z M15.28872681 133.12584114 C15.28872681 133.78584114 15.28872681 134.44584114 15.28872681 135.12584114 C16.49966538 135.13218905 16.49966538 135.13218905 17.73506737 135.1386652 C37.35537075 135.24185625 56.97563715 135.35047651 76.59587669 135.4651804 C86.08397553 135.52051806 95.57207813 135.57400094 105.06021118 135.62315559 C113.32762294 135.66599079 121.59500694 135.71226708 129.86237586 135.76271969 C134.24207733 135.789326 138.62177328 135.8141792 143.00150681 135.83491516 C147.12019947 135.8544695 151.23883928 135.87860964 155.35748482 135.90633202 C156.87243886 135.91570884 158.38740452 135.92338184 159.90237617 135.92926025 C161.96427267 135.93751076 164.02604055 135.95178432 166.08789062 135.96762276 C167.82178323 135.97730158 167.82178323 135.97730158 169.59070396 135.98717594 C172.28872681 136.12584114 172.28872681 136.12584114 174.28872681 137.12584114 C176.5052458 136.87797848 178.71373832 136.55500589 180.91372681 136.18834114 C182.10224243 135.9936927 183.29075806 135.79904427 184.51528931 135.59849739 C185.43052368 135.44252083 186.34575806 135.28654427 187.28872681 135.12584114 C187.28872681 134.79584114 187.28872681 134.46584114 187.28872681 134.12584114 C182.8907557 133.2801145 178.74093552 133.00220104 174.26519775 133.00558662 C173.24070339 133.00430499 173.24070339 133.00430499 172.19551218 133.00299746 C169.92007868 133.00135789 167.64471985 133.00683895 165.36929321 133.01231575 C163.73296104 133.01259798 162.09662873 133.01243919 160.46029663 133.01187325 C156.02689789 133.01158666 151.59352628 133.01746105 147.16013384 133.0244472 C142.5236681 133.03070375 137.88720173 133.03128636 133.25073242 133.03247261 C124.47484955 133.03557914 115.69897916 133.04378339 106.92310178 133.0538221 C96.93040961 133.0650043 86.93771683 133.070499 76.94501996 133.07551754 C56.39291528 133.08596656 35.84082183 133.10355287 15.28872681 133.12584114 Z M196.28872681 133.12584114 C195.95872681 133.78584114 195.62872681 134.44584114 195.28872681 135.12584114 C217.06872681 135.12584114 238.84872681 135.12584114 261.28872681 135.12584114 C259.44667196 132.85723122 259.44667196 132.85723122 256.65649414 132.88533211 C254.98437363 132.89199394 254.98437363 132.89199394 253.2784729 132.89879036 C252.01731659 132.89894142 250.75616028 132.89909248 249.45678711 132.89924812 C248.07524459 132.90946217 246.69370366 132.91989417 245.31216431 132.93052864 C243.90254924 132.93425826 242.49293158 132.93710547 241.08331299 132.93910408 C237.37113299 132.94674459 233.6591092 132.96639653 229.94699097 132.98851204 C226.15988275 133.00896155 222.37274931 133.01810387 218.58560181 133.02818489 C211.15323888 133.04964214 203.72100472 133.08378298 196.28872681 133.12584114 Z M269.28872681 133.12584114 C268.95872681 133.78584114 268.62872681 134.44584114 268.28872681 135.12584114 C288.08872681 135.12584114 307.88872681 135.12584114 328.28872681 135.12584114 C327.79372681 134.13584114 327.79372681 134.13584114 327.28872681 133.12584114 C308.14872681 133.12584114 289.00872681 133.12584114 269.28872681 133.12584114 Z M173.28872681 138.12584114 C174.28872681 140.12584114 174.28872681 140.12584114 174.28872681 140.12584114 Z M195.28872681 153.12584114 C195.28872681 155.76584114 195.28872681 158.40584114 195.28872681 161.12584114 C197.92872681 161.12584114 200.56872681 161.12584114 203.28872681 161.12584114 C203.4555379 158.2093194 203.4555379 158.2093194 203.28872681 155.12584114 C201.39117536 152.77610296 201.39117536 152.77610296 198.16372681 153.00084114 C197.21497681 153.04209114 196.26622681 153.08334114 195.28872681 153.12584114 Z M232.28872681 154.12584114 C232.24779743 156.45881547 232.24630957 158.79289339 232.28872681 161.12584114 C234.59872681 161.12584114 236.90872681 161.12584114 239.28872681 161.12584114 C239.97655041 158.77216401 239.97655041 158.77216401 240.28872681 156.12584114 C239.62872681 155.13584114 238.96872681 154.14584114 238.28872681 153.12584114 C234.99960536 152.63442984 234.99960536 152.63442984 232.28872681 154.12584114 Z M284.28872681 155.12584114 C284.03851111 158.20949985 284.03851111 158.20949985 284.28872681 161.12584114 C286.92872681 161.12584114 289.56872681 161.12584114 292.28872681 161.12584114 C292.28872681 158.48584114 292.28872681 155.84584114 292.28872681 153.12584114 C288.5727349 152.92497671 287.51664235 152.97389744 284.28872681 155.12584114 Z M305.28872681 154.12584114 C305.28872681 156.43584114 305.28872681 158.74584114 305.28872681 161.12584114 C307.89455052 162.05649247 308.93070904 162.27501521 311.53872681 161.18834114 C312.11622681 160.83771614 312.69372681 160.48709114 313.28872681 160.12584114 C313.28872681 158.14584114 313.28872681 156.16584114 313.28872681 154.12584114 C310.00176448 153.32630976 308.57849488 153.02925178 305.28872681 154.12584114 Z M327.28872681 153.12584114 C328.28872681 155.12584114 328.28872681 155.12584114 328.28872681 155.12584114 Z M216.28872681 154.12584114 C216.28872681 156.43584114 216.28872681 158.74584114 216.28872681 161.12584114 C217.27872681 161.12584114 218.26872681 161.12584114 219.28872681 161.12584114 C219.28872681 158.81584114 219.28872681 156.50584114 219.28872681 154.12584114 C218.29872681 154.12584114 217.30872681 154.12584114 216.28872681 154.12584114 Z M252.28872681 155.12584114 C252.24791898 157.12542478 252.24618324 159.12629368 252.28872681 161.12584114 C255.25872681 161.12584114 258.22872681 161.12584114 261.28872681 161.12584114 C261.28872681 158.81584114 261.28872681 156.50584114 261.28872681 154.12584114 C256.48901939 153.59750398 256.48901939 153.59750398 252.28872681 155.12584114 Z M270.28872681 153.12584114 C269.29872681 153.62084114 269.29872681 153.62084114 268.28872681 154.12584114 C268.28872681 156.43584114 268.28872681 158.74584114 268.28872681 161.12584114 C269.27872681 161.12584114 270.26872681 161.12584114 271.28872681 161.12584114 C271.97655041 158.77216401 271.97655041 158.77216401 272.28872681 156.12584114 C271.62872681 155.13584114 270.96872681 154.14584114 270.28872681 153.12584114 Z M327.28872681 156.12584114 C326.95872681 157.77584114 326.62872681 159.42584114 326.28872681 161.12584114 C327.27872681 160.79584114 328.26872681 160.46584114 329.28872681 160.12584114 C329.28872681 158.80584114 329.28872681 157.48584114 329.28872681 156.12584114 C328.62872681 156.12584114 327.96872681 156.12584114 327.28872681 156.12584114 Z " fill="#000000" transform="translate(15.711273193359375,38.87415885925293)"/>
<path d="M0 0 C0.66 0.66 1.32 1.32 2 2 C3.90470695 2.92098854 5.82354005 3.81292552 7.75 4.6875 C16.81378623 9.17602572 20.42345629 14.72202485 24 24 C24.52787109 22.93072266 24.52787109 22.93072266 25.06640625 21.83984375 C29.47522358 13.28696835 34.122486 6.31949186 43.34375 2.65625 C50.51739984 0.88393651 59.29076425 0.69972105 66.12890625 3.83203125 C74.68517414 9.17300014 79.44681834 15.4725389 82.3125 25 C84.08883137 33.30031202 81.40483865 40.02282664 77 47 C72.07309766 53.29348839 65.84282844 57.34806566 58 59 C49.24741058 59.767771 40.56868949 57.00144098 33.5625 51.62890625 C30.89206432 48.84497705 29.10485216 45.5751682 27.26171875 42.20703125 C26.06564426 39.89035523 26.06564426 39.89035523 24 38 C23.72027344 38.56847656 23.44054687 39.13695312 23.15234375 39.72265625 C18.65253126 48.38949767 13.25044259 54.45240758 4 58 C-4.37279754 60.41772642 -11.2797554 58.62378828 -19 55 C-26.1971924 50.87686266 -29.9792799 45.52256404 -33.3125 38.0625 C-35.34393402 29.01338482 -33.60595206 20.8309012 -28.71484375 12.921875 C-22.34423637 4.75897975 -10.35357116 -1.03535712 0 0 Z M-17.8125 17.375 C-21.97016108 22.36419329 -22.44861568 26.95647201 -22.3125 33.27734375 C-21.8246398 37.52782578 -20.63370285 39.60390948 -18 43 C-13.17388961 46.74269785 -9.35433024 48.36460463 -3.19140625 48.28515625 C2.39545331 47.5581674 7.53809219 44.39395991 11 40 C13.66654648 35.20021633 13.68875666 30.13702615 12.53515625 24.8828125 C10.56169567 18.69385329 7.28338263 15.76797526 1.5625 12.6875 C-5.94606915 10.67300584 -11.93284706 12.40995974 -17.8125 17.375 Z M39.0625 18 C35.18744893 23.63643792 35.37432687 29.35552759 36 36 C38.41025561 41.09861763 42.63942681 45.59072737 47.9375 47.8125 C48.9584375 47.9053125 48.9584375 47.9053125 50 48 C51.0725 48.103125 52.145 48.20625 53.25 48.3125 C59.09867787 47.82511018 63.28296251 45.76222269 67.375 41.5625 C70.8718252 36.04827565 71.70949388 31.46304583 71 25 C69.38452192 19.81346511 67.65481012 16.85636076 63 14 C54.54696395 10.92616871 45.33088898 10.71707408 39.0625 18 Z " fill="#010101" transform="translate(109,181)"/>
<path d="M0 0 C0.53968918 0.3966687 1.07937836 0.7933374 1.63542175 1.20202637 C7.31025672 5.2927669 11.97135246 5.73504101 18.84375 5.70703125 C20.35829773 5.72971321 20.35829773 5.72971321 21.90344238 5.75285339 C25.10252513 5.7955605 28.30066119 5.80455223 31.5 5.8125 C33.67971237 5.83565742 35.85940245 5.86102533 38.0390625 5.88867188 C43.35938415 5.95135596 48.67933841 5.98642493 54 6 C55.15594324 11.20290282 55.22078347 16.18989576 55.25 21.5 C55.270625 22.43714844 55.29125 23.37429687 55.3125 24.33984375 C55.34110561 29.38158302 55.3258989 32.9241435 52 37 C48.73680886 40.26319114 45.56965897 40.91839895 41 41 C38.5625 39.1875 38.5625 39.1875 37 37 C37 36.34 37 35.68 37 35 C31.39 35 25.78 35 20 35 C19.67 36.65 19.34 38.3 19 40 C17.515 39.505 17.515 39.505 16 39 C15.85304688 38.02160156 15.70609375 37.04320312 15.5546875 36.03515625 C13.68204672 24.67456558 10.23560684 16.87485281 1.04296875 9.44140625 C-6.61966706 4.03507238 -14.84354019 4.27632809 -24 5 C-27.00834771 5.5721105 -29.36075308 6.46092696 -32 8 C-32.67417969 8.39058594 -33.34835937 8.78117188 -34.04296875 9.18359375 C-40.89880784 13.72414009 -45.22145188 20.40120171 -47.375 28.3125 C-48.09220009 31.83907814 -48.09220009 31.83907814 -47.9375 34.8125 C-48 37 -48 37 -49.375 38.8125 C-51 40 -51 40 -53 40 C-55.33380629 29.26449107 -51.45183091 20.22115898 -46 11 C-34.99372815 -4.24119539 -16.68434488 -8.330238 0 0 Z " fill="#010101" transform="translate(434,174)"/>
<path d="M0 0 C8.43821462 4.72299357 13.70685104 11.3401859 17.19140625 20.2265625 C17.62453125 21.2784375 18.05765625 22.3303125 18.50390625 23.4140625 C19.33420801 26.81075153 19.45435302 29.74251774 19.19140625 33.2265625 C18.53140625 34.2165625 17.87140625 35.2065625 17.19140625 36.2265625 C16.40910127 37.84607105 15.63935446 39.47167675 14.87890625 41.1015625 C11.16107624 48.56973998 5.16214398 54.25611813 -2.63671875 57.34765625 C-10.52742977 59.53412174 -18.61111202 59.17523903 -25.88671875 55.3515625 C-26.5209375 54.9803125 -27.15515625 54.6090625 -27.80859375 54.2265625 C-29.38640625 53.3603125 -29.38640625 53.3603125 -30.99609375 52.4765625 C-39.32738887 45.8115264 -42.29243703 37.46276966 -43.49609375 27.1015625 C-43.59921875 25.8228125 -43.70234375 24.5440625 -43.80859375 23.2265625 C-43.14859375 23.2265625 -42.48859375 23.2265625 -41.80859375 23.2265625 C-41.73382813 22.6696875 -41.6590625 22.1128125 -41.58203125 21.5390625 C-40.31564242 14.18904105 -37.46753644 9.13181453 -31.58984375 4.46484375 C-22.01005062 -2.12924719 -11.21332291 -4.41924697 0 0 Z M-25.12109375 13.2890625 C-29.6407989 17.57744416 -31.64052433 22.10886161 -31.89453125 28.33203125 C-31.45146001 34.3601321 -29.25866336 39.00235101 -24.859375 42.99609375 C-20.33772648 46.36562938 -16.68494653 48.06465001 -11.00390625 47.609375 C-4.3734234 46.45316981 -0.15949986 44.47185276 4 39.04296875 C7.17523778 34.20203247 7.54412045 30.05618837 6.7265625 24.46484375 C5.22076351 18.16686693 1.57492083 13.78171364 -3.80859375 10.2265625 C-11.84480411 7.09557145 -18.36433868 7.98722914 -25.12109375 13.2890625 Z " fill="#010101" transform="translate(429.80859375,181.7734375)"/>
<path d="M0 0 C2.60018816 3.90028225 2.15085514 7.47434569 2 12 C0.68 12.33 -0.64 12.66 -2 13 C-2.05391993 11.20866022 -2.09275571 9.41686101 -2.125 7.625 C-2.14820313 6.62726563 -2.17140625 5.62953125 -2.1953125 4.6015625 C-2 2 -2 2 0 0 Z " fill="#060608" transform="translate(434,99)"/>
<path d="" fill="#000000" transform="translate(0,0)"/>
<path d="" fill="#000000" transform="translate(0,0)"/>
<path d="" fill="#000000" transform="translate(0,0)"/>
</svg>
