<?xml version="1.0" encoding="UTF-8" standalone="no"?>
<!DOCTYPE svg PUBLIC "-//W3C//DTD SVG 1.1//EN" "http://www.w3.org/Graphics/SVG/1.1/DTD/svg11.dtd">
<svg xmlns="http://www.w3.org/2000/svg" version="1.1" viewBox="0.00 0.00 1293.00 1621.00">
<g stroke-width="2.00" fill="none" stroke-linecap="butt">
<path stroke="#6d4218" vector-effect="non-scaling-stroke" d="
  M 875.02 149.52
  Q 836.78 145.50 798.69 151.02
  C 777.14 154.14 755.56 157.03 734.01 160.09
  C 731.26 160.48 729.63 161.23 728.26 163.50
  C 726.00 167.21 722.44 172.98 722.73 177.30
  Q 722.78 177.91 723.38 177.97
  Q 812.70 187.24 893.30 226.52
  Q 893.88 226.80 893.90 226.16
  C 894.37 209.43 894.24 191.45 891.09 175.15
  Q 884.99 143.60 869.33 115.58
  C 854.86 89.69 832.88 60.79 801.14 56.83
  C 794.37 55.98 788.30 56.70 783.54 61.30
  Q 769.79 74.59 761.37 93.59
  Q 752.21 114.26 743.28 134.95
  A 0.62 0.61 -80.9 0 0 743.90 135.81
  Q 791.43 131.22 838.75 138.18
  Q 857.70 140.97 875.16 149.02
  A 0.26 0.26 0.0 0 1 875.02 149.52"
/>
<path stroke="#6d4218" vector-effect="non-scaling-stroke" d="
  M 600.50 236.07
  Q 575.07 223.08 550.55 204.96
  Q 526.50 187.17 450.33 131.71
  C 418.16 108.29 377.87 84.61 336.33 88.61
  C 300.70 92.05 278.23 119.77 263.85 149.78
  A 0.25 0.25 0.0 0 0 264.24 150.07
  C 279.40 135.92 298.91 123.43 320.01 121.47
  Q 328.51 120.68 339.91 122.57
  Q 376.93 128.70 406.73 151.24
  C 441.52 177.56 473.67 212.55 486.43 255.31
  C 492.85 276.83 498.73 300.82 502.72 324.68
  C 506.06 344.66 504.14 364.33 496.01 383.00
  C 491.87 392.50 483.67 404.46 474.58 409.07
  C 455.96 418.51 437.40 416.19 418.26 410.12
  A 0.38 0.38 0.0 0 0 417.88 410.75
  C 431.47 424.12 446.32 432.90 466.01 432.95
  C 474.14 432.97 478.32 433.42 485.72 429.62
  C 489.75 427.55 493.31 427.28 497.55 426.79
  A 0.43 0.43 0.0 0 1 497.94 427.49
  Q 492.99 433.83 486.56 439.06
  Q 481.03 443.55 479.78 450.00
  Q 477.16 463.42 476.94 479.51
  C 476.79 489.96 476.31 500.81 477.55 510.79
  C 483.27 556.85 507.70 605.63 538.66 639.33
  Q 563.92 666.81 598.48 690.27
  C 604.03 694.04 616.43 691.02 622.95 690.28
  C 631.91 689.26 640.37 690.60 648.98 692.26
  A 0.56 0.56 0.0 0 0 649.55 691.41
  Q 637.72 673.14 631.48 652.40
  C 628.14 641.30 625.26 629.57 626.30 619.07
  Q 627.26 609.41 628.69 600.13
  A 0.65 0.64 1.7 0 0 627.99 599.39
  L 603.76 601.82
  A 0.68 0.68 0.0 0 1 603.16 600.71
  C 607.14 595.82 620.76 593.71 626.66 593.31
  Q 632.83 592.89 643.23 594.68
  C 653.27 596.41 663.10 598.08 673.16 600.59
  C 680.93 602.53 689.56 605.64 697.58 605.59
  Q 709.63 605.52 721.63 604.49
  C 735.32 603.32 739.25 597.07 745.03 585.76
  Q 745.27 585.28 744.74 585.23
  C 693.22 579.70 641.37 584.70 589.94 587.90
  A 0.64 0.64 0.0 0 1 589.67 586.66
  Q 596.75 583.86 604.42 582.58
  Q 669.76 571.60 735.75 577.24
  C 738.64 577.49 743.17 578.40 746.77 578.24
  A 2.38 2.38 0.0 0 0 749.03 575.88
  C 749.06 571.68 748.62 559.37 743.67 557.44
  Q 737.33 554.95 733.19 553.57
  Q 678.38 535.29 621.19 526.99
  Q 577.33 520.63 533.47 514.26
  C 527.55 513.40 520.78 514.04 515.51 510.82
  A 0.49 0.49 0.0 0 1 515.77 509.91
  C 565.70 510.77 615.31 516.27 663.52 527.14
  Q 703.77 536.21 742.94 547.79
  Q 743.93 548.08 743.62 547.09
  C 735.12 519.97 711.03 508.14 687.69 494.42
  A 0.58 0.58 0.0 0 1 687.59 493.50
  L 689.29 491.92
  Q 689.75 491.49 690.31 491.78
  C 710.15 501.93 724.69 510.71 739.28 524.15
  A 0.34 0.34 0.0 0 0 739.82 523.77
  Q 723.63 485.21 707.78 446.71
  C 701.12 430.52 695.94 413.47 690.11 396.87
  C 682.28 374.59 677.61 351.45 682.40 327.83
  C 683.07 324.54 684.66 320.43 686.77 318.28
  C 692.97 311.92 698.28 306.46 701.19 299.19
  Q 702.92 294.86 704.68 289.24
  C 707.94 278.77 707.01 267.65 709.09 256.92
  C 710.90 247.61 707.75 241.54 698.21 239.56
  Q 694.12 238.71 692.00 238.97
  Q 683.15 240.07 674.25 239.46
  C 672.15 239.32 668.36 239.71 666.16 240.96
  C 653.24 248.33 650.35 262.42 651.29 276.25
  Q 652.58 295.44 653.37 314.74
  Q 653.39 315.40 652.82 315.07
  C 647.59 312.04 644.67 304.79 644.22 299.50
  Q 643.26 288.38 642.99 265.75
  C 642.82 252.07 648.39 231.37 664.48 228.68
  C 671.21 227.56 678.55 226.43 685.29 228.18
  Q 693.36 230.29 701.25 232.46
  A 0.44 0.44 0.0 0 0 701.79 231.92
  Q 698.95 221.48 695.01 211.86
  Q 693.87 209.08 693.97 206.47
  A 0.58 0.58 0.0 0 1 694.96 206.09
  C 702.64 213.80 707.39 222.66 710.63 234.09
  Q 711.13 235.87 712.29 237.44
  A 1.76 1.74 -6.4 0 0 713.04 238.03
  Q 724.46 242.50 732.38 251.89
  A 0.41 0.41 0.0 0 1 732.01 252.56
  C 725.58 251.60 720.87 246.11 716.02 246.32
  Q 715.41 246.35 715.54 246.95
  C 719.91 265.82 720.68 283.63 714.89 302.18
  A 0.58 0.57 -85.5 0 0 715.52 302.92
  C 720.12 302.27 729.49 300.58 732.73 296.98
  C 742.23 286.40 749.31 274.55 751.22 259.94
  C 753.89 239.47 751.54 223.75 747.97 201.39
  Q 747.88 200.83 748.39 201.07
  Q 750.90 202.26 751.84 204.00
  C 761.54 221.99 761.97 244.15 760.78 264.45
  Q 760.49 269.57 758.96 274.72
  C 754.79 288.81 750.29 299.27 739.83 308.43
  A 0.86 0.85 -44.8 0 0 739.82 309.71
  C 785.12 350.37 817.18 411.74 813.57 473.73
  Q 813.09 481.90 812.60 488.29
  C 811.57 501.84 807.58 515.19 803.73 528.05
  A 0.45 0.45 0.0 0 0 804.08 528.62
  Q 814.73 530.59 825.49 532.81
  C 834.85 534.73 843.68 539.49 852.47 543.17
  Q 852.95 543.37 853.42 543.14
  C 861.01 539.40 867.11 538.47 876.49 538.30
  C 886.53 538.13 900.45 538.81 909.30 532.28
  Q 909.74 531.95 909.64 531.42
  Q 901.19 488.73 890.82 446.48
  Q 885.88 426.36 885.48 413.50
  C 884.56 383.99 884.65 355.90 901.85 330.70
  Q 903.35 328.52 905.77 326.93
  C 915.37 320.65 923.67 314.69 928.08 307.33
  Q 937.28 291.98 941.24 274.49
  A 2.05 2.03 -60.5 0 0 940.74 272.66
  Q 933.82 265.27 923.93 262.10
  C 915.20 259.31 898.46 260.09 893.49 270.14
  C 891.69 273.77 891.71 281.89 886.76 283.22
  Q 886.20 283.37 886.04 282.81
  Q 884.02 275.59 887.21 268.46
  C 892.13 257.48 899.29 253.20 910.02 249.14
  A 0.37 0.36 -40.8 0 0 910.07 248.48
  Q 878.00 230.93 843.87 217.46
  C 772.83 189.43 696.83 180.13 620.89 186.90
  A 0.28 0.28 0.0 0 1 620.76 186.37
  C 657.93 170.58 693.84 159.81 734.97 150.84
  C 749.39 147.69 762.61 146.00 777.00 144.74
  Q 777.38 144.71 777.65 144.41
  Q 778.01 144.02 777.48 144.04
  C 763.19 144.73 748.90 145.39 734.60 145.81
  C 709.44 146.54 682.63 154.03 662.99 159.50
  Q 655.93 161.47 648.80 165.54
  C 640.00 170.57 633.12 174.24 624.85 177.03
  Q 621.22 178.26 624.28 175.94
  C 649.84 156.50 673.92 136.35 695.03 112.12
  A 0.20 0.20 0.0 0 0 694.76 111.82
  C 649.64 143.99 606.18 176.51 553.92 196.54
  A 0.36 0.36 0.0 0 0 553.82 197.16
  L 600.72 235.73
  A 0.20 0.20 0.0 0 1 600.50 236.07"
/>
<path stroke="#805761" vector-effect="non-scaling-stroke" d="
  M 392.32 374.51
  A 0.26 0.26 0.0 0 1 392.79 374.33
  C 396.54 379.68 400.19 385.31 404.76 389.61
  C 419.69 403.65 437.46 412.43 457.86 404.04
  C 465.82 400.76 479.81 393.71 482.71 385.24
  Q 493.17 354.72 488.81 322.66
  Q 486.45 305.28 479.94 279.77
  C 469.82 240.13 453.70 207.36 425.56 178.20
  Q 394.56 146.06 351.70 133.29
  C 337.85 129.17 315.47 127.67 301.71 134.64
  C 274.50 148.42 249.41 170.87 245.91 203.01
  Q 245.09 210.63 244.12 218.23
  C 238.70 260.72 241.58 303.87 251.85 345.43
  C 266.46 404.56 293.66 464.62 333.15 511.42
  Q 365.26 549.48 402.06 576.94
  C 429.62 597.51 461.32 607.45 495.50 609.02
  A 0.26 0.26 0.0 0 0 495.74 608.64
  C 470.10 560.85 447.46 496.02 470.88 441.25
  A 0.42 0.41 -78.3 0 0 470.50 440.67
  C 449.29 440.92 434.24 437.66 418.32 424.78
  C 403.15 412.51 394.48 393.74 392.32 374.51"
/>
<path stroke="#6d4218" vector-effect="non-scaling-stroke" d="
  M 930.45 324.65
  C 933.23 326.73 937.78 329.21 940.90 327.68
  Q 941.10 327.58 944.18 325.33
  Q 958.44 314.91 968.04 299.94
  A 0.89 0.89 0.0 0 0 968.05 298.97
  Q 961.16 288.11 950.26 281.30
  A 0.52 0.52 0.0 0 0 949.50 281.56
  Q 944.94 293.98 940.17 306.43
  C 937.97 312.17 933.76 317.61 930.19 323.27
  A 1.03 1.03 0.0 0 0 930.45 324.65"
/>
<path stroke="#6d4218" vector-effect="non-scaling-stroke" d="
  M 953.93 532.20
  C 965.69 537.30 970.64 548.17 975.29 558.01
  A 0.51 0.51 0.0 0 0 976.01 558.23
  L 998.81 544.81
  Q 999.41 544.46 998.91 543.98
  C 994.15 539.45 988.59 534.68 985.30 529.56
  Q 978.00 518.23 977.78 504.23
  Q 977.57 491.54 979.67 483.98
  C 993.07 435.59 1004.06 393.19 992.62 345.68
  C 989.78 333.90 982.91 321.93 977.36 311.13
  Q 977.11 310.63 976.67 310.98
  Q 965.67 319.87 954.35 328.33
  C 952.11 330.01 948.88 331.36 946.56 333.49
  A 1.24 1.23 -36.8 0 0 946.33 335.02
  C 971.35 377.92 975.72 432.11 966.85 480.77
  C 963.63 498.43 958.45 514.61 953.59 531.46
  Q 953.44 531.98 953.93 532.20"
/>
<path stroke="#808080" vector-effect="non-scaling-stroke" d="
  M 780.38 441.02
  A 2.50 2.47 67.1 0 1 782.16 441.75
  Q 796.13 455.75 800.66 475.11
  C 802.26 481.96 802.66 490.39 803.23 498.00
  Q 803.26 498.40 803.53 498.67
  Q 803.79 498.93 803.81 498.56
  Q 803.96 494.86 804.66 485.25
  C 806.01 466.53 804.72 444.13 800.22 424.51
  C 792.61 391.38 780.47 359.40 757.07 335.08
  C 745.08 322.62 721.17 307.25 703.13 315.29
  C 694.26 319.24 692.14 325.58 691.87 335.32
  C 690.95 368.50 697.62 400.17 709.06 428.94
  Q 723.94 466.36 746.45 521.51
  C 748.08 525.50 749.58 525.64 754.00 525.37
  Q 759.94 525.00 765.95 524.73
  Q 766.47 524.70 766.31 524.22
  Q 759.48 503.02 757.69 480.89
  C 756.46 465.61 759.93 441.21 780.38 441.02"
/>
<path stroke="#803656" vector-effect="non-scaling-stroke" d="
  M 939.62 498.49
  Q 938.61 502.27 939.04 506.03"
/>
<path stroke="#808080" vector-effect="non-scaling-stroke" d="
  M 939.04 506.03
  L 937.44 514.23"
/>
<path stroke="#805761" vector-effect="non-scaling-stroke" d="
  M 937.44 514.23
  Q 936.63 515.15 937.19 517.03"
/>
<path stroke="#808080" vector-effect="non-scaling-stroke" d="
  M 937.19 517.03
  L 934.84 526.85
  Q 934.69 527.49 935.35 527.54
  L 943.06 528.13
  A 2.17 2.16 15.4 0 0 945.16 526.94
  C 947.24 522.77 948.21 517.73 949.58 513.80
  Q 952.68 504.94 954.49 495.76"
/>
<path stroke="#803656" vector-effect="non-scaling-stroke" d="
  M 954.49 495.76
  Q 956.16 492.83 956.28 489.48"
/>
<path stroke="#808080" vector-effect="non-scaling-stroke" d="
  M 956.28 489.48
  L 957.51 485.26"
/>
<path stroke="#803656" vector-effect="non-scaling-stroke" d="
  M 957.51 485.26
  Q 958.62 482.84 958.44 480.74"
/>
<path stroke="#808080" vector-effect="non-scaling-stroke" d="
  M 958.44 480.74
  L 960.08 469.77"
/>
<path stroke="#805761" vector-effect="non-scaling-stroke" d="
  M 960.08 469.77
  Q 960.93 467.19 960.62 464.96"
/>
<path stroke="#808080" vector-effect="non-scaling-stroke" d="
  M 960.62 464.96
  C 964.33 438.45 963.04 412.90 956.77 386.96
  C 952.83 370.67 945.88 356.56 936.00 343.37
  Q 933.10 339.50 929.94 337.73
  C 923.27 333.99 912.10 331.38 907.22 339.75
  C 894.96 360.82 894.12 389.08 896.01 412.67
  Q 898.30 441.34 904.18 469.02
  Q 904.95 472.63 905.43 468.97
  C 906.56 460.42 910.14 451.13 916.91 444.65
  C 919.14 442.52 920.94 441.75 923.58 443.70
  C 928.31 447.19 932.21 451.10 934.46 456.77
  Q 942.37 476.74 939.62 498.49"
/>
<path stroke="#ffd7e0" vector-effect="non-scaling-stroke" d="
  M 960.62 464.96
  Q 959.71 467.19 960.08 469.77"
/>
<path stroke="#ffb5d5" vector-effect="non-scaling-stroke" d="
  M 958.44 480.74
  Q 957.32 482.96 957.51 485.26"
/>
<path stroke="#ffb5d5" vector-effect="non-scaling-stroke" d="
  M 956.28 489.48
  Q 954.41 492.62 954.49 495.76"
/>
<path stroke="#ffd7e0" vector-effect="non-scaling-stroke" d="
  M 937.19 517.03
  Q 937.75 515.98 937.44 514.23"
/>
<path stroke="#ffb5d5" vector-effect="non-scaling-stroke" d="
  M 939.04 506.03
  L 939.62 498.49"
/>
<path stroke="#7f7862" vector-effect="non-scaling-stroke" d="
  M 782.76 570.72
  A 0.38 0.38 0.0 0 1 782.48 571.37
  C 773.49 571.03 766.29 567.06 758.13 563.38
  A 0.37 0.37 0.0 0 0 757.61 563.72
  L 757.77 580.32
  Q 757.77 580.74 758.20 580.70
  C 765.34 579.87 774.55 580.43 779.22 586.50
  Q 779.59 586.97 778.99 587.00
  Q 769.25 587.48 759.50 587.60
  C 754.31 587.67 752.00 594.54 751.10 598.76
  C 749.95 604.16 754.52 609.25 758.67 612.09
  C 765.54 616.79 772.27 621.52 779.19 624.67
  C 804.98 636.40 837.70 635.30 861.46 619.09
  C 862.47 618.40 864.34 618.20 865.21 618.76
  C 877.21 626.58 893.13 627.84 907.18 625.83
  C 916.16 624.54 925.88 621.00 934.72 617.51
  C 946.94 612.68 955.84 599.41 961.19 587.41
  Q 968.40 571.23 961.45 555.08
  C 954.64 539.25 944.03 536.80 927.72 536.79
  C 922.04 536.79 915.22 540.07 909.76 541.72
  A 0.36 0.36 0.0 0 0 909.73 542.40
  C 926.61 549.05 936.19 561.24 924.05 578.35
  C 915.01 591.09 904.80 595.64 889.28 601.49
  Q 888.86 601.65 888.56 601.32
  Q 882.09 594.21 871.06 588.43
  C 862.33 583.84 836.77 573.14 837.65 561.31
  C 838.04 556.05 843.31 550.67 846.61 546.65
  Q 847.02 546.15 846.41 545.93
  C 813.59 533.97 779.25 532.38 744.84 529.61
  Q 743.81 529.52 744.29 530.43
  Q 749.79 540.89 754.56 551.69
  C 755.00 552.70 756.59 554.39 757.83 555.05
  C 766.79 559.78 775.41 563.38 782.76 570.72"
/>
<path stroke="#6d4218" vector-effect="non-scaling-stroke" d="
  M 975.26 570.94
  L 1033.21 572.88
  Q 1033.69 572.90 1033.60 572.42
  C 1030.91 558.96 1019.43 552.46 1007.00 548.34
  Q 1006.53 548.18 1006.08 548.37
  C 994.63 553.07 982.21 559.96 974.97 570.35
  A 0.38 0.37 -71.5 0 0 975.26 570.94"
/>
<path stroke="#808080" vector-effect="non-scaling-stroke" d="
  M 863.17 555.81
  C 869.83 564.44 900.60 560.84 910.25 559.55
  Q 910.84 559.47 910.44 559.03
  C 904.75 552.75 899.04 551.26 890.06 551.09
  Q 879.99 550.90 869.93 550.75
  C 867.95 550.72 860.27 552.04 863.17 555.81"
/>
<path stroke="#6d4218" vector-effect="non-scaling-stroke" d="
  M 1034.06 581.66
  L 973.29 578.14
  Q 972.74 578.11 972.59 578.63
  C 967.31 596.35 958.28 607.60 946.48 620.20
  A 4.57 4.57 0.0 0 0 945.26 623.04
  C 943.43 652.34 932.39 677.25 916.42 701.43
  A 0.23 0.23 0.0 0 0 916.72 701.76
  C 941.36 688.60 963.37 677.41 988.50 659.96
  C 1013.85 642.35 1034.81 615.28 1034.57 582.20
  Q 1034.57 581.69 1034.06 581.66"
/>
<path stroke="#7f7862" vector-effect="non-scaling-stroke" d="
  M 856.15 713.09
  C 854.83 716.34 853.39 718.86 850.19 720.94
  Q 845.29 724.14 842.99 729.44
  A 0.56 0.56 0.0 0 0 843.65 730.20
  Q 859.53 725.93 874.77 719.76
  C 912.80 704.37 927.22 668.33 934.47 630.94
  Q 934.56 630.46 934.08 630.55
  C 912.99 634.61 896.94 639.28 877.48 636.94
  Q 875.31 636.68 873.55 638.08
  C 850.80 656.15 836.61 680.33 821.08 704.33
  Q 816.48 711.44 798.57 735.09
  C 794.46 740.52 778.39 741.94 772.18 741.11
  C 759.44 739.40 746.06 729.10 737.25 719.25
  C 721.33 701.45 712.95 678.97 707.40 655.16
  Q 702.59 634.51 700.53 617.10
  A 0.91 0.90 4.3 0 0 699.86 616.33
  L 638.29 600.43
  Q 637.72 600.28 637.65 600.87
  C 631.52 655.34 654.66 704.91 699.60 734.97
  A 0.30 0.30 0.0 0 0 700.01 734.55
  C 697.50 731.01 692.11 722.67 695.28 718.50
  A 0.53 0.53 0.0 0 1 696.07 718.44
  Q 697.41 719.74 698.57 721.18
  C 713.75 739.86 735.30 766.82 760.04 772.32
  C 780.92 776.96 803.57 764.19 816.95 749.44
  C 830.01 735.06 841.88 720.20 855.72 712.70
  Q 856.47 712.30 856.15 713.09"
/>
<path stroke="#803656" vector-effect="non-scaling-stroke" d="
  M 750.95 678.98
  A 1.11 1.11 0.0 0 1 748.94 679.52
  Q 745.81 675.14 743.38 671.57
  Q 732.70 655.91 715.21 649.11
  A 0.31 0.31 0.0 0 0 714.79 649.44
  Q 719.21 680.90 736.28 707.51
  C 746.63 723.64 770.82 734.06 789.45 729.18
  Q 789.92 729.05 789.98 728.57
  C 793.77 697.76 775.97 666.87 743.73 662.20
  A 0.48 0.48 0.0 0 0 743.29 662.97
  C 746.03 666.32 751.38 674.54 750.95 678.98"
/>
<path stroke="#6d4218" vector-effect="non-scaling-stroke" d="
  M 289.76 996.02
  C 282.42 998.57 274.94 1002.15 266.89 1002.77
  C 259.37 1003.35 250.77 1003.02 242.63 1003.01
  Q 223.60 1002.98 204.56 1003.23
  C 198.20 1003.31 195.00 1007.21 191.57 1011.86
  A 1.44 1.44 0.0 0 0 191.30 1012.73
  C 191.65 1021.75 192.51 1028.22 199.13 1032.63
  C 210.28 1040.06 223.87 1044.53 237.41 1043.36
  C 246.66 1042.57 256.91 1042.22 265.79 1039.49
  Q 277.19 1035.98 289.12 1036.21
  A 0.47 0.47 0.0 0 1 289.30 1037.11
  C 267.68 1046.56 245.28 1053.56 223.46 1062.48
  C 217.52 1064.90 209.31 1068.77 211.52 1076.50
  Q 214.58 1087.20 226.75 1089.51
  Q 254.31 1094.73 279.17 1086.39
  Q 288.01 1083.43 307.51 1076.44
  C 325.87 1069.85 342.54 1072.13 357.55 1085.23
  Q 371.88 1097.73 388.93 1110.38
  Q 394.85 1114.77 399.36 1116.37
  Q 411.10 1120.56 423.82 1117.39
  Q 424.87 1117.13 426.16 1115.68
  C 431.40 1109.79 433.53 1103.49 430.80 1095.87
  C 425.43 1080.90 409.05 1070.39 407.50 1054.01
  Q 405.72 1035.23 403.43 1016.51
  Q 403.12 1013.95 404.21 1011.54
  A 0.74 0.73 15.4 0 1 404.96 1011.12
  C 412.94 1012.05 416.18 1004.45 421.99 1000.20
  C 470.48 964.66 529.24 936.80 579.26 911.70
  C 593.02 904.80 606.41 896.86 619.96 889.39
  C 625.44 886.37 633.20 881.42 640.79 878.22
  A 0.93 0.93 0.0 0 1 641.85 879.69
  Q 632.09 890.82 619.89 899.98
  C 608.80 908.30 594.39 915.00 581.46 921.77
  A 1.33 1.29 -4.7 0 0 580.84 922.48
  Q 578.79 927.95 576.80 933.43
  Q 565.81 963.66 544.40 987.66
  C 519.60 1015.45 492.82 1039.51 466.33 1064.58
  Q 460.11 1070.47 448.19 1084.76
  C 443.93 1089.86 444.74 1101.67 444.53 1112.20
  C 444.46 1115.38 436.81 1120.65 434.13 1122.48
  C 429.05 1125.96 422.49 1127.51 417.68 1131.40
  A 1.71 1.68 -7.6 0 0 417.18 1132.04
  Q 399.06 1170.71 391.29 1212.76
  Q 380.33 1272.02 369.62 1331.32
  C 364.02 1362.34 355.74 1389.63 343.20 1417.70
  C 335.97 1433.88 331.13 1444.21 319.03 1454.32
  A 0.63 0.63 0.0 0 1 318.03 1453.62
  L 322.24 1442.24
  Q 322.42 1441.75 321.92 1441.90
  Q 280.76 1454.60 240.07 1468.69
  C 217.57 1476.47 174.23 1495.50 167.92 1520.98
  C 164.01 1536.75 178.23 1546.03 190.80 1550.30
  A 0.58 0.57 -79.0 0 0 191.56 1549.78
  Q 191.89 1543.58 192.43 1537.17
  C 193.17 1528.50 208.06 1515.93 216.32 1514.60
  C 222.68 1513.57 234.57 1512.57 240.16 1512.55
  Q 255.50 1512.48 267.59 1522.49
  A 0.37 0.37 0.0 0 1 267.31 1523.15
  C 253.84 1521.69 238.04 1519.50 224.77 1522.01
  C 212.44 1524.34 199.53 1535.41 207.82 1549.22
  C 215.39 1561.81 242.67 1566.12 255.96 1565.06
  Q 257.93 1564.90 274.16 1562.47
  C 286.85 1560.58 299.60 1558.87 312.02 1556.10
  Q 336.94 1550.53 361.73 1544.43
  C 368.65 1542.73 373.65 1540.18 380.81 1536.77
  C 391.30 1531.77 399.56 1525.29 407.15 1516.89
  C 414.08 1509.23 413.62 1497.52 408.62 1488.97
  Q 408.31 1488.43 407.85 1488.85
  Q 404.70 1491.78 400.48 1492.63
  A 0.55 0.55 0.0 0 1 399.84 1491.96
  C 400.21 1490.58 401.48 1489.35 402.14 1488.42
  Q 421.85 1460.73 450.45 1438.70
  C 476.26 1418.82 496.49 1402.58 518.36 1387.99
  Q 534.36 1377.32 550.30 1366.54
  C 558.92 1360.70 571.54 1354.33 579.56 1350.25
  C 601.16 1339.24 622.49 1333.88 647.18 1331.19
  Q 648.50 1331.05 647.32 1331.66
  Q 635.69 1337.72 623.47 1342.43
  C 619.27 1344.05 615.91 1345.83 612.42 1348.11
  A 0.52 0.52 0.0 0 0 612.47 1349.01
  C 626.07 1356.04 635.97 1362.88 651.11 1373.26
  Q 664.41 1382.37 668.48 1386.01
  Q 694.07 1408.87 719.83 1431.56
  C 741.12 1450.32 763.37 1475.06 764.37 1504.92
  C 764.58 1511.10 762.53 1516.98 765.78 1523.20
  Q 771.67 1534.49 784.69 1540.08
  Q 793.99 1544.06 813.64 1550.19
  Q 868.48 1567.27 925.56 1561.02
  C 936.15 1559.86 941.00 1550.18 935.12 1541.10
  C 927.30 1529.01 908.81 1520.48 895.68 1515.93
  Q 884.89 1512.20 875.10 1507.95
  A 1.23 1.23 0.0 0 1 875.32 1505.63
  Q 879.43 1504.70 883.03 1505.65
  C 911.59 1513.17 942.00 1518.75 950.64 1552.43
  Q 950.77 1552.94 951.29 1553.01
  C 962.47 1554.60 976.69 1552.95 986.58 1547.03
  Q 987.02 1546.77 987.09 1546.27
  Q 988.46 1537.12 986.02 1528.30
  C 985.02 1524.68 981.38 1521.97 978.65 1519.59
  C 945.59 1490.68 901.83 1473.46 862.28 1455.42
  A 0.67 0.66 -62.9 0 1 861.98 1454.48
  C 863.67 1451.57 870.46 1454.59 873.13 1454.90
  Q 873.71 1454.97 873.49 1454.42
  C 845.62 1387.32 832.81 1314.08 822.31 1242.60
  A 0.45 0.44 -24.6 0 0 821.58 1242.33
  C 788.17 1270.66 753.17 1302.75 710.96 1317.15
  Q 697.09 1321.88 678.49 1323.77
  Q 623.54 1329.34 580.79 1297.45
  Q 546.46 1271.84 536.55 1230.68
  C 533.57 1218.30 534.59 1206.39 535.20 1193.85
  C 536.42 1168.52 545.74 1148.30 558.93 1127.43
  C 588.37 1080.82 618.04 1034.44 644.46 986.01
  C 662.96 952.12 681.75 918.32 699.60 884.09
  Q 710.39 863.41 721.83 843.07
  C 726.69 834.43 731.07 827.71 741.05 825.51
  C 750.10 823.51 762.84 846.37 766.30 853.59
  C 773.98 869.62 779.95 883.43 789.27 895.62
  A 1.04 1.02 70.0 0 0 790.10 896.02
  C 798.16 895.93 804.79 889.77 808.70 883.22
  Q 819.93 864.43 830.99 845.55
  C 837.63 834.23 847.86 823.87 862.04 824.79
  A 0.67 0.67 0.0 0 0 862.72 823.95
  C 860.52 815.75 858.53 808.04 855.55 799.60
  Q 851.40 787.85 849.46 779.02
  Q 848.82 776.14 851.21 773.22
  Q 851.59 772.76 851.86 773.29
  C 864.95 799.51 875.88 827.30 881.75 855.25
  Q 888.02 885.09 889.72 924.57
  C 889.95 929.98 888.25 940.04 890.94 944.05
  C 902.06 960.71 919.56 977.45 937.18 993.61
  C 944.95 1000.74 954.26 1008.54 961.67 1013.84
  Q 993.60 1036.71 1025.07 1060.22
  C 1031.33 1064.90 1035.80 1057.12 1040.71 1053.89
  A 0.94 0.94 0.0 0 1 1042.06 1055.11
  C 1029.47 1079.13 1044.01 1111.37 1016.56 1127.52
  C 1014.36 1128.82 1014.42 1129.37 1014.24 1131.74
  Q 1013.56 1140.37 1019.93 1144.80
  C 1032.79 1153.77 1050.33 1150.00 1061.84 1141.07
  Q 1074.05 1131.60 1085.74 1121.49
  C 1090.71 1117.20 1093.51 1115.58 1099.00 1116.47
  C 1119.40 1119.78 1139.83 1122.83 1160.22 1126.14
  C 1187.15 1130.51 1213.89 1131.30 1237.53 1115.28
  C 1241.67 1112.48 1241.65 1105.06 1238.99 1101.46
  A 1.37 1.37 0.0 0 0 1238.04 1100.93
  Q 1206.95 1097.71 1197.57 1096.40
  C 1180.94 1094.08 1165.36 1089.88 1151.34 1080.24
  A 0.54 0.54 0.0 0 1 1151.64 1079.26
  C 1153.34 1079.24 1155.04 1079.13 1156.75 1079.58
  Q 1184.51 1086.91 1213.09 1088.62
  A 0.18 0.17 63.0 0 0 1213.19 1088.30
  L 1164.67 1056.34
  A 0.56 0.56 0.0 0 1 1164.91 1055.31
  C 1169.72 1054.72 1172.84 1056.25 1178.23 1058.55
  Q 1194.18 1065.33 1208.28 1075.49
  C 1209.19 1076.15 1210.63 1076.80 1211.98 1076.59
  C 1223.10 1074.84 1232.92 1071.05 1235.00 1058.75
  C 1236.04 1052.66 1236.15 1042.54 1227.68 1042.47
  Q 1208.04 1042.29 1188.41 1041.76
  C 1171.62 1041.31 1158.93 1038.10 1145.29 1029.42
  C 1140.85 1026.59 1136.51 1023.89 1131.61 1021.67
  C 1118.32 1015.64 1105.41 1010.11 1092.98 1002.31
  Q 1092.55 1002.04 1092.69 1001.54
  L 1093.01 1000.44
  Q 1093.17 999.89 1092.75 999.50
  Q 1075.51 983.56 1063.18 963.57
  C 1030.80 911.07 997.86 858.94 965.22 806.61
  Q 946.05 775.89 922.35 748.54
  C 914.82 739.85 907.88 731.69 895.44 730.79
  Q 881.48 729.78 868.32 734.32
  C 865.52 735.29 860.30 738.18 856.34 737.94
  C 835.85 736.66 820.18 755.77 806.55 769.30
  C 784.12 791.55 755.58 786.74 731.23 770.64
  C 727.13 767.92 725.12 763.40 721.17 760.50
  Q 716.14 756.82 712.97 755.25
  Q 699.33 748.51 686.62 740.03
  Q 686.10 739.69 686.34 740.26
  C 689.89 748.59 692.77 757.19 690.88 766.57
  Q 690.71 767.42 690.21 766.71
  Q 687.91 763.44 686.21 759.80
  C 680.48 747.58 674.54 733.29 666.72 723.53
  C 653.48 707.01 631.71 701.31 610.99 704.04
  C 585.62 707.39 565.39 718.80 544.58 733.58
  C 462.60 791.78 400.98 873.02 348.97 957.84
  A 1.32 1.29 -79.8 0 1 348.16 958.42
  C 345.71 958.98 342.41 959.34 340.74 959.71
  Q 326.37 962.86 311.75 969.24
  C 289.01 979.15 273.67 986.02 254.66 993.58
  A 0.30 0.30 0.0 0 0 254.76 994.16
  L 289.69 995.54
  A 0.25 0.25 0.0 0 1 289.76 996.02"
/>
<path stroke="#803656" vector-effect="non-scaling-stroke" d="
  M 646.69 1314.72
  Q 648.53 1315.29 650.77 1314.89"
/>
<path stroke="#7f7862" vector-effect="non-scaling-stroke" d="
  M 650.77 1314.89
  C 672.84 1316.69 698.05 1312.27 719.15 1303.81
  C 724.90 1301.50 730.13 1296.93 735.65 1293.72
  C 749.35 1285.76 764.41 1273.72 774.32 1265.58
  Q 795.97 1247.82 814.01 1226.50
  C 821.58 1217.56 828.14 1206.95 834.75 1196.82
  Q 838.89 1190.46 842.29 1180.81
  C 849.37 1160.69 855.38 1145.13 860.07 1126.83
  Q 866.29 1102.57 870.10 1077.81
  C 870.84 1072.99 871.14 1066.96 872.02 1061.50
  Q 873.01 1055.36 873.26 1050.43
  C 873.70 1041.76 874.92 1032.74 875.26 1024.51
  Q 875.77 1012.35 876.60 1000.21
  C 878.56 971.74 876.99 943.00 877.83 914.43
  Q 878.82 880.76 867.84 848.72
  C 864.11 837.84 857.80 827.26 846.21 839.76
  C 837.45 849.20 831.88 860.51 825.65 871.31
  C 821.87 877.87 817.90 883.25 813.28 888.79
  C 806.70 896.68 800.21 899.83 790.22 903.39
  Q 789.75 903.56 789.33 903.30
  C 784.14 900.10 778.57 892.98 775.23 888.15
  Q 771.93 883.38 766.76 872.25
  Q 760.73 859.27 754.82 846.23
  C 751.38 838.66 740.20 824.84 732.59 838.05
  Q 718.10 863.22 704.29 888.75
  C 688.05 918.77 674.01 952.11 657.96 979.95
  Q 624.84 1037.38 561.60 1143.84
  C 553.76 1157.03 548.77 1167.08 546.47 1181.79
  C 541.77 1211.90 547.16 1245.13 563.84 1270.66
  C 582.97 1299.93 613.85 1310.26 646.69 1314.72"
/>
<path stroke="#ffaeb7" vector-effect="non-scaling-stroke" d="
  M 650.77 1314.89
  Q 648.43 1314.22 646.69 1314.72"
/>
<path stroke="#6d4218" vector-effect="non-scaling-stroke" d="
  M 230.97 1169.82
  C 255.44 1179.78 279.72 1190.19 304.24 1200.03
  Q 337.87 1213.54 376.17 1213.47
  C 377.71 1213.46 378.99 1212.64 379.23 1211.17
  Q 381.40 1197.82 384.57 1184.48
  Q 384.70 1183.91 384.12 1183.89
  Q 357.00 1182.83 329.85 1181.94
  Q 323.92 1181.75 318.76 1180.52
  Q 293.48 1174.49 269.95 1163.29
  C 244.82 1151.33 227.24 1142.38 203.00 1138.80
  Q 189.05 1136.74 172.94 1138.17
  Q 123.12 1142.60 78.55 1165.04
  A 0.17 0.17 0.0 0 0 78.67 1165.36
  Q 109.59 1158.58 141.17 1155.64
  C 154.29 1154.42 161.42 1153.52 171.56 1154.65
  Q 202.09 1158.06 230.97 1169.82"
/>
<path stroke="#6d4218" vector-effect="non-scaling-stroke" d="
  M 881.74 798.46
  C 887.24 816.90 887.20 834.04 886.07 853.44
  A 0.26 0.25 57.4 0 0 886.56 853.55
  C 893.73 835.18 890.41 815.50 882.12 798.32
  Q 881.02 796.05 881.74 798.46"
/>
</g>
<path fill="#000001" d="
  M 376.17 1223.43
  C 366.86 1223.57 357.13 1223.64 348.31 1222.44
  C 313.06 1217.63 279.86 1201.26 247.93 1186.83
  C 218.80 1173.67 184.92 1160.01 152.80 1161.47
  C 116.04 1163.15 79.44 1170.06 43.94 1179.87
  A 0.33 0.33 0.0 0 1 43.66 1179.28
  C 85.20 1148.54 132.52 1129.93 184.75 1129.94
  C 203.42 1129.94 219.82 1132.61 236.81 1139.95
  C 262.22 1150.94 287.93 1162.50 314.61 1170.07
  Q 340.12 1177.30 366.47 1175.91
  C 381.34 1175.12 391.56 1170.54 395.81 1155.70
  Q 399.46 1142.96 403.99 1133.53
  C 405.17 1131.09 404.21 1130.02 401.96 1129.01
  C 379.79 1118.99 363.69 1104.79 345.47 1088.02
  Q 340.63 1083.57 337.17 1082.11
  C 322.09 1075.74 304.15 1085.36 290.84 1091.80
  C 288.33 1093.01 285.30 1093.95 282.94 1094.44
  Q 266.85 1097.77 250.74 1100.97
  C 239.81 1103.14 228.69 1104.63 218.17 1101.11
  C 206.88 1097.34 200.49 1084.40 199.33 1073.18
  C 198.25 1062.74 221.64 1055.27 228.37 1052.94
  A 0.89 0.88 44.1 0 0 228.34 1051.26
  C 222.73 1049.49 216.50 1049.95 211.57 1048.79
  Q 196.36 1045.22 185.33 1034.68
  C 175.71 1025.49 177.30 1010.30 185.51 1000.98
  Q 191.76 993.88 202.45 993.56
  Q 218.50 993.07 226.50 994.03
  Q 234.21 994.95 240.02 992.12
  C 269.11 977.98 298.61 961.55 329.98 953.20
  C 333.53 952.26 337.49 952.08 341.26 951.48
  C 345.20 950.86 346.55 950.11 348.60 946.46
  Q 406.06 844.56 489.31 765.31
  Q 511.74 743.95 539.33 724.02
  C 555.16 712.58 571.74 703.45 589.92 696.71
  A 1.00 1.00 0.0 0 0 590.08 694.91
  Q 580.31 689.11 570.88 683.08
  C 546.81 667.68 527.18 648.34 509.34 625.65
  Q 508.19 624.19 505.26 624.45
  Q 494.19 625.43 483.19 624.61
  C 458.52 622.78 431.69 611.41 412.48 596.04
  Q 388.58 576.93 364.68 557.82
  C 337.08 535.77 315.47 506.82 295.87 477.73
  Q 275.35 447.25 261.24 413.30
  C 251.84 390.69 243.45 367.94 237.84 344.43
  C 227.13 299.51 226.59 252.71 233.22 206.25
  Q 236.51 183.24 243.18 162.73
  C 248.17 147.41 255.00 135.40 264.23 121.97
  Q 271.61 111.23 277.34 105.59
  C 288.81 94.29 300.99 83.94 316.54 80.86
  C 360.39 72.17 396.78 85.48 433.61 108.62
  C 468.83 130.75 503.22 157.29 534.00 182.99
  C 535.80 184.49 536.97 185.21 539.45 184.71
  Q 560.55 180.47 573.49 175.99
  C 630.22 156.39 677.65 116.28 724.36 79.46
  A 0.47 0.47 0.0 0 1 725.06 80.05
  C 711.04 105.66 691.33 126.70 671.37 147.80
  Q 669.57 149.70 672.13 149.18
  Q 693.92 144.73 716.98 139.91
  Q 720.19 139.24 722.93 139.06
  A 3.49 3.48 -78.7 0 0 725.83 137.12
  Q 739.75 108.75 754.16 80.18
  C 762.90 62.84 777.39 48.80 796.00 43.51
  C 797.79 43.00 800.87 43.13 802.94 43.69
  C 827.77 50.34 851.73 68.78 865.82 89.94
  C 884.06 117.33 894.51 143.40 903.22 175.51
  Q 908.66 195.57 908.69 217.58
  C 908.70 221.98 907.97 226.48 907.49 231.00
  Q 907.10 234.66 909.60 236.42
  Q 926.64 248.41 943.74 260.28
  Q 944.20 260.60 944.33 260.06
  Q 945.02 257.13 945.77 254.35
  C 946.94 250.04 946.32 245.64 946.80 241.16
  C 947.61 233.65 946.66 226.42 947.82 218.88
  A 0.64 0.64 0.0 0 1 949.02 218.68
  Q 952.24 224.90 952.37 231.57
  Q 952.73 250.35 952.26 268.59
  A 2.68 2.66 22.6 0 0 953.11 270.63
  L 974.92 291.15
  Q 975.28 291.48 975.53 291.06
  C 983.10 278.28 988.37 263.88 993.60 249.89
  A 0.54 0.53 50.4 0 1 994.63 249.99
  Q 996.67 261.93 991.45 273.13
  C 985.66 285.55 975.23 302.57 988.13 314.62
  C 989.76 316.15 991.44 317.47 992.52 319.48
  C 1005.81 344.22 1008.14 370.70 1007.74 398.25
  C 1007.69 401.86 1006.98 406.97 1006.04 411.18
  Q 996.34 454.51 986.50 497.80
  C 983.73 509.98 987.94 521.08 996.40 529.83
  C 999.76 533.31 1011.45 541.00 1015.53 539.18
  Q 1030.79 532.39 1058.59 522.14
  Q 1077.10 515.31 1089.29 512.70
  Q 1115.08 507.18 1140.02 506.41
  Q 1144.71 506.26 1140.08 507.01
  C 1098.68 513.72 1057.87 525.74 1019.87 543.18
  A 0.75 0.75 0.0 0 0 1019.67 544.41
  Q 1032.50 556.23 1041.52 571.21
  C 1045.17 577.27 1056.98 575.91 1063.15 576.73
  Q 1087.84 580.01 1095.25 581.23
  Q 1165.18 592.77 1231.49 623.67
  A 1.26 1.21 -35.9 0 0 1232.21 623.77
  Q 1232.87 623.67 1233.42 624.10
  A 0.35 0.35 0.0 0 1 1233.09 624.70
  C 1203.78 613.77 1174.52 605.32 1144.65 597.59
  C 1113.39 589.51 1082.11 584.92 1050.12 580.97
  A 1.27 1.26 -85.5 0 0 1048.70 582.19
  Q 1048.21 599.00 1041.47 614.58
  C 1038.84 620.65 1036.53 626.67 1032.73 632.00
  Q 1019.56 650.42 1001.56 664.31
  C 973.15 686.23 941.08 702.60 909.07 718.65
  A 2.28 2.28 0.0 0 0 908.20 721.96
  C 908.61 722.57 909.07 723.33 909.80 723.81
  Q 921.35 731.41 924.50 735.01
  C 976.62 794.72 1011.84 866.75 1053.90 933.85
  Q 1077.12 970.88 1108.10 1001.88
  C 1109.95 1003.73 1111.56 1005.07 1114.31 1005.53
  Q 1120.27 1006.53 1123.70 1008.29
  Q 1141.53 1017.43 1159.29 1026.73
  C 1173.27 1034.04 1194.52 1035.70 1211.48 1034.68
  C 1217.75 1034.31 1222.79 1034.55 1228.50 1035.23
  C 1244.76 1037.16 1251.74 1058.09 1242.41 1070.54
  C 1238.64 1075.57 1230.69 1082.35 1224.70 1082.69
  A 1.15 1.14 -14.3 0 0 1223.73 1084.32
  C 1229.85 1097.34 1246.82 1085.95 1250.12 1106.49
  C 1253.23 1125.82 1227.85 1137.40 1212.19 1138.41
  Q 1204.28 1138.91 1176.73 1138.36
  C 1166.86 1138.16 1158.13 1134.29 1148.64 1132.20
  Q 1121.69 1126.24 1093.78 1123.54
  A 1.61 1.61 0.0 0 0 1092.53 1123.96
  Q 1081.98 1133.44 1071.28 1143.03
  Q 1063.01 1150.44 1057.82 1153.32
  C 1040.23 1163.06 1021.95 1161.68 1007.44 1147.40
  C 997.61 1137.73 1003.26 1128.32 1010.86 1120.11
  Q 1017.52 1112.92 1024.06 1105.60
  C 1026.25 1103.15 1026.60 1100.55 1026.25 1097.50
  C 1025.29 1089.24 1023.90 1078.81 1027.11 1071.09
  A 1.31 1.31 0.0 0 0 1026.63 1069.50
  C 978.73 1037.35 934.15 1000.92 890.14 964.27
  Q 888.83 963.18 888.72 964.88
  C 886.14 1004.03 882.88 1042.85 879.86 1081.57
  Q 876.43 1125.67 861.62 1167.41
  Q 859.04 1174.70 855.77 1181.68
  C 848.94 1196.26 841.65 1209.98 831.71 1222.74
  C 829.87 1225.10 831.01 1229.14 831.31 1231.69
  C 838.65 1294.40 849.46 1359.40 870.76 1420.99
  Q 879.14 1445.21 885.47 1458.23
  Q 886.61 1460.58 890.51 1462.30
  Q 919.62 1475.13 948.70 1488.03
  Q 951.57 1489.31 962.23 1495.50
  Q 985.49 1509.01 998.81 1532.22
  C 1001.42 1536.77 1003.13 1538.78 1001.12 1543.43
  C 987.91 1574.01 958.29 1558.96 933.91 1569.70
  A 1.54 1.50 -87.2 0 0 933.18 1570.38
  Q 931.86 1572.83 928.51 1572.94
  C 899.29 1573.88 872.85 1573.31 844.81 1568.39
  C 822.67 1564.50 800.52 1557.24 779.70 1548.80
  C 768.11 1544.10 759.49 1534.90 757.13 1522.55
  C 754.70 1509.88 754.44 1496.42 754.07 1483.72
  A 4.85 4.83 -67.8 0 0 752.72 1480.49
  C 729.72 1456.52 707.48 1433.03 681.57 1410.57
  C 656.96 1389.24 628.05 1366.56 596.59 1352.64
  A 2.05 2.04 43.2 0 0 594.82 1352.69
  Q 580.83 1359.90 567.30 1368.08
  Q 506.99 1404.51 451.69 1448.17
  Q 431.06 1464.46 420.53 1474.53
  C 418.38 1476.59 420.46 1485.57 420.85 1488.42
  C 421.96 1496.55 421.24 1504.49 420.00 1512.25
  C 418.62 1520.99 408.48 1529.95 401.71 1534.95
  Q 385.76 1546.70 366.62 1551.96
  Q 330.08 1562.00 293.44 1571.71
  Q 284.24 1574.14 259.31 1577.59
  C 241.23 1580.10 221.04 1576.48 205.19 1566.57
  C 203.11 1565.27 201.29 1564.00 198.76 1563.59
  C 178.28 1560.29 149.24 1550.64 154.00 1523.51
  C 156.88 1507.10 176.75 1491.24 190.55 1483.04
  C 210.69 1471.07 232.34 1462.35 255.05 1455.26
  Q 287.52 1445.13 319.91 1434.75
  Q 320.00 1434.73 323.15 1433.94
  C 328.32 1432.65 329.41 1429.59 332.08 1424.40
  C 346.65 1396.05 352.27 1369.05 357.86 1336.73
  C 362.40 1310.46 367.54 1284.21 371.49 1257.86
  Q 374.03 1240.94 376.70 1224.04
  Q 376.80 1223.42 376.17 1223.43
  Z
  M 875.02 149.52
  Q 836.78 145.50 798.69 151.02
  C 777.14 154.14 755.56 157.03 734.01 160.09
  C 731.26 160.48 729.63 161.23 728.26 163.50
  C 726.00 167.21 722.44 172.98 722.73 177.30
  Q 722.78 177.91 723.38 177.97
  Q 812.70 187.24 893.30 226.52
  Q 893.88 226.80 893.90 226.16
  C 894.37 209.43 894.24 191.45 891.09 175.15
  Q 884.99 143.60 869.33 115.58
  C 854.86 89.69 832.88 60.79 801.14 56.83
  C 794.37 55.98 788.30 56.70 783.54 61.30
  Q 769.79 74.59 761.37 93.59
  Q 752.21 114.26 743.28 134.95
  A 0.62 0.61 -80.9 0 0 743.90 135.81
  Q 791.43 131.22 838.75 138.18
  Q 857.70 140.97 875.16 149.02
  A 0.26 0.26 0.0 0 1 875.02 149.52
  Z
  M 600.50 236.07
  Q 575.07 223.08 550.55 204.96
  Q 526.50 187.17 450.33 131.71
  C 418.16 108.29 377.87 84.61 336.33 88.61
  C 300.70 92.05 278.23 119.77 263.85 149.78
  A 0.25 0.25 0.0 0 0 264.24 150.07
  C 279.40 135.92 298.91 123.43 320.01 121.47
  Q 328.51 120.68 339.91 122.57
  Q 376.93 128.70 406.73 151.24
  C 441.52 177.56 473.67 212.55 486.43 255.31
  C 492.85 276.83 498.73 300.82 502.72 324.68
  C 506.06 344.66 504.14 364.33 496.01 383.00
  C 491.87 392.50 483.67 404.46 474.58 409.07
  C 455.96 418.51 437.40 416.19 418.26 410.12
  A 0.38 0.38 0.0 0 0 417.88 410.75
  C 431.47 424.12 446.32 432.90 466.01 432.95
  C 474.14 432.97 478.32 433.42 485.72 429.62
  C 489.75 427.55 493.31 427.28 497.55 426.79
  A 0.43 0.43 0.0 0 1 497.94 427.49
  Q 492.99 433.83 486.56 439.06
  Q 481.03 443.55 479.78 450.00
  Q 477.16 463.42 476.94 479.51
  C 476.79 489.96 476.31 500.81 477.55 510.79
  C 483.27 556.85 507.70 605.63 538.66 639.33
  Q 563.92 666.81 598.48 690.27
  C 604.03 694.04 616.43 691.02 622.95 690.28
  C 631.91 689.26 640.37 690.60 648.98 692.26
  A 0.56 0.56 0.0 0 0 649.55 691.41
  Q 637.72 673.14 631.48 652.40
  C 628.14 641.30 625.26 629.57 626.30 619.07
  Q 627.26 609.41 628.69 600.13
  A 0.65 0.64 1.7 0 0 627.99 599.39
  L 603.76 601.82
  A 0.68 0.68 0.0 0 1 603.16 600.71
  C 607.14 595.82 620.76 593.71 626.66 593.31
  Q 632.83 592.89 643.23 594.68
  C 653.27 596.41 663.10 598.08 673.16 600.59
  C 680.93 602.53 689.56 605.64 697.58 605.59
  Q 709.63 605.52 721.63 604.49
  C 735.32 603.32 739.25 597.07 745.03 585.76
  Q 745.27 585.28 744.74 585.23
  C 693.22 579.70 641.37 584.70 589.94 587.90
  A 0.64 0.64 0.0 0 1 589.67 586.66
  Q 596.75 583.86 604.42 582.58
  Q 669.76 571.60 735.75 577.24
  C 738.64 577.49 743.17 578.40 746.77 578.24
  A 2.38 2.38 0.0 0 0 749.03 575.88
  C 749.06 571.68 748.62 559.37 743.67 557.44
  Q 737.33 554.95 733.19 553.57
  Q 678.38 535.29 621.19 526.99
  Q 577.33 520.63 533.47 514.26
  C 527.55 513.40 520.78 514.04 515.51 510.82
  A 0.49 0.49 0.0 0 1 515.77 509.91
  C 565.70 510.77 615.31 516.27 663.52 527.14
  Q 703.77 536.21 742.94 547.79
  Q 743.93 548.08 743.62 547.09
  C 735.12 519.97 711.03 508.14 687.69 494.42
  A 0.58 0.58 0.0 0 1 687.59 493.50
  L 689.29 491.92
  Q 689.75 491.49 690.31 491.78
  C 710.15 501.93 724.69 510.71 739.28 524.15
  A 0.34 0.34 0.0 0 0 739.82 523.77
  Q 723.63 485.21 707.78 446.71
  C 701.12 430.52 695.94 413.47 690.11 396.87
  C 682.28 374.59 677.61 351.45 682.40 327.83
  C 683.07 324.54 684.66 320.43 686.77 318.28
  C 692.97 311.92 698.28 306.46 701.19 299.19
  Q 702.92 294.86 704.68 289.24
  C 707.94 278.77 707.01 267.65 709.09 256.92
  C 710.90 247.61 707.75 241.54 698.21 239.56
  Q 694.12 238.71 692.00 238.97
  Q 683.15 240.07 674.25 239.46
  C 672.15 239.32 668.36 239.71 666.16 240.96
  C 653.24 248.33 650.35 262.42 651.29 276.25
  Q 652.58 295.44 653.37 314.74
  Q 653.39 315.40 652.82 315.07
  C 647.59 312.04 644.67 304.79 644.22 299.50
  Q 643.26 288.38 642.99 265.75
  C 642.82 252.07 648.39 231.37 664.48 228.68
  C 671.21 227.56 678.55 226.43 685.29 228.18
  Q 693.36 230.29 701.25 232.46
  A 0.44 0.44 0.0 0 0 701.79 231.92
  Q 698.95 221.48 695.01 211.86
  Q 693.87 209.08 693.97 206.47
  A 0.58 0.58 0.0 0 1 694.96 206.09
  C 702.64 213.80 707.39 222.66 710.63 234.09
  Q 711.13 235.87 712.29 237.44
  A 1.76 1.74 -6.4 0 0 713.04 238.03
  Q 724.46 242.50 732.38 251.89
  A 0.41 0.41 0.0 0 1 732.01 252.56
  C 725.58 251.60 720.87 246.11 716.02 246.32
  Q 715.41 246.35 715.54 246.95
  C 719.91 265.82 720.68 283.63 714.89 302.18
  A 0.58 0.57 -85.5 0 0 715.52 302.92
  C 720.12 302.27 729.49 300.58 732.73 296.98
  C 742.23 286.40 749.31 274.55 751.22 259.94
  C 753.89 239.47 751.54 223.75 747.97 201.39
  Q 747.88 200.83 748.39 201.07
  Q 750.90 202.26 751.84 204.00
  C 761.54 221.99 761.97 244.15 760.78 264.45
  Q 760.49 269.57 758.96 274.72
  C 754.79 288.81 750.29 299.27 739.83 308.43
  A 0.86 0.85 -44.8 0 0 739.82 309.71
  C 785.12 350.37 817.18 411.74 813.57 473.73
  Q 813.09 481.90 812.60 488.29
  C 811.57 501.84 807.58 515.19 803.73 528.05
  A 0.45 0.45 0.0 0 0 804.08 528.62
  Q 814.73 530.59 825.49 532.81
  C 834.85 534.73 843.68 539.49 852.47 543.17
  Q 852.95 543.37 853.42 543.14
  C 861.01 539.40 867.11 538.47 876.49 538.30
  C 886.53 538.13 900.45 538.81 909.30 532.28
  Q 909.74 531.95 909.64 531.42
  Q 901.19 488.73 890.82 446.48
  Q 885.88 426.36 885.48 413.50
  C 884.56 383.99 884.65 355.90 901.85 330.70
  Q 903.35 328.52 905.77 326.93
  C 915.37 320.65 923.67 314.69 928.08 307.33
  Q 937.28 291.98 941.24 274.49
  A 2.05 2.03 -60.5 0 0 940.74 272.66
  Q 933.82 265.27 923.93 262.10
  C 915.20 259.31 898.46 260.09 893.49 270.14
  C 891.69 273.77 891.71 281.89 886.76 283.22
  Q 886.20 283.37 886.04 282.81
  Q 884.02 275.59 887.21 268.46
  C 892.13 257.48 899.29 253.20 910.02 249.14
  A 0.37 0.36 -40.8 0 0 910.07 248.48
  Q 878.00 230.93 843.87 217.46
  C 772.83 189.43 696.83 180.13 620.89 186.90
  A 0.28 0.28 0.0 0 1 620.76 186.37
  C 657.93 170.58 693.84 159.81 734.97 150.84
  C 749.39 147.69 762.61 146.00 777.00 144.74
  Q 777.38 144.71 777.65 144.41
  Q 778.01 144.02 777.48 144.04
  C 763.19 144.73 748.90 145.39 734.60 145.81
  C 709.44 146.54 682.63 154.03 662.99 159.50
  Q 655.93 161.47 648.80 165.54
  C 640.00 170.57 633.12 174.24 624.85 177.03
  Q 621.22 178.26 624.28 175.94
  C 649.84 156.50 673.92 136.35 695.03 112.12
  A 0.20 0.20 0.0 0 0 694.76 111.82
  C 649.64 143.99 606.18 176.51 553.92 196.54
  A 0.36 0.36 0.0 0 0 553.82 197.16
  L 600.72 235.73
  A 0.20 0.20 0.0 0 1 600.50 236.07
  Z
  M 392.32 374.51
  A 0.26 0.26 0.0 0 1 392.79 374.33
  C 396.54 379.68 400.19 385.31 404.76 389.61
  C 419.69 403.65 437.46 412.43 457.86 404.04
  C 465.82 400.76 479.81 393.71 482.71 385.24
  Q 493.17 354.72 488.81 322.66
  Q 486.45 305.28 479.94 279.77
  C 469.82 240.13 453.70 207.36 425.56 178.20
  Q 394.56 146.06 351.70 133.29
  C 337.85 129.17 315.47 127.67 301.71 134.64
  C 274.50 148.42 249.41 170.87 245.91 203.01
  Q 245.09 210.63 244.12 218.23
  C 238.70 260.72 241.58 303.87 251.85 345.43
  C 266.46 404.56 293.66 464.62 333.15 511.42
  Q 365.26 549.48 402.06 576.94
  C 429.62 597.51 461.32 607.45 495.50 609.02
  A 0.26 0.26 0.0 0 0 495.74 608.64
  C 470.10 560.85 447.46 496.02 470.88 441.25
  A 0.42 0.41 -78.3 0 0 470.50 440.67
  C 449.29 440.92 434.24 437.66 418.32 424.78
  C 403.15 412.51 394.48 393.74 392.32 374.51
  Z
  M 681.85 175.30
  C 694.67 175.12 711.29 183.39 714.73 165.99
  A 0.40 0.40 0.0 0 0 714.23 165.53
  L 681.72 174.44
  A 0.44 0.44 0.0 0 0 681.85 175.30
  Z
  M 930.45 324.65
  C 933.23 326.73 937.78 329.21 940.90 327.68
  Q 941.10 327.58 944.18 325.33
  Q 958.44 314.91 968.04 299.94
  A 0.89 0.89 0.0 0 0 968.05 298.97
  Q 961.16 288.11 950.26 281.30
  A 0.52 0.52 0.0 0 0 949.50 281.56
  Q 944.94 293.98 940.17 306.43
  C 937.97 312.17 933.76 317.61 930.19 323.27
  A 1.03 1.03 0.0 0 0 930.45 324.65
  Z
  M 953.93 532.20
  C 965.69 537.30 970.64 548.17 975.29 558.01
  A 0.51 0.51 0.0 0 0 976.01 558.23
  L 998.81 544.81
  Q 999.41 544.46 998.91 543.98
  C 994.15 539.45 988.59 534.68 985.30 529.56
  Q 978.00 518.23 977.78 504.23
  Q 977.57 491.54 979.67 483.98
  C 993.07 435.59 1004.06 393.19 992.62 345.68
  C 989.78 333.90 982.91 321.93 977.36 311.13
  Q 977.11 310.63 976.67 310.98
  Q 965.67 319.87 954.35 328.33
  C 952.11 330.01 948.88 331.36 946.56 333.49
  A 1.24 1.23 -36.8 0 0 946.33 335.02
  C 971.35 377.92 975.72 432.11 966.85 480.77
  C 963.63 498.43 958.45 514.61 953.59 531.46
  Q 953.44 531.98 953.93 532.20
  Z
  M 780.38 441.02
  A 2.50 2.47 67.1 0 1 782.16 441.75
  Q 796.13 455.75 800.66 475.11
  C 802.26 481.96 802.66 490.39 803.23 498.00
  Q 803.26 498.40 803.53 498.67
  Q 803.79 498.93 803.81 498.56
  Q 803.96 494.86 804.66 485.25
  C 806.01 466.53 804.72 444.13 800.22 424.51
  C 792.61 391.38 780.47 359.40 757.07 335.08
  C 745.08 322.62 721.17 307.25 703.13 315.29
  C 694.26 319.24 692.14 325.58 691.87 335.32
  C 690.95 368.50 697.62 400.17 709.06 428.94
  Q 723.94 466.36 746.45 521.51
  C 748.08 525.50 749.58 525.64 754.00 525.37
  Q 759.94 525.00 765.95 524.73
  Q 766.47 524.70 766.31 524.22
  Q 759.48 503.02 757.69 480.89
  C 756.46 465.61 759.93 441.21 780.38 441.02
  Z
  M 939.62 498.49
  Q 938.61 502.27 939.04 506.03
  L 937.44 514.23
  Q 936.63 515.15 937.19 517.03
  L 934.84 526.85
  Q 934.69 527.49 935.35 527.54
  L 943.06 528.13
  A 2.17 2.16 15.4 0 0 945.16 526.94
  C 947.24 522.77 948.21 517.73 949.58 513.80
  Q 952.68 504.94 954.49 495.76
  Q 956.16 492.83 956.28 489.48
  L 957.51 485.26
  Q 958.62 482.84 958.44 480.74
  L 960.08 469.77
  Q 960.93 467.19 960.62 464.96
  C 964.33 438.45 963.04 412.90 956.77 386.96
  C 952.83 370.67 945.88 356.56 936.00 343.37
  Q 933.10 339.50 929.94 337.73
  C 923.27 333.99 912.10 331.38 907.22 339.75
  C 894.96 360.82 894.12 389.08 896.01 412.67
  Q 898.30 441.34 904.18 469.02
  Q 904.95 472.63 905.43 468.97
  C 906.56 460.42 910.14 451.13 916.91 444.65
  C 919.14 442.52 920.94 441.75 923.58 443.70
  C 928.31 447.19 932.21 451.10 934.46 456.77
  Q 942.37 476.74 939.62 498.49
  Z
  M 782.76 570.72
  A 0.38 0.38 0.0 0 1 782.48 571.37
  C 773.49 571.03 766.29 567.06 758.13 563.38
  A 0.37 0.37 0.0 0 0 757.61 563.72
  L 757.77 580.32
  Q 757.77 580.74 758.20 580.70
  C 765.34 579.87 774.55 580.43 779.22 586.50
  Q 779.59 586.97 778.99 587.00
  Q 769.25 587.48 759.50 587.60
  C 754.31 587.67 752.00 594.54 751.10 598.76
  C 749.95 604.16 754.52 609.25 758.67 612.09
  C 765.54 616.79 772.27 621.52 779.19 624.67
  C 804.98 636.40 837.70 635.30 861.46 619.09
  C 862.47 618.40 864.34 618.20 865.21 618.76
  C 877.21 626.58 893.13 627.84 907.18 625.83
  C 916.16 624.54 925.88 621.00 934.72 617.51
  C 946.94 612.68 955.84 599.41 961.19 587.41
  Q 968.40 571.23 961.45 555.08
  C 954.64 539.25 944.03 536.80 927.72 536.79
  C 922.04 536.79 915.22 540.07 909.76 541.72
  A 0.36 0.36 0.0 0 0 909.73 542.40
  C 926.61 549.05 936.19 561.24 924.05 578.35
  C 915.01 591.09 904.80 595.64 889.28 601.49
  Q 888.86 601.65 888.56 601.32
  Q 882.09 594.21 871.06 588.43
  C 862.33 583.84 836.77 573.14 837.65 561.31
  C 838.04 556.05 843.31 550.67 846.61 546.65
  Q 847.02 546.15 846.41 545.93
  C 813.59 533.97 779.25 532.38 744.84 529.61
  Q 743.81 529.52 744.29 530.43
  Q 749.79 540.89 754.56 551.69
  C 755.00 552.70 756.59 554.39 757.83 555.05
  C 766.79 559.78 775.41 563.38 782.76 570.72
  Z
  M 975.26 570.94
  L 1033.21 572.88
  Q 1033.69 572.90 1033.60 572.42
  C 1030.91 558.96 1019.43 552.46 1007.00 548.34
  Q 1006.53 548.18 1006.08 548.37
  C 994.63 553.07 982.21 559.96 974.97 570.35
  A 0.38 0.37 -71.5 0 0 975.26 570.94
  Z
  M 863.17 555.81
  C 869.83 564.44 900.60 560.84 910.25 559.55
  Q 910.84 559.47 910.44 559.03
  C 904.75 552.75 899.04 551.26 890.06 551.09
  Q 879.99 550.90 869.93 550.75
  C 867.95 550.72 860.27 552.04 863.17 555.81
  Z
  M 1034.06 581.66
  L 973.29 578.14
  Q 972.74 578.11 972.59 578.63
  C 967.31 596.35 958.28 607.60 946.48 620.20
  A 4.57 4.57 0.0 0 0 945.26 623.04
  C 943.43 652.34 932.39 677.25 916.42 701.43
  A 0.23 0.23 0.0 0 0 916.72 701.76
  C 941.36 688.60 963.37 677.41 988.50 659.96
  C 1013.85 642.35 1034.81 615.28 1034.57 582.20
  Q 1034.57 581.69 1034.06 581.66
  Z
  M 856.15 713.09
  C 854.83 716.34 853.39 718.86 850.19 720.94
  Q 845.29 724.14 842.99 729.44
  A 0.56 0.56 0.0 0 0 843.65 730.20
  Q 859.53 725.93 874.77 719.76
  C 912.80 704.37 927.22 668.33 934.47 630.94
  Q 934.56 630.46 934.08 630.55
  C 912.99 634.61 896.94 639.28 877.48 636.94
  Q 875.31 636.68 873.55 638.08
  C 850.80 656.15 836.61 680.33 821.08 704.33
  Q 816.48 711.44 798.57 735.09
  C 794.46 740.52 778.39 741.94 772.18 741.11
  C 759.44 739.40 746.06 729.10 737.25 719.25
  C 721.33 701.45 712.95 678.97 707.40 655.16
  Q 702.59 634.51 700.53 617.10
  A 0.91 0.90 4.3 0 0 699.86 616.33
  L 638.29 600.43
  Q 637.72 600.28 637.65 600.87
  C 631.52 655.34 654.66 704.91 699.60 734.97
  A 0.30 0.30 0.0 0 0 700.01 734.55
  C 697.50 731.01 692.11 722.67 695.28 718.50
  A 0.53 0.53 0.0 0 1 696.07 718.44
  Q 697.41 719.74 698.57 721.18
  C 713.75 739.86 735.30 766.82 760.04 772.32
  C 780.92 776.96 803.57 764.19 816.95 749.44
  C 830.01 735.06 841.88 720.20 855.72 712.70
  Q 856.47 712.30 856.15 713.09
  Z
  M 750.95 678.98
  A 1.11 1.11 0.0 0 1 748.94 679.52
  Q 745.81 675.14 743.38 671.57
  Q 732.70 655.91 715.21 649.11
  A 0.31 0.31 0.0 0 0 714.79 649.44
  Q 719.21 680.90 736.28 707.51
  C 746.63 723.64 770.82 734.06 789.45 729.18
  Q 789.92 729.05 789.98 728.57
  C 793.77 697.76 775.97 666.87 743.73 662.20
  A 0.48 0.48 0.0 0 0 743.29 662.97
  C 746.03 666.32 751.38 674.54 750.95 678.98
  Z
  M 289.76 996.02
  C 282.42 998.57 274.94 1002.15 266.89 1002.77
  C 259.37 1003.35 250.77 1003.02 242.63 1003.01
  Q 223.60 1002.98 204.56 1003.23
  C 198.20 1003.31 195.00 1007.21 191.57 1011.86
  A 1.44 1.44 0.0 0 0 191.30 1012.73
  C 191.65 1021.75 192.51 1028.22 199.13 1032.63
  C 210.28 1040.06 223.87 1044.53 237.41 1043.36
  C 246.66 1042.57 256.91 1042.22 265.79 1039.49
  Q 277.19 1035.98 289.12 1036.21
  A 0.47 0.47 0.0 0 1 289.30 1037.11
  C 267.68 1046.56 245.28 1053.56 223.46 1062.48
  C 217.52 1064.90 209.31 1068.77 211.52 1076.50
  Q 214.58 1087.20 226.75 1089.51
  Q 254.31 1094.73 279.17 1086.39
  Q 288.01 1083.43 307.51 1076.44
  C 325.87 1069.85 342.54 1072.13 357.55 1085.23
  Q 371.88 1097.73 388.93 1110.38
  Q 394.85 1114.77 399.36 1116.37
  Q 411.10 1120.56 423.82 1117.39
  Q 424.87 1117.13 426.16 1115.68
  C 431.40 1109.79 433.53 1103.49 430.80 1095.87
  C 425.43 1080.90 409.05 1070.39 407.50 1054.01
  Q 405.72 1035.23 403.43 1016.51
  Q 403.12 1013.95 404.21 1011.54
  A 0.74 0.73 15.4 0 1 404.96 1011.12
  C 412.94 1012.05 416.18 1004.45 421.99 1000.20
  C 470.48 964.66 529.24 936.80 579.26 911.70
  C 593.02 904.80 606.41 896.86 619.96 889.39
  C 625.44 886.37 633.20 881.42 640.79 878.22
  A 0.93 0.93 0.0 0 1 641.85 879.69
  Q 632.09 890.82 619.89 899.98
  C 608.80 908.30 594.39 915.00 581.46 921.77
  A 1.33 1.29 -4.7 0 0 580.84 922.48
  Q 578.79 927.95 576.80 933.43
  Q 565.81 963.66 544.40 987.66
  C 519.60 1015.45 492.82 1039.51 466.33 1064.58
  Q 460.11 1070.47 448.19 1084.76
  C 443.93 1089.86 444.74 1101.67 444.53 1112.20
  C 444.46 1115.38 436.81 1120.65 434.13 1122.48
  C 429.05 1125.96 422.49 1127.51 417.68 1131.40
  A 1.71 1.68 -7.6 0 0 417.18 1132.04
  Q 399.06 1170.71 391.29 1212.76
  Q 380.33 1272.02 369.62 1331.32
  C 364.02 1362.34 355.74 1389.63 343.20 1417.70
  C 335.97 1433.88 331.13 1444.21 319.03 1454.32
  A 0.63 0.63 0.0 0 1 318.03 1453.62
  L 322.24 1442.24
  Q 322.42 1441.75 321.92 1441.90
  Q 280.76 1454.60 240.07 1468.69
  C 217.57 1476.47 174.23 1495.50 167.92 1520.98
  C 164.01 1536.75 178.23 1546.03 190.80 1550.30
  A 0.58 0.57 -79.0 0 0 191.56 1549.78
  Q 191.89 1543.58 192.43 1537.17
  C 193.17 1528.50 208.06 1515.93 216.32 1514.60
  C 222.68 1513.57 234.57 1512.57 240.16 1512.55
  Q 255.50 1512.48 267.59 1522.49
  A 0.37 0.37 0.0 0 1 267.31 1523.15
  C 253.84 1521.69 238.04 1519.50 224.77 1522.01
  C 212.44 1524.34 199.53 1535.41 207.82 1549.22
  C 215.39 1561.81 242.67 1566.12 255.96 1565.06
  Q 257.93 1564.90 274.16 1562.47
  C 286.85 1560.58 299.60 1558.87 312.02 1556.10
  Q 336.94 1550.53 361.73 1544.43
  C 368.65 1542.73 373.65 1540.18 380.81 1536.77
  C 391.30 1531.77 399.56 1525.29 407.15 1516.89
  C 414.08 1509.23 413.62 1497.52 408.62 1488.97
  Q 408.31 1488.43 407.85 1488.85
  Q 404.70 1491.78 400.48 1492.63
  A 0.55 0.55 0.0 0 1 399.84 1491.96
  C 400.21 1490.58 401.48 1489.35 402.14 1488.42
  Q 421.85 1460.73 450.45 1438.70
  C 476.26 1418.82 496.49 1402.58 518.36 1387.99
  Q 534.36 1377.32 550.30 1366.54
  C 558.92 1360.70 571.54 1354.33 579.56 1350.25
  C 601.16 1339.24 622.49 1333.88 647.18 1331.19
  Q 648.50 1331.05 647.32 1331.66
  Q 635.69 1337.72 623.47 1342.43
  C 619.27 1344.05 615.91 1345.83 612.42 1348.11
  A 0.52 0.52 0.0 0 0 612.47 1349.01
  C 626.07 1356.04 635.97 1362.88 651.11 1373.26
  Q 664.41 1382.37 668.48 1386.01
  Q 694.07 1408.87 719.83 1431.56
  C 741.12 1450.32 763.37 1475.06 764.37 1504.92
  C 764.58 1511.10 762.53 1516.98 765.78 1523.20
  Q 771.67 1534.49 784.69 1540.08
  Q 793.99 1544.06 813.64 1550.19
  Q 868.48 1567.27 925.56 1561.02
  C 936.15 1559.86 941.00 1550.18 935.12 1541.10
  C 927.30 1529.01 908.81 1520.48 895.68 1515.93
  Q 884.89 1512.20 875.10 1507.95
  A 1.23 1.23 0.0 0 1 875.32 1505.63
  Q 879.43 1504.70 883.03 1505.65
  C 911.59 1513.17 942.00 1518.75 950.64 1552.43
  Q 950.77 1552.94 951.29 1553.01
  C 962.47 1554.60 976.69 1552.95 986.58 1547.03
  Q 987.02 1546.77 987.09 1546.27
  Q 988.46 1537.12 986.02 1528.30
  C 985.02 1524.68 981.38 1521.97 978.65 1519.59
  C 945.59 1490.68 901.83 1473.46 862.28 1455.42
  A 0.67 0.66 -62.9 0 1 861.98 1454.48
  C 863.67 1451.57 870.46 1454.59 873.13 1454.90
  Q 873.71 1454.97 873.49 1454.42
  C 845.62 1387.32 832.81 1314.08 822.31 1242.60
  A 0.45 0.44 -24.6 0 0 821.58 1242.33
  C 788.17 1270.66 753.17 1302.75 710.96 1317.15
  Q 697.09 1321.88 678.49 1323.77
  Q 623.54 1329.34 580.79 1297.45
  Q 546.46 1271.84 536.55 1230.68
  C 533.57 1218.30 534.59 1206.39 535.20 1193.85
  C 536.42 1168.52 545.74 1148.30 558.93 1127.43
  C 588.37 1080.82 618.04 1034.44 644.46 986.01
  C 662.96 952.12 681.75 918.32 699.60 884.09
  Q 710.39 863.41 721.83 843.07
  C 726.69 834.43 731.07 827.71 741.05 825.51
  C 750.10 823.51 762.84 846.37 766.30 853.59
  C 773.98 869.62 779.95 883.43 789.27 895.62
  A 1.04 1.02 70.0 0 0 790.10 896.02
  C 798.16 895.93 804.79 889.77 808.70 883.22
  Q 819.93 864.43 830.99 845.55
  C 837.63 834.23 847.86 823.87 862.04 824.79
  A 0.67 0.67 0.0 0 0 862.72 823.95
  C 860.52 815.75 858.53 808.04 855.55 799.60
  Q 851.40 787.85 849.46 779.02
  Q 848.82 776.14 851.21 773.22
  Q 851.59 772.76 851.86 773.29
  C 864.95 799.51 875.88 827.30 881.75 855.25
  Q 888.02 885.09 889.72 924.57
  C 889.95 929.98 888.25 940.04 890.94 944.05
  C 902.06 960.71 919.56 977.45 937.18 993.61
  C 944.95 1000.74 954.26 1008.54 961.67 1013.84
  Q 993.60 1036.71 1025.07 1060.22
  C 1031.33 1064.90 1035.80 1057.12 1040.71 1053.89
  A 0.94 0.94 0.0 0 1 1042.06 1055.11
  C 1029.47 1079.13 1044.01 1111.37 1016.56 1127.52
  C 1014.36 1128.82 1014.42 1129.37 1014.24 1131.74
  Q 1013.56 1140.37 1019.93 1144.80
  C 1032.79 1153.77 1050.33 1150.00 1061.84 1141.07
  Q 1074.05 1131.60 1085.74 1121.49
  C 1090.71 1117.20 1093.51 1115.58 1099.00 1116.47
  C 1119.40 1119.78 1139.83 1122.83 1160.22 1126.14
  C 1187.15 1130.51 1213.89 1131.30 1237.53 1115.28
  C 1241.67 1112.48 1241.65 1105.06 1238.99 1101.46
  A 1.37 1.37 0.0 0 0 1238.04 1100.93
  Q 1206.95 1097.71 1197.57 1096.40
  C 1180.94 1094.08 1165.36 1089.88 1151.34 1080.24
  A 0.54 0.54 0.0 0 1 1151.64 1079.26
  C 1153.34 1079.24 1155.04 1079.13 1156.75 1079.58
  Q 1184.51 1086.91 1213.09 1088.62
  A 0.18 0.17 63.0 0 0 1213.19 1088.30
  L 1164.67 1056.34
  A 0.56 0.56 0.0 0 1 1164.91 1055.31
  C 1169.72 1054.72 1172.84 1056.25 1178.23 1058.55
  Q 1194.18 1065.33 1208.28 1075.49
  C 1209.19 1076.15 1210.63 1076.80 1211.98 1076.59
  C 1223.10 1074.84 1232.92 1071.05 1235.00 1058.75
  C 1236.04 1052.66 1236.15 1042.54 1227.68 1042.47
  Q 1208.04 1042.29 1188.41 1041.76
  C 1171.62 1041.31 1158.93 1038.10 1145.29 1029.42
  C 1140.85 1026.59 1136.51 1023.89 1131.61 1021.67
  C 1118.32 1015.64 1105.41 1010.11 1092.98 1002.31
  Q 1092.55 1002.04 1092.69 1001.54
  L 1093.01 1000.44
  Q 1093.17 999.89 1092.75 999.50
  Q 1075.51 983.56 1063.18 963.57
  C 1030.80 911.07 997.86 858.94 965.22 806.61
  Q 946.05 775.89 922.35 748.54
  C 914.82 739.85 907.88 731.69 895.44 730.79
  Q 881.48 729.78 868.32 734.32
  C 865.52 735.29 860.30 738.18 856.34 737.94
  C 835.85 736.66 820.18 755.77 806.55 769.30
  C 784.12 791.55 755.58 786.74 731.23 770.64
  C 727.13 767.92 725.12 763.40 721.17 760.50
  Q 716.14 756.82 712.97 755.25
  Q 699.33 748.51 686.62 740.03
  Q 686.10 739.69 686.34 740.26
  C 689.89 748.59 692.77 757.19 690.88 766.57
  Q 690.71 767.42 690.21 766.71
  Q 687.91 763.44 686.21 759.80
  C 680.48 747.58 674.54 733.29 666.72 723.53
  C 653.48 707.01 631.71 701.31 610.99 704.04
  C 585.62 707.39 565.39 718.80 544.58 733.58
  C 462.60 791.78 400.98 873.02 348.97 957.84
  A 1.32 1.29 -79.8 0 1 348.16 958.42
  C 345.71 958.98 342.41 959.34 340.74 959.71
  Q 326.37 962.86 311.75 969.24
  C 289.01 979.15 273.67 986.02 254.66 993.58
  A 0.30 0.30 0.0 0 0 254.76 994.16
  L 289.69 995.54
  A 0.25 0.25 0.0 0 1 289.76 996.02
  Z
  M 646.69 1314.72
  Q 648.53 1315.29 650.77 1314.89
  C 672.84 1316.69 698.05 1312.27 719.15 1303.81
  C 724.90 1301.50 730.13 1296.93 735.65 1293.72
  C 749.35 1285.76 764.41 1273.72 774.32 1265.58
  Q 795.97 1247.82 814.01 1226.50
  C 821.58 1217.56 828.14 1206.95 834.75 1196.82
  Q 838.89 1190.46 842.29 1180.81
  C 849.37 1160.69 855.38 1145.13 860.07 1126.83
  Q 866.29 1102.57 870.10 1077.81
  C 870.84 1072.99 871.14 1066.96 872.02 1061.50
  Q 873.01 1055.36 873.26 1050.43
  C 873.70 1041.76 874.92 1032.74 875.26 1024.51
  Q 875.77 1012.35 876.60 1000.21
  C 878.56 971.74 876.99 943.00 877.83 914.43
  Q 878.82 880.76 867.84 848.72
  C 864.11 837.84 857.80 827.26 846.21 839.76
  C 837.45 849.20 831.88 860.51 825.65 871.31
  C 821.87 877.87 817.90 883.25 813.28 888.79
  C 806.70 896.68 800.21 899.83 790.22 903.39
  Q 789.75 903.56 789.33 903.30
  C 784.14 900.10 778.57 892.98 775.23 888.15
  Q 771.93 883.38 766.76 872.25
  Q 760.73 859.27 754.82 846.23
  C 751.38 838.66 740.20 824.84 732.59 838.05
  Q 718.10 863.22 704.29 888.75
  C 688.05 918.77 674.01 952.11 657.96 979.95
  Q 624.84 1037.38 561.60 1143.84
  C 553.76 1157.03 548.77 1167.08 546.47 1181.79
  C 541.77 1211.90 547.16 1245.13 563.84 1270.66
  C 582.97 1299.93 613.85 1310.26 646.69 1314.72
  Z
  M 418.05 1051.49
  C 418.26 1063.85 422.06 1075.41 433.07 1082.18
  A 1.33 1.33 0.0 0 0 434.78 1081.91
  C 445.55 1069.27 456.36 1058.39 469.33 1046.97
  C 498.87 1020.97 517.23 1005.14 539.00 979.83
  C 552.17 964.52 562.15 947.86 569.32 928.99
  A 0.45 0.45 0.0 0 0 568.70 928.43
  Q 523.57 951.49 478.84 974.92
  Q 443.83 993.25 413.61 1017.81
  A 1.92 1.92 0.0 0 0 413.08 1020.11
  Q 416.05 1026.55 417.34 1033.54
  C 418.35 1039.02 417.94 1045.49 418.05 1051.49
  Z
  M 230.97 1169.82
  C 255.44 1179.78 279.72 1190.19 304.24 1200.03
  Q 337.87 1213.54 376.17 1213.47
  C 377.71 1213.46 378.99 1212.64 379.23 1211.17
  Q 381.40 1197.82 384.57 1184.48
  Q 384.70 1183.91 384.12 1183.89
  Q 357.00 1182.83 329.85 1181.94
  Q 323.92 1181.75 318.76 1180.52
  Q 293.48 1174.49 269.95 1163.29
  C 244.82 1151.33 227.24 1142.38 203.00 1138.80
  Q 189.05 1136.74 172.94 1138.17
  Q 123.12 1142.60 78.55 1165.04
  A 0.17 0.17 0.0 0 0 78.67 1165.36
  Q 109.59 1158.58 141.17 1155.64
  C 154.29 1154.42 161.42 1153.52 171.56 1154.65
  Q 202.09 1158.06 230.97 1169.82
  Z"
/>
<path fill="#da842e" d="
  M 875.02 149.52
  A 0.26 0.26 0.0 0 0 875.16 149.02
  Q 857.70 140.97 838.75 138.18
  Q 791.43 131.22 743.90 135.81
  A 0.62 0.61 -80.9 0 1 743.28 134.95
  Q 752.21 114.26 761.37 93.59
  Q 769.79 74.59 783.54 61.30
  C 788.30 56.70 794.37 55.98 801.14 56.83
  C 832.88 60.79 854.86 89.69 869.33 115.58
  Q 884.99 143.60 891.09 175.15
  C 894.24 191.45 894.37 209.43 893.90 226.16
  Q 893.88 226.80 893.30 226.52
  Q 812.70 187.24 723.38 177.97
  Q 722.78 177.91 722.73 177.30
  C 722.44 172.98 726.00 167.21 728.26 163.50
  C 729.63 161.23 731.26 160.48 734.01 160.09
  C 755.56 157.03 777.14 154.14 798.69 151.02
  Q 836.78 145.50 875.02 149.52
  Z"
/>
<path fill="#da842e" d="
  M 600.72 235.73
  L 553.82 197.16
  A 0.36 0.36 0.0 0 1 553.92 196.54
  C 606.18 176.51 649.64 143.99 694.76 111.82
  A 0.20 0.20 0.0 0 1 695.03 112.12
  C 673.92 136.35 649.84 156.50 624.28 175.94
  Q 621.22 178.26 624.85 177.03
  C 633.12 174.24 640.00 170.57 648.80 165.54
  Q 655.93 161.47 662.99 159.50
  C 682.63 154.03 709.44 146.54 734.60 145.81
  C 748.90 145.39 763.19 144.73 777.48 144.04
  Q 778.01 144.02 777.65 144.41
  Q 777.38 144.71 777.00 144.74
  C 762.61 146.00 749.39 147.69 734.97 150.84
  C 693.84 159.81 657.93 170.58 620.76 186.37
  A 0.28 0.28 0.0 0 0 620.89 186.90
  C 696.83 180.13 772.83 189.43 843.87 217.46
  Q 878.00 230.93 910.07 248.48
  A 0.37 0.36 -40.8 0 1 910.02 249.14
  C 899.29 253.20 892.13 257.48 887.21 268.46
  Q 884.02 275.59 886.04 282.81
  Q 886.20 283.37 886.76 283.22
  C 891.71 281.89 891.69 273.77 893.49 270.14
  C 898.46 260.09 915.20 259.31 923.93 262.10
  Q 933.82 265.27 940.74 272.66
  A 2.05 2.03 -60.5 0 1 941.24 274.49
  Q 937.28 291.98 928.08 307.33
  C 923.67 314.69 915.37 320.65 905.77 326.93
  Q 903.35 328.52 901.85 330.70
  C 884.65 355.90 884.56 383.99 885.48 413.50
  Q 885.88 426.36 890.82 446.48
  Q 901.19 488.73 909.64 531.42
  Q 909.74 531.95 909.30 532.28
  C 900.45 538.81 886.53 538.13 876.49 538.30
  C 867.11 538.47 861.01 539.40 853.42 543.14
  Q 852.95 543.37 852.47 543.17
  C 843.68 539.49 834.85 534.73 825.49 532.81
  Q 814.73 530.59 804.08 528.62
  A 0.45 0.45 0.0 0 1 803.73 528.05
  C 807.58 515.19 811.57 501.84 812.60 488.29
  Q 813.09 481.90 813.57 473.73
  C 817.18 411.74 785.12 350.37 739.82 309.71
  A 0.86 0.85 -44.8 0 1 739.83 308.43
  C 750.29 299.27 754.79 288.81 758.96 274.72
  Q 760.49 269.57 760.78 264.45
  C 761.97 244.15 761.54 221.99 751.84 204.00
  Q 750.90 202.26 748.39 201.07
  Q 747.88 200.83 747.97 201.39
  C 751.54 223.75 753.89 239.47 751.22 259.94
  C 749.31 274.55 742.23 286.40 732.73 296.98
  C 729.49 300.58 720.12 302.27 715.52 302.92
  A 0.58 0.57 -85.5 0 1 714.89 302.18
  C 720.68 283.63 719.91 265.82 715.54 246.95
  Q 715.41 246.35 716.02 246.32
  C 720.87 246.11 725.58 251.60 732.01 252.56
  A 0.41 0.41 0.0 0 0 732.38 251.89
  Q 724.46 242.50 713.04 238.03
  A 1.76 1.74 -6.4 0 1 712.29 237.44
  Q 711.13 235.87 710.63 234.09
  C 707.39 222.66 702.64 213.80 694.96 206.09
  A 0.58 0.58 0.0 0 0 693.97 206.47
  Q 693.87 209.08 695.01 211.86
  Q 698.95 221.48 701.79 231.92
  A 0.44 0.44 0.0 0 1 701.25 232.46
  Q 693.36 230.29 685.29 228.18
  C 678.55 226.43 671.21 227.56 664.48 228.68
  C 648.39 231.37 642.82 252.07 642.99 265.75
  Q 643.26 288.38 644.22 299.50
  C 644.67 304.79 647.59 312.04 652.82 315.07
  Q 653.39 315.40 653.37 314.74
  Q 652.58 295.44 651.29 276.25
  C 650.35 262.42 653.24 248.33 666.16 240.96
  C 668.36 239.71 672.15 239.32 674.25 239.46
  Q 683.15 240.07 692.00 238.97
  Q 694.12 238.71 698.21 239.56
  C 707.75 241.54 710.90 247.61 709.09 256.92
  C 707.01 267.65 707.94 278.77 704.68 289.24
  Q 702.92 294.86 701.19 299.19
  C 698.28 306.46 692.97 311.92 686.77 318.28
  C 684.66 320.43 683.07 324.54 682.40 327.83
  C 677.61 351.45 682.28 374.59 690.11 396.87
  C 695.94 413.47 701.12 430.52 707.78 446.71
  Q 723.63 485.21 739.82 523.77
  A 0.34 0.34 0.0 0 1 739.28 524.15
  C 724.69 510.71 710.15 501.93 690.31 491.78
  Q 689.75 491.49 689.29 491.92
  L 687.59 493.50
  A 0.58 0.58 0.0 0 0 687.69 494.42
  C 711.03 508.14 735.12 519.97 743.62 547.09
  Q 743.93 548.08 742.94 547.79
  Q 703.77 536.21 663.52 527.14
  C 615.31 516.27 565.70 510.77 515.77 509.91
  A 0.49 0.49 0.0 0 0 515.51 510.82
  C 520.78 514.04 527.55 513.40 533.47 514.26
  Q 577.33 520.63 621.19 526.99
  Q 678.38 535.29 733.19 553.57
  Q 737.33 554.95 743.67 557.44
  C 748.62 559.37 749.06 571.68 749.03 575.88
  A 2.38 2.38 0.0 0 1 746.77 578.24
  C 743.17 578.40 738.64 577.49 735.75 577.24
  Q 669.76 571.60 604.42 582.58
  Q 596.75 583.86 589.67 586.66
  A 0.64 0.64 0.0 0 0 589.94 587.90
  C 641.37 584.70 693.22 579.70 744.74 585.23
  Q 745.27 585.28 745.03 585.76
  C 739.25 597.07 735.32 603.32 721.63 604.49
  Q 709.63 605.52 697.58 605.59
  C 689.56 605.64 680.93 602.53 673.16 600.59
  C 663.10 598.08 653.27 596.41 643.23 594.68
  Q 632.83 592.89 626.66 593.31
  C 620.76 593.71 607.14 595.82 603.16 600.71
  A 0.68 0.68 0.0 0 0 603.76 601.82
  L 627.99 599.39
  A 0.65 0.64 1.7 0 1 628.69 600.13
  Q 627.26 609.41 626.30 619.07
  C 625.26 629.57 628.14 641.30 631.48 652.40
  Q 637.72 673.14 649.55 691.41
  A 0.56 0.56 0.0 0 1 648.98 692.26
  C 640.37 690.60 631.91 689.26 622.95 690.28
  C 616.43 691.02 604.03 694.04 598.48 690.27
  Q 563.92 666.81 538.66 639.33
  C 507.70 605.63 483.27 556.85 477.55 510.79
  C 476.31 500.81 476.79 489.96 476.94 479.51
  Q 477.16 463.42 479.78 450.00
  Q 481.03 443.55 486.56 439.06
  Q 492.99 433.83 497.94 427.49
  A 0.43 0.43 0.0 0 0 497.55 426.79
  C 493.31 427.28 489.75 427.55 485.72 429.62
  C 478.32 433.42 474.14 432.97 466.01 432.95
  C 446.32 432.90 431.47 424.12 417.88 410.75
  A 0.38 0.38 0.0 0 1 418.26 410.12
  C 437.40 416.19 455.96 418.51 474.58 409.07
  C 483.67 404.46 491.87 392.50 496.01 383.00
  C 504.14 364.33 506.06 344.66 502.72 324.68
  C 498.73 300.82 492.85 276.83 486.43 255.31
  C 473.67 212.55 441.52 177.56 406.73 151.24
  Q 376.93 128.70 339.91 122.57
  Q 328.51 120.68 320.01 121.47
  C 298.91 123.43 279.40 135.92 264.24 150.07
  A 0.25 0.25 0.0 0 1 263.85 149.78
  C 278.23 119.77 300.70 92.05 336.33 88.61
  C 377.87 84.61 418.16 108.29 450.33 131.71
  Q 526.50 187.17 550.55 204.96
  Q 575.07 223.08 600.50 236.07
  A 0.20 0.20 0.0 0 0 600.72 235.73
  Z"
/>
<path fill="#ffaec1" d="
  M 392.32 374.51
  C 394.48 393.74 403.15 412.51 418.32 424.78
  C 434.24 437.66 449.29 440.92 470.50 440.67
  A 0.42 0.41 -78.3 0 1 470.88 441.25
  C 447.46 496.02 470.10 560.85 495.74 608.64
  A 0.26 0.26 0.0 0 1 495.50 609.02
  C 461.32 607.45 429.62 597.51 402.06 576.94
  Q 365.26 549.48 333.15 511.42
  C 293.66 464.62 266.46 404.56 251.85 345.43
  C 241.58 303.87 238.70 260.72 244.12 218.23
  Q 245.09 210.63 245.91 203.01
  C 249.41 170.87 274.50 148.42 301.71 134.64
  C 315.47 127.67 337.85 129.17 351.70 133.29
  Q 394.56 146.06 425.56 178.20
  C 453.70 207.36 469.82 240.13 479.94 279.77
  Q 486.45 305.28 488.81 322.66
  Q 493.17 354.72 482.71 385.24
  C 479.81 393.71 465.82 400.76 457.86 404.04
  C 437.46 412.43 419.69 403.65 404.76 389.61
  C 400.19 385.31 396.54 379.68 392.79 374.33
  A 0.26 0.26 0.0 0 0 392.32 374.51
  Z"
/>
<path fill="#da842e" d="
  M 930.45 324.65
  A 1.03 1.03 0.0 0 1 930.19 323.27
  C 933.76 317.61 937.97 312.17 940.17 306.43
  Q 944.94 293.98 949.50 281.56
  A 0.52 0.52 0.0 0 1 950.26 281.30
  Q 961.16 288.11 968.05 298.97
  A 0.89 0.89 0.0 0 1 968.04 299.94
  Q 958.44 314.91 944.18 325.33
  Q 941.10 327.58 940.90 327.68
  C 937.78 329.21 933.23 326.73 930.45 324.65
  Z"
/>
<path fill="#da842e" d="
  M 953.93 532.20
  Q 953.44 531.98 953.59 531.46
  C 958.45 514.61 963.63 498.43 966.85 480.77
  C 975.72 432.11 971.35 377.92 946.33 335.02
  A 1.24 1.23 -36.8 0 1 946.56 333.49
  C 948.88 331.36 952.11 330.01 954.35 328.33
  Q 965.67 319.87 976.67 310.98
  Q 977.11 310.63 977.36 311.13
  C 982.91 321.93 989.78 333.90 992.62 345.68
  C 1004.06 393.19 993.07 435.59 979.67 483.98
  Q 977.57 491.54 977.78 504.23
  Q 978.00 518.23 985.30 529.56
  C 988.59 534.68 994.15 539.45 998.91 543.98
  Q 999.41 544.46 998.81 544.81
  L 976.01 558.23
  A 0.51 0.51 0.0 0 1 975.29 558.01
  C 970.64 548.17 965.69 537.30 953.93 532.20
  Z"
/>
<path fill="#ffffff" d="
  M 780.38 441.02
  C 759.93 441.21 756.46 465.61 757.69 480.89
  Q 759.48 503.02 766.31 524.22
  Q 766.47 524.70 765.95 524.73
  Q 759.94 525.00 754.00 525.37
  C 749.58 525.64 748.08 525.50 746.45 521.51
  Q 723.94 466.36 709.06 428.94
  C 697.62 400.17 690.95 368.50 691.87 335.32
  C 692.14 325.58 694.26 319.24 703.13 315.29
  C 721.17 307.25 745.08 322.62 757.07 335.08
  C 780.47 359.40 792.61 391.38 800.22 424.51
  C 804.72 444.13 806.01 466.53 804.66 485.25
  Q 803.96 494.86 803.81 498.56
  Q 803.79 498.93 803.53 498.67
  Q 803.26 498.40 803.23 498.00
  C 802.66 490.39 802.26 481.96 800.66 475.11
  Q 796.13 455.75 782.16 441.75
  A 2.50 2.47 67.1 0 0 780.38 441.02
  Z"
/>
<path fill="#ffffff" d="
  M 960.62 464.96
  Q 959.71 467.19 960.08 469.77
  L 958.44 480.74
  Q 957.32 482.96 957.51 485.26
  L 956.28 489.48
  Q 954.41 492.62 954.49 495.76
  Q 952.68 504.94 949.58 513.80
  C 948.21 517.73 947.24 522.77 945.16 526.94
  A 2.17 2.16 15.4 0 1 943.06 528.13
  L 935.35 527.54
  Q 934.69 527.49 934.84 526.85
  L 937.19 517.03
  Q 937.75 515.98 937.44 514.23
  L 939.04 506.03
  L 939.62 498.49
  Q 942.37 476.74 934.46 456.77
  C 932.21 451.10 928.31 447.19 923.58 443.70
  C 920.94 441.75 919.14 442.52 916.91 444.65
  C 910.14 451.13 906.56 460.42 905.43 468.97
  Q 904.95 472.63 904.18 469.02
  Q 898.30 441.34 896.01 412.67
  C 894.12 389.08 894.96 360.82 907.22 339.75
  C 912.10 331.38 923.27 333.99 929.94 337.73
  Q 933.10 339.50 936.00 343.37
  C 945.88 356.56 952.83 370.67 956.77 386.96
  C 963.04 412.90 964.33 438.45 960.62 464.96
  Z"
/>
<path fill="#ffaec1" d="
  M 960.62 464.96
  Q 960.93 467.19 960.08 469.77
  Q 959.71 467.19 960.62 464.96
  Z"
/>
<path fill="#ff6bab" d="
  M 958.44 480.74
  Q 958.62 482.84 957.51 485.26
  Q 957.32 482.96 958.44 480.74
  Z"
/>
<path fill="#ff6bab" d="
  M 956.28 489.48
  Q 956.16 492.83 954.49 495.76
  Q 954.41 492.62 956.28 489.48
  Z"
/>
<path fill="#ff6bab" d="
  M 939.62 498.49
  L 939.04 506.03
  Q 938.61 502.27 939.62 498.49
  Z"
/>
<path fill="#ffaec1" d="
  M 937.44 514.23
  Q 937.75 515.98 937.19 517.03
  Q 936.63 515.15 937.44 514.23
  Z"
/>
<path fill="#fef0c2" d="
  M 782.76 570.72
  C 775.41 563.38 766.79 559.78 757.83 555.05
  C 756.59 554.39 755.00 552.70 754.56 551.69
  Q 749.79 540.89 744.29 530.43
  Q 743.81 529.52 744.84 529.61
  C 779.25 532.38 813.59 533.97 846.41 545.93
  Q 847.02 546.15 846.61 546.65
  C 843.31 550.67 838.04 556.05 837.65 561.31
  C 836.77 573.14 862.33 583.84 871.06 588.43
  Q 882.09 594.21 888.56 601.32
  Q 888.86 601.65 889.28 601.49
  C 904.80 595.64 915.01 591.09 924.05 578.35
  C 936.19 561.24 926.61 549.05 909.73 542.40
  A 0.36 0.36 0.0 0 1 909.76 541.72
  C 915.22 540.07 922.04 536.79 927.72 536.79
  C 944.03 536.80 954.64 539.25 961.45 555.08
  Q 968.40 571.23 961.19 587.41
  C 955.84 599.41 946.94 612.68 934.72 617.51
  C 925.88 621.00 916.16 624.54 907.18 625.83
  C 893.13 627.84 877.21 626.58 865.21 618.76
  C 864.34 618.20 862.47 618.40 861.46 619.09
  C 837.70 635.30 804.98 636.40 779.19 624.67
  C 772.27 621.52 765.54 616.79 758.67 612.09
  C 754.52 609.25 749.95 604.16 751.10 598.76
  C 752.00 594.54 754.31 587.67 759.50 587.60
  Q 769.25 587.48 778.99 587.00
  Q 779.59 586.97 779.22 586.50
  C 774.55 580.43 765.34 579.87 758.20 580.70
  Q 757.77 580.74 757.77 580.32
  L 757.61 563.72
  A 0.37 0.37 0.0 0 1 758.13 563.38
  C 766.29 567.06 773.49 571.03 782.48 571.37
  A 0.38 0.38 0.0 0 0 782.76 570.72
  Z"
/>
<path fill="#da842e" d="
  M 1033.21 572.88
  L 975.26 570.94
  A 0.38 0.37 -71.5 0 1 974.97 570.35
  C 982.21 559.96 994.63 553.07 1006.08 548.37
  Q 1006.53 548.18 1007.00 548.34
  C 1019.43 552.46 1030.91 558.96 1033.60 572.42
  Q 1033.69 572.90 1033.21 572.88
  Z"
/>
<path fill="#ffffff" d="
  M 910.25 559.55
  C 900.60 560.84 869.83 564.44 863.17 555.81
  C 860.27 552.04 867.95 550.72 869.93 550.75
  Q 879.99 550.90 890.06 551.09
  C 899.04 551.26 904.75 552.75 910.44 559.03
  Q 910.84 559.47 910.25 559.55
  Z"
/>
<path fill="#da842e" d="
  M 973.29 578.14
  L 1034.06 581.66
  Q 1034.57 581.69 1034.57 582.20
  C 1034.81 615.28 1013.85 642.35 988.50 659.96
  C 963.37 677.41 941.36 688.60 916.72 701.76
  A 0.23 0.23 0.0 0 1 916.42 701.43
  C 932.39 677.25 943.43 652.34 945.26 623.04
  A 4.57 4.57 0.0 0 1 946.48 620.20
  C 958.28 607.60 967.31 596.35 972.59 578.63
  Q 972.74 578.11 973.29 578.14
  Z"
/>
<path fill="#fef0c2" d="
  M 855.72 712.70
  C 841.88 720.20 830.01 735.06 816.95 749.44
  C 803.57 764.19 780.92 776.96 760.04 772.32
  C 735.30 766.82 713.75 739.86 698.57 721.18
  Q 697.41 719.74 696.07 718.44
  A 0.53 0.53 0.0 0 0 695.28 718.50
  C 692.11 722.67 697.50 731.01 700.01 734.55
  A 0.30 0.30 0.0 0 1 699.60 734.97
  C 654.66 704.91 631.52 655.34 637.65 600.87
  Q 637.72 600.28 638.29 600.43
  L 699.86 616.33
  A 0.91 0.90 4.3 0 1 700.53 617.10
  Q 702.59 634.51 707.40 655.16
  C 712.95 678.97 721.33 701.45 737.25 719.25
  C 746.06 729.10 759.44 739.40 772.18 741.11
  C 778.39 741.94 794.46 740.52 798.57 735.09
  Q 816.48 711.44 821.08 704.33
  C 836.61 680.33 850.80 656.15 873.55 638.08
  Q 875.31 636.68 877.48 636.94
  C 896.94 639.28 912.99 634.61 934.08 630.55
  Q 934.56 630.46 934.47 630.94
  C 927.22 668.33 912.80 704.37 874.77 719.76
  Q 859.53 725.93 843.65 730.20
  A 0.56 0.56 0.0 0 1 842.99 729.44
  Q 845.29 724.14 850.19 720.94
  C 853.39 718.86 854.83 716.34 856.15 713.09
  Q 856.47 712.30 855.72 712.70
  Z"
/>
<path fill="#ff6bab" d="
  M 750.95 678.98
  C 751.38 674.54 746.03 666.32 743.29 662.97
  A 0.48 0.48 0.0 0 1 743.73 662.20
  C 775.97 666.87 793.77 697.76 789.98 728.57
  Q 789.92 729.05 789.45 729.18
  C 770.82 734.06 746.63 723.64 736.28 707.51
  Q 719.21 680.90 714.79 649.44
  A 0.31 0.31 0.0 0 1 715.21 649.11
  Q 732.70 655.91 743.38 671.57
  Q 745.81 675.14 748.94 679.52
  A 1.11 1.11 0.0 0 0 750.95 678.98
  Z"
/>
<path fill="#da842e" d="
  M 289.76 996.02
  A 0.25 0.25 0.0 0 0 289.69 995.54
  L 254.76 994.16
  A 0.30 0.30 0.0 0 1 254.66 993.58
  C 273.67 986.02 289.01 979.15 311.75 969.24
  Q 326.37 962.86 340.74 959.71
  C 342.41 959.34 345.71 958.98 348.16 958.42
  A 1.32 1.29 -79.8 0 0 348.97 957.84
  C 400.98 873.02 462.60 791.78 544.58 733.58
  C 565.39 718.80 585.62 707.39 610.99 704.04
  C 631.71 701.31 653.48 707.01 666.72 723.53
  C 674.54 733.29 680.48 747.58 686.21 759.80
  Q 687.91 763.44 690.21 766.71
  Q 690.71 767.42 690.88 766.57
  C 692.77 757.19 689.89 748.59 686.34 740.26
  Q 686.10 739.69 686.62 740.03
  Q 699.33 748.51 712.97 755.25
  Q 716.14 756.82 721.17 760.50
  C 725.12 763.40 727.13 767.92 731.23 770.64
  C 755.58 786.74 784.12 791.55 806.55 769.30
  C 820.18 755.77 835.85 736.66 856.34 737.94
  C 860.30 738.18 865.52 735.29 868.32 734.32
  Q 881.48 729.78 895.44 730.79
  C 907.88 731.69 914.82 739.85 922.35 748.54
  Q 946.05 775.89 965.22 806.61
  C 997.86 858.94 1030.80 911.07 1063.18 963.57
  Q 1075.51 983.56 1092.75 999.50
  Q 1093.17 999.89 1093.01 1000.44
  L 1092.69 1001.54
  Q 1092.55 1002.04 1092.98 1002.31
  C 1105.41 1010.11 1118.32 1015.64 1131.61 1021.67
  C 1136.51 1023.89 1140.85 1026.59 1145.29 1029.42
  C 1158.93 1038.10 1171.62 1041.31 1188.41 1041.76
  Q 1208.04 1042.29 1227.68 1042.47
  C 1236.15 1042.54 1236.04 1052.66 1235.00 1058.75
  C 1232.92 1071.05 1223.10 1074.84 1211.98 1076.59
  C 1210.63 1076.80 1209.19 1076.15 1208.28 1075.49
  Q 1194.18 1065.33 1178.23 1058.55
  C 1172.84 1056.25 1169.72 1054.72 1164.91 1055.31
  A 0.56 0.56 0.0 0 0 1164.67 1056.34
  L 1213.19 1088.30
  A 0.18 0.17 63.0 0 1 1213.09 1088.62
  Q 1184.51 1086.91 1156.75 1079.58
  C 1155.04 1079.13 1153.34 1079.24 1151.64 1079.26
  A 0.54 0.54 0.0 0 0 1151.34 1080.24
  C 1165.36 1089.88 1180.94 1094.08 1197.57 1096.40
  Q 1206.95 1097.71 1238.04 1100.93
  A 1.37 1.37 0.0 0 1 1238.99 1101.46
  C 1241.65 1105.06 1241.67 1112.48 1237.53 1115.28
  C 1213.89 1131.30 1187.15 1130.51 1160.22 1126.14
  C 1139.83 1122.83 1119.40 1119.78 1099.00 1116.47
  C 1093.51 1115.58 1090.71 1117.20 1085.74 1121.49
  Q 1074.05 1131.60 1061.84 1141.07
  C 1050.33 1150.00 1032.79 1153.77 1019.93 1144.80
  Q 1013.56 1140.37 1014.24 1131.74
  C 1014.42 1129.37 1014.36 1128.82 1016.56 1127.52
  C 1044.01 1111.37 1029.47 1079.13 1042.06 1055.11
  A 0.94 0.94 0.0 0 0 1040.71 1053.89
  C 1035.80 1057.12 1031.33 1064.90 1025.07 1060.22
  Q 993.60 1036.71 961.67 1013.84
  C 954.26 1008.54 944.95 1000.74 937.18 993.61
  C 919.56 977.45 902.06 960.71 890.94 944.05
  C 888.25 940.04 889.95 929.98 889.72 924.57
  Q 888.02 885.09 881.75 855.25
  C 875.88 827.30 864.95 799.51 851.86 773.29
  Q 851.59 772.76 851.21 773.22
  Q 848.82 776.14 849.46 779.02
  Q 851.40 787.85 855.55 799.60
  C 858.53 808.04 860.52 815.75 862.72 823.95
  A 0.67 0.67 0.0 0 1 862.04 824.79
  C 847.86 823.87 837.63 834.23 830.99 845.55
  Q 819.93 864.43 808.70 883.22
  C 804.79 889.77 798.16 895.93 790.10 896.02
  A 1.04 1.02 70.0 0 1 789.27 895.62
  C 779.95 883.43 773.98 869.62 766.30 853.59
  C 762.84 846.37 750.10 823.51 741.05 825.51
  C 731.07 827.71 726.69 834.43 721.83 843.07
  Q 710.39 863.41 699.60 884.09
  C 681.75 918.32 662.96 952.12 644.46 986.01
  C 618.04 1034.44 588.37 1080.82 558.93 1127.43
  C 545.74 1148.30 536.42 1168.52 535.20 1193.85
  C 534.59 1206.39 533.57 1218.30 536.55 1230.68
  Q 546.46 1271.84 580.79 1297.45
  Q 623.54 1329.34 678.49 1323.77
  Q 697.09 1321.88 710.96 1317.15
  C 753.17 1302.75 788.17 1270.66 821.58 1242.33
  A 0.45 0.44 -24.6 0 1 822.31 1242.60
  C 832.81 1314.08 845.62 1387.32 873.49 1454.42
  Q 873.71 1454.97 873.13 1454.90
  C 870.46 1454.59 863.67 1451.57 861.98 1454.48
  A 0.67 0.66 -62.9 0 0 862.28 1455.42
  C 901.83 1473.46 945.59 1490.68 978.65 1519.59
  C 981.38 1521.97 985.02 1524.68 986.02 1528.30
  Q 988.46 1537.12 987.09 1546.27
  Q 987.02 1546.77 986.58 1547.03
  C 976.69 1552.95 962.47 1554.60 951.29 1553.01
  Q 950.77 1552.94 950.64 1552.43
  C 942.00 1518.75 911.59 1513.17 883.03 1505.65
  Q 879.43 1504.70 875.32 1505.63
  A 1.23 1.23 0.0 0 0 875.10 1507.95
  Q 884.89 1512.20 895.68 1515.93
  C 908.81 1520.48 927.30 1529.01 935.12 1541.10
  C 941.00 1550.18 936.15 1559.86 925.56 1561.02
  Q 868.48 1567.27 813.64 1550.19
  Q 793.99 1544.06 784.69 1540.08
  Q 771.67 1534.49 765.78 1523.20
  C 762.53 1516.98 764.58 1511.10 764.37 1504.92
  C 763.37 1475.06 741.12 1450.32 719.83 1431.56
  Q 694.07 1408.87 668.48 1386.01
  Q 664.41 1382.37 651.11 1373.26
  C 635.97 1362.88 626.07 1356.04 612.47 1349.01
  A 0.52 0.52 0.0 0 1 612.42 1348.11
  C 615.91 1345.83 619.27 1344.05 623.47 1342.43
  Q 635.69 1337.72 647.32 1331.66
  Q 648.50 1331.05 647.18 1331.19
  C 622.49 1333.88 601.16 1339.24 579.56 1350.25
  C 571.54 1354.33 558.92 1360.70 550.30 1366.54
  Q 534.36 1377.32 518.36 1387.99
  C 496.49 1402.58 476.26 1418.82 450.45 1438.70
  Q 421.85 1460.73 402.14 1488.42
  C 401.48 1489.35 400.21 1490.58 399.84 1491.96
  A 0.55 0.55 0.0 0 0 400.48 1492.63
  Q 404.70 1491.78 407.85 1488.85
  Q 408.31 1488.43 408.62 1488.97
  C 413.62 1497.52 414.08 1509.23 407.15 1516.89
  C 399.56 1525.29 391.30 1531.77 380.81 1536.77
  C 373.65 1540.18 368.65 1542.73 361.73 1544.43
  Q 336.94 1550.53 312.02 1556.10
  C 299.60 1558.87 286.85 1560.58 274.16 1562.47
  Q 257.93 1564.90 255.96 1565.06
  C 242.67 1566.12 215.39 1561.81 207.82 1549.22
  C 199.53 1535.41 212.44 1524.34 224.77 1522.01
  C 238.04 1519.50 253.84 1521.69 267.31 1523.15
  A 0.37 0.37 0.0 0 0 267.59 1522.49
  Q 255.50 1512.48 240.16 1512.55
  C 234.57 1512.57 222.68 1513.57 216.32 1514.60
  C 208.06 1515.93 193.17 1528.50 192.43 1537.17
  Q 191.89 1543.58 191.56 1549.78
  A 0.58 0.57 -79.0 0 1 190.80 1550.30
  C 178.23 1546.03 164.01 1536.75 167.92 1520.98
  C 174.23 1495.50 217.57 1476.47 240.07 1468.69
  Q 280.76 1454.60 321.92 1441.90
  Q 322.42 1441.75 322.24 1442.24
  L 318.03 1453.62
  A 0.63 0.63 0.0 0 0 319.03 1454.32
  C 331.13 1444.21 335.97 1433.88 343.20 1417.70
  C 355.74 1389.63 364.02 1362.34 369.62 1331.32
  Q 380.33 1272.02 391.29 1212.76
  Q 399.06 1170.71 417.18 1132.04
  A 1.71 1.68 -7.6 0 1 417.68 1131.40
  C 422.49 1127.51 429.05 1125.96 434.13 1122.48
  C 436.81 1120.65 444.46 1115.38 444.53 1112.20
  C 444.74 1101.67 443.93 1089.86 448.19 1084.76
  Q 460.11 1070.47 466.33 1064.58
  C 492.82 1039.51 519.60 1015.45 544.40 987.66
  Q 565.81 963.66 576.80 933.43
  Q 578.79 927.95 580.84 922.48
  A 1.33 1.29 -4.7 0 1 581.46 921.77
  C 594.39 915.00 608.80 908.30 619.89 899.98
  Q 632.09 890.82 641.85 879.69
  A 0.93 0.93 0.0 0 0 640.79 878.22
  C 633.20 881.42 625.44 886.37 619.96 889.39
  C 606.41 896.86 593.02 904.80 579.26 911.70
  C 529.24 936.80 470.48 964.66 421.99 1000.20
  C 416.18 1004.45 412.94 1012.05 404.96 1011.12
  A 0.74 0.73 15.4 0 0 404.21 1011.54
  Q 403.12 1013.95 403.43 1016.51
  Q 405.72 1035.23 407.50 1054.01
  C 409.05 1070.39 425.43 1080.90 430.80 1095.87
  C 433.53 1103.49 431.40 1109.79 426.16 1115.68
  Q 424.87 1117.13 423.82 1117.39
  Q 411.10 1120.56 399.36 1116.37
  Q 394.85 1114.77 388.93 1110.38
  Q 371.88 1097.73 357.55 1085.23
  C 342.54 1072.13 325.87 1069.85 307.51 1076.44
  Q 288.01 1083.43 279.17 1086.39
  Q 254.31 1094.73 226.75 1089.51
  Q 214.58 1087.20 211.52 1076.50
  C 209.31 1068.77 217.52 1064.90 223.46 1062.48
  C 245.28 1053.56 267.68 1046.56 289.30 1037.11
  A 0.47 0.47 0.0 0 0 289.12 1036.21
  Q 277.19 1035.98 265.79 1039.49
  C 256.91 1042.22 246.66 1042.57 237.41 1043.36
  C 223.87 1044.53 210.28 1040.06 199.13 1032.63
  C 192.51 1028.22 191.65 1021.75 191.30 1012.73
  A 1.44 1.44 0.0 0 1 191.57 1011.86
  C 195.00 1007.21 198.20 1003.31 204.56 1003.23
  Q 223.60 1002.98 242.63 1003.01
  C 250.77 1003.02 259.37 1003.35 266.89 1002.77
  C 274.94 1002.15 282.42 998.57 289.76 996.02
  Z
  M 881.74 798.46
  C 887.24 816.90 887.20 834.04 886.07 853.44
  A 0.26 0.25 57.4 0 0 886.56 853.55
  C 893.73 835.18 890.41 815.50 882.12 798.32
  Q 881.02 796.05 881.74 798.46
  Z"
/>
<path fill="#000001" d="
  M 886.07 853.44
  C 887.20 834.04 887.24 816.90 881.74 798.46
  Q 881.02 796.05 882.12 798.32
  C 890.41 815.50 893.73 835.18 886.56 853.55
  A 0.26 0.25 57.4 0 1 886.07 853.44
  Z"
/>
<path fill="#fef0c2" d="
  M 650.77 1314.89
  Q 648.43 1314.22 646.69 1314.72
  C 613.85 1310.26 582.97 1299.93 563.84 1270.66
  C 547.16 1245.13 541.77 1211.90 546.47 1181.79
  C 548.77 1167.08 553.76 1157.03 561.60 1143.84
  Q 624.84 1037.38 657.96 979.95
  C 674.01 952.11 688.05 918.77 704.29 888.75
  Q 718.10 863.22 732.59 838.05
  C 740.20 824.84 751.38 838.66 754.82 846.23
  Q 760.73 859.27 766.76 872.25
  Q 771.93 883.38 775.23 888.15
  C 778.57 892.98 784.14 900.10 789.33 903.30
  Q 789.75 903.56 790.22 903.39
  C 800.21 899.83 806.70 896.68 813.28 888.79
  C 817.90 883.25 821.87 877.87 825.65 871.31
  C 831.88 860.51 837.45 849.20 846.21 839.76
  C 857.80 827.26 864.11 837.84 867.84 848.72
  Q 878.82 880.76 877.83 914.43
  C 876.99 943.00 878.56 971.74 876.60 1000.21
  Q 875.77 1012.35 875.26 1024.51
  C 874.92 1032.74 873.70 1041.76 873.26 1050.43
  Q 873.01 1055.36 872.02 1061.50
  C 871.14 1066.96 870.84 1072.99 870.10 1077.81
  Q 866.29 1102.57 860.07 1126.83
  C 855.38 1145.13 849.37 1160.69 842.29 1180.81
  Q 838.89 1190.46 834.75 1196.82
  C 828.14 1206.95 821.58 1217.56 814.01 1226.50
  Q 795.97 1247.82 774.32 1265.58
  C 764.41 1273.72 749.35 1285.76 735.65 1293.72
  C 730.13 1296.93 724.90 1301.50 719.15 1303.81
  C 698.05 1312.27 672.84 1316.69 650.77 1314.89
  Z"
/>
<path fill="#da842e" d="
  M 304.24 1200.03
  C 279.72 1190.19 255.44 1179.78 230.97 1169.82
  Q 202.09 1158.06 171.56 1154.65
  C 161.42 1153.52 154.29 1154.42 141.17 1155.64
  Q 109.59 1158.58 78.67 1165.36
  A 0.17 0.17 0.0 0 1 78.55 1165.04
  Q 123.12 1142.60 172.94 1138.17
  Q 189.05 1136.74 203.00 1138.80
  C 227.24 1142.38 244.82 1151.33 269.95 1163.29
  Q 293.48 1174.49 318.76 1180.52
  Q 323.92 1181.75 329.85 1181.94
  Q 357.00 1182.83 384.12 1183.89
  Q 384.70 1183.91 384.57 1184.48
  Q 381.40 1197.82 379.23 1211.17
  C 378.99 1212.64 377.71 1213.46 376.17 1213.47
  Q 337.87 1213.54 304.24 1200.03
  Z"
/>
<path fill="#ff6bab" d="
  M 650.77 1314.89
  Q 648.53 1315.29 646.69 1314.72
  Q 648.43 1314.22 650.77 1314.89
  Z"
/>
</svg>
