<?xml version="1.0" encoding="UTF-8" standalone="no"?>
<!DOCTYPE svg PUBLIC "-//W3C//DTD SVG 1.1//EN" "http://www.w3.org/Graphics/SVG/1.1/DTD/svg11.dtd">
<svg xmlns="http://www.w3.org/2000/svg" version="1.1" viewBox="0.00 0.00 512.00 512.00">
<g stroke-width="2.00" fill="none" stroke-linecap="butt">
<path stroke="#6c6c6d" vector-effect="non-scaling-stroke" d="
  M 320.02 176.01
  L 312.56 175.99
  Q 312.07 175.99 312.06 175.50
  C 311.83 166.90 311.41 158.51 317.88 153.65
  Q 334.89 140.88 335.76 121.64
  C 336.36 108.32 330.71 96.58 320.39 88.31
  A 0.41 0.40 17.6 0 0 319.73 88.65
  Q 320.21 96.84 319.93 105.18
  C 319.55 116.11 309.87 126.60 298.60 127.79
  C 287.11 128.99 276.53 121.98 273.12 110.89
  C 271.22 104.70 272.06 95.93 271.98 88.75
  Q 271.97 88.11 271.47 88.51
  C 251.53 104.41 250.95 133.27 270.05 150.18
  C 276.68 156.05 280.01 158.45 280.01 166.76
  Q 279.96 227.07 280.02 287.48
  Q 280.02 288.00 280.55 288.00
  L 311.50 288.00
  Q 312.00 288.00 312.00 287.50
  L 312.00 272.24
  A 0.58 0.58 0.0 0 0 311.32 271.67
  C 299.11 273.79 287.66 265.07 290.72 252.24
  Q 294.17 237.75 300.42 213.57
  C 303.38 202.09 308.27 195.16 320.09 192.32"
/>
<path stroke="#0f4167" vector-effect="non-scaling-stroke" d="
  M 407.98 256.11
  L 368.68 256.09
  Q 368.07 256.09 368.07 256.70
  L 368.02 264.02"
/>
<path stroke="#1f4d71" vector-effect="non-scaling-stroke" d="
  M 368.02 264.02
  L 368.01 287.27
  Q 368.01 288.00 368.74 288.00
  L 399.50 288.00
  A 0.50 0.50 0.0 0 0 400.00 287.50
  L 400.00 272.51
  Q 400.00 272.00 400.50 272.00
  L 408.00 271.89"
/>
<path stroke="#6c6c6d" vector-effect="non-scaling-stroke" d="
  M 192.01 223.96
  L 215.43 223.93
  Q 215.99 223.93 215.99 223.38
  Q 216.03 157.20 215.99 91.02
  C 215.99 82.60 223.01 72.01 226.78 64.48
  Q 227.02 64.00 226.49 64.00
  L 189.74 64.00
  Q 189.06 64.00 189.35 64.61
  C 192.82 71.75 200.00 82.65 200.00 90.50
  Q 200.00 148.97 200.00 207.47
  Q 200.00 207.99 199.48 207.99
  L 192.00 208.07"
/>
<path stroke="#2e8ed8" vector-effect="non-scaling-stroke" d="
  M 407.99 263.96
  L 368.02 264.02"
/>
<path stroke="#636365" vector-effect="non-scaling-stroke" d="
  M 197.23 32.00
  A 0.38 0.38 0.0 0 0 196.89 32.21
  L 189.27 47.45
  A 0.38 0.38 0.0 0 0 189.61 48.00
  L 226.44 48.00
  A 0.38 0.38 0.0 0 0 226.78 47.45
  L 219.08 32.21
  A 0.38 0.38 0.0 0 0 218.74 32.00
  L 197.23 32.00"
/>
<path stroke="#6c6c6d" vector-effect="non-scaling-stroke" d="
  M 157.85 173.46
  C 167.19 142.93 143.28 112.35 112.21 112.13
  C 63.87 111.78 46.24 174.85 86.85 200.85
  C 92.78 204.64 96.04 208.97 96.02 216.01
  Q 95.93 251.70 96.03 287.51
  A 0.49 0.49 0.0 0 0 96.52 288.00
  L 127.49 288.00
  Q 128.00 288.00 128.00 287.49
  Q 128.00 253.10 128.01 218.70
  C 128.02 211.76 129.36 205.58 135.05 202.06
  Q 152.37 191.35 157.85 173.46"
/>
<path stroke="#6c6c6d" vector-effect="non-scaling-stroke" d="
  M 408.00 192.43
  A 0.43 0.43 0.0 0 0 407.57 192.00
  L 360.43 192.00
  A 0.43 0.43 0.0 0 0 360.00 192.43
  L 360.00 239.57
  A 0.43 0.43 0.0 0 0 360.43 240.00
  L 407.57 240.00
  A 0.43 0.43 0.0 0 0 408.00 239.57
  L 408.00 192.43"
/>
<path stroke="#636365" vector-effect="non-scaling-stroke" d="
  M 456.14 203.24
  A 0.47 0.47 0.0 0 0 456.00 203.57
  L 456.00 228.43
  A 0.47 0.47 0.0 0 0 456.14 228.76
  L 467.24 239.86
  A 0.47 0.47 0.0 0 0 467.57 240.00
  L 479.53 240.00
  A 0.47 0.47 0.0 0 0 480.00 239.53
  L 480.00 192.47
  A 0.47 0.47 0.0 0 0 479.53 192.00
  L 467.57 192.00
  A 0.47 0.47 0.0 0 0 467.24 192.14
  L 456.14 203.24"
/>
<path stroke="#636365" vector-effect="non-scaling-stroke" d="
  M 326.25 208.03
  C 321.34 208.10 317.89 209.57 316.62 214.60
  Q 311.52 234.88 306.42 255.31
  Q 306.28 255.86 306.85 255.89
  C 333.63 257.51 317.70 223.92 343.51 223.98
  A 0.49 0.49 0.0 0 0 344.00 223.49
  L 344.00 208.52
  Q 344.00 208.05 343.53 208.04
  Q 334.80 207.90 326.25 208.03"
/>
<path stroke="#636365" vector-effect="non-scaling-stroke" d="
  M 440.0128 208.6540
  A 0.64 0.64 0.0 0 0 439.3740 208.0129
  L 424.6540 207.9872
  A 0.64 0.64 0.0 0 0 424.0129 208.6260
  L 423.9872 223.3460
  A 0.64 0.64 0.0 0 0 424.6260 223.9871
  L 439.3460 224.0128
  A 0.64 0.64 0.0 0 0 439.9871 223.3740
  L 440.0128 208.6540"
/>
<path stroke="#1f4d71" vector-effect="non-scaling-stroke" d="
  M 232.00 240.65
  A 0.65 0.65 0.0 0 0 231.35 240.00
  L 184.65 240.00
  A 0.65 0.65 0.0 0 0 184.00 240.65
  L 184.00 255.35
  A 0.65 0.65 0.0 0 0 184.65 256.00
  L 231.35 256.00
  A 0.65 0.65 0.0 0 0 232.00 255.35
  L 232.00 240.65"
/>
<path stroke="#1f4d71" vector-effect="non-scaling-stroke" d="
  M 192.07 279.90
  L 192.09 287.39
  Q 192.09 288.00 192.70 288.00
  L 223.30 288.00
  Q 223.94 288.00 223.94 287.35
  L 223.93 279.91"
/>
<path stroke="#0f4167" vector-effect="non-scaling-stroke" d="
  M 223.93 279.91
  L 223.91 272.61
  Q 223.91 272.00 223.30 272.00
  L 192.70 272.00
  Q 192.06 272.00 192.06 272.64
  L 192.07 279.90"
/>
<path stroke="#2e8ed8" vector-effect="non-scaling-stroke" d="
  M 223.93 279.91
  L 192.07 279.90"
/>
<path stroke="#804c09" vector-effect="non-scaling-stroke" d="
  M 64.01 359.45
  L 64.01 415.49
  A 0.51 0.51 0.0 0 0 64.52 416.00
  L 431.50 416.00
  A 0.50 0.50 0.0 0 0 432.00 415.50
  L 432.00 368.50
  A 0.50 0.50 0.0 0 0 431.50 368.00
  L 80.50 368.00
  Q 80.02 368.00 80.02 367.52
  L 80.02 359.87"
/>
<path stroke="#774400" vector-effect="non-scaling-stroke" d="
  M 80.02 359.87
  L 80.02 352.48
  Q 80.02 352.00 80.50 352.00
  L 431.50 352.00
  A 0.50 0.50 0.0 0 0 432.00 351.50
  L 432.00 304.50
  A 0.50 0.50 0.0 0 0 431.50 304.00
  L 64.51 304.00
  Q 64.02 304.00 64.02 304.49
  L 64.01 359.45"
/>
<path stroke="#f79009" vector-effect="non-scaling-stroke" d="
  M 80.02 359.87
  Q 71.73 360.47 64.01 359.45"
/>
<path stroke="#774400" vector-effect="non-scaling-stroke" d="
  M 432.00 432.57
  A 0.57 0.57 0.0 0 0 431.43 432.00
  L 64.57 432.00
  A 0.57 0.57 0.0 0 0 64.00 432.57
  L 64.00 479.43
  A 0.57 0.57 0.0 0 0 64.57 480.00
  L 431.43 480.00
  A 0.57 0.57 0.0 0 0 432.00 479.43
  L 432.00 432.57"
/>
<path stroke="#6c6c6d" vector-effect="non-scaling-stroke" d="
  M 124.95 130.41
  C 119.83 127.20 110.82 127.72 106.07 128.07
  C 97.96 128.66 90.01 138.26 84.77 144.08
  C 79.30 150.15 79.88 155.25 80.01 163.48
  C 80.18 173.67 88.27 180.38 96.31 187.42
  C 102.72 193.03 109.76 192.25 117.69 191.92
  C 125.78 191.58 133.75 182.00 138.96 176.21
  C 144.99 169.51 144.46 162.04 143.93 154.32
  C 143.41 146.75 136.81 141.08 131.55 136.16
  Q 126.29 131.25 124.95 130.41"
/>
<path stroke="#774400" vector-effect="non-scaling-stroke" d="
  M 96.00 320.27
  A 0.27 0.27 0.0 0 0 95.73 320.00
  L 80.27 320.00
  A 0.27 0.27 0.0 0 0 80.00 320.27
  L 80.00 335.73
  A 0.27 0.27 0.0 0 0 80.27 336.00
  L 95.73 336.00
  A 0.27 0.27 0.0 0 0 96.00 335.73
  L 96.00 320.27"
/>
<path stroke="#774400" vector-effect="non-scaling-stroke" d="
  M 416.00 320.31
  A 0.31 0.31 0.0 0 0 415.69 320.00
  L 400.31 320.00
  A 0.31 0.31 0.0 0 0 400.00 320.31
  L 400.00 335.69
  A 0.31 0.31 0.0 0 0 400.31 336.00
  L 415.69 336.00
  A 0.31 0.31 0.0 0 0 416.00 335.69
  L 416.00 320.31"
/>
<path stroke="#804c09" vector-effect="non-scaling-stroke" d="
  M 96.00 384.31
  A 0.31 0.31 0.0 0 0 95.69 384.00
  L 80.31 384.00
  A 0.31 0.31 0.0 0 0 80.00 384.31
  L 80.00 399.69
  A 0.31 0.31 0.0 0 0 80.31 400.00
  L 95.69 400.00
  A 0.31 0.31 0.0 0 0 96.00 399.69
  L 96.00 384.31"
/>
<path stroke="#804c09" vector-effect="non-scaling-stroke" d="
  M 416.00 384.31
  A 0.31 0.31 0.0 0 0 415.69 384.00
  L 400.31 384.00
  A 0.31 0.31 0.0 0 0 400.00 384.31
  L 400.00 399.69
  A 0.31 0.31 0.0 0 0 400.31 400.00
  L 415.69 400.00
  A 0.31 0.31 0.0 0 0 416.00 399.69
  L 416.00 384.31"
/>
<path stroke="#774400" vector-effect="non-scaling-stroke" d="
  M 96.00 448.27
  A 0.27 0.27 0.0 0 0 95.73 448.00
  L 80.27 448.00
  A 0.27 0.27 0.0 0 0 80.00 448.27
  L 80.00 463.73
  A 0.27 0.27 0.0 0 0 80.27 464.00
  L 95.73 464.00
  A 0.27 0.27 0.0 0 0 96.00 463.73
  L 96.00 448.27"
/>
<path stroke="#774400" vector-effect="non-scaling-stroke" d="
  M 416.00 448.27
  A 0.27 0.27 0.0 0 0 415.73 448.00
  L 400.27 448.00
  A 0.27 0.27 0.0 0 0 400.00 448.27
  L 400.00 463.73
  A 0.27 0.27 0.0 0 0 400.27 464.00
  L 415.73 464.00
  A 0.27 0.27 0.0 0 0 416.00 463.73
  L 416.00 448.27"
/>
</g>
<path fill="#000000" d="
  M 320.02 176.01
  L 312.56 175.99
  Q 312.07 175.99 312.06 175.50
  C 311.83 166.90 311.41 158.51 317.88 153.65
  Q 334.89 140.88 335.76 121.64
  C 336.36 108.32 330.71 96.58 320.39 88.31
  A 0.41 0.40 17.6 0 0 319.73 88.65
  Q 320.21 96.84 319.93 105.18
  C 319.55 116.11 309.87 126.60 298.60 127.79
  C 287.11 128.99 276.53 121.98 273.12 110.89
  C 271.22 104.70 272.06 95.93 271.98 88.75
  Q 271.97 88.11 271.47 88.51
  C 251.53 104.41 250.95 133.27 270.05 150.18
  C 276.68 156.05 280.01 158.45 280.01 166.76
  Q 279.96 227.07 280.02 287.48
  Q 280.02 288.00 280.55 288.00
  L 311.50 288.00
  Q 312.00 288.00 312.00 287.50
  L 312.00 272.24
  A 0.58 0.58 0.0 0 0 311.32 271.67
  C 299.11 273.79 287.66 265.07 290.72 252.24
  Q 294.17 237.75 300.42 213.57
  C 303.38 202.09 308.27 195.16 320.09 192.32
  L 343.30 192.01
  Q 343.83 192.01 343.90 191.48
  C 345.52 179.41 353.24 175.96 364.30 175.99
  Q 384.00 176.03 403.70 175.98
  C 414.75 175.95 422.58 179.47 424.04 191.58
  A 0.48 0.47 86.6 0 0 424.51 192.00
  L 444.24 192.00
  A 1.09 1.09 0.0 0 0 445.02 191.67
  Q 450.17 186.34 455.49 181.24
  C 462.28 174.74 468.68 176.04 477.40 175.99
  C 491.18 175.91 496.04 183.66 496.02 196.35
  Q 495.98 216.29 496.01 236.24
  C 496.03 250.34 489.66 256.08 475.76 256.01
  C 468.45 255.98 462.36 257.00 456.30 251.44
  Q 450.51 246.12 445.13 240.38
  Q 444.78 240.00 444.26 240.00
  L 424.77 240.00
  Q 424.21 240.00 424.13 240.55
  Q 422.01 254.60 407.98 256.11
  L 368.68 256.09
  Q 368.07 256.09 368.07 256.70
  L 368.02 264.02
  L 368.01 287.27
  Q 368.01 288.00 368.74 288.00
  L 399.50 288.00
  A 0.50 0.50 0.0 0 0 400.00 287.50
  L 400.00 272.51
  Q 400.00 272.00 400.50 272.00
  L 408.00 271.89
  L 414.45 271.97
  Q 416.00 271.98 416.00 273.54
  L 416.00 287.48
  A 0.49 0.48 90.0 0 0 416.48 287.97
  C 427.17 288.11 441.29 285.22 446.63 297.84
  Q 448.00 301.08 448.00 307.48
  Q 447.99 391.53 448.01 475.58
  C 448.01 489.29 442.79 496.00 428.54 496.00
  Q 248.49 496.00 68.45 496.00
  C 54.72 496.00 48.00 490.83 48.00 476.53
  Q 48.01 392.46 47.99 308.38
  Q 47.99 301.20 49.40 297.82
  C 54.66 285.22 68.73 288.15 79.34 287.97
  Q 80.00 287.96 80.00 287.29
  L 80.00 215.77
  A 0.89 0.89 0.0 0 0 79.57 215.01
  C 59.25 202.97 47.06 180.55 48.14 157.00
  C 49.87 119.37 84.06 91.03 121.46 96.82
  C 147.81 100.91 168.46 121.01 174.35 146.84
  C 180.50 173.82 167.81 200.77 144.65 214.97
  A 0.69 0.68 74.1 0 0 144.33 215.55
  L 143.96 287.35
  Q 143.96 288.00 144.60 288.00
  L 175.25 288.00
  Q 176.00 288.00 176.00 287.25
  L 176.00 270.76
  A 1.92 1.91 -72.8 0 0 175.17 269.18
  C 166.12 262.92 168.03 253.14 167.99 243.29
  C 167.96 235.40 169.82 229.25 177.14 225.69
  C 181.40 223.61 187.10 223.93 192.01 223.96
  L 215.43 223.93
  Q 215.99 223.93 215.99 223.38
  Q 216.03 157.20 215.99 91.02
  C 215.99 82.60 223.01 72.01 226.78 64.48
  Q 227.02 64.00 226.49 64.00
  L 189.74 64.00
  Q 189.06 64.00 189.35 64.61
  C 192.82 71.75 200.00 82.65 200.00 90.50
  Q 200.00 148.97 200.00 207.47
  Q 200.00 207.99 199.48 207.99
  L 192.00 208.07
  L 184.57 207.96
  Q 184.01 207.95 184.01 207.39
  Q 183.98 149.77 184.00 92.22
  Q 184.00 90.01 183.01 88.03
  Q 176.74 75.51 170.66 62.90
  Q 167.39 56.13 170.66 49.32
  Q 176.04 38.13 181.64 27.05
  C 185.76 18.89 189.82 16.10 198.70 16.03
  Q 213.19 15.91 219.00 16.02
  C 227.30 16.16 231.01 20.41 234.78 27.85
  Q 240.27 38.69 245.64 49.58
  C 248.10 54.55 247.04 59.45 244.49 64.67
  Q 238.80 76.36 233.00 88.00
  Q 232.00 90.00 232.00 92.23
  Q 232.00 157.87 232.00 223.45
  A 0.45 0.44 3.7 0 0 232.39 223.89
  C 250.55 226.19 247.99 241.72 247.92 255.25
  Q 247.88 264.47 240.41 269.50
  A 0.94 0.93 -17.4 0 0 240.00 270.27
  L 240.00 287.26
  Q 240.00 288.02 240.76 288.03
  L 263.35 288.05
  Q 264.00 288.05 264.00 287.40
  L 264.00 166.46
  A 1.31 1.30 -72.2 0 0 263.46 165.40
  C 234.61 144.34 232.27 104.42 257.41 79.41
  C 261.01 75.83 265.47 72.49 270.55 72.05
  C 277.80 71.41 285.06 76.12 287.21 83.20
  C 288.70 88.11 288.04 96.09 288.00 101.76
  C 287.90 115.50 303.87 115.15 303.98 101.85
  Q 304.04 95.18 304.06 88.50
  C 304.12 74.60 318.93 67.19 330.22 75.81
  C 359.97 98.52 358.74 143.37 328.77 165.46
  A 1.09 1.08 -17.2 0 0 328.33 166.29
  L 327.97 175.48
  A 0.54 0.54 0.0 0 1 327.43 176.00
  L 320.02 176.01
  Z
  M 197.23 32.00
  A 0.38 0.38 0.0 0 0 196.89 32.21
  L 189.27 47.45
  A 0.38 0.38 0.0 0 0 189.61 48.00
  L 226.44 48.00
  A 0.38 0.38 0.0 0 0 226.78 47.45
  L 219.08 32.21
  A 0.38 0.38 0.0 0 0 218.74 32.00
  L 197.23 32.00
  Z
  M 157.85 173.46
  C 167.19 142.93 143.28 112.35 112.21 112.13
  C 63.87 111.78 46.24 174.85 86.85 200.85
  C 92.78 204.64 96.04 208.97 96.02 216.01
  Q 95.93 251.70 96.03 287.51
  A 0.49 0.49 0.0 0 0 96.52 288.00
  L 127.49 288.00
  Q 128.00 288.00 128.00 287.49
  Q 128.00 253.10 128.01 218.70
  C 128.02 211.76 129.36 205.58 135.05 202.06
  Q 152.37 191.35 157.85 173.46
  Z
  M 408.00 192.43
  A 0.43 0.43 0.0 0 0 407.57 192.00
  L 360.43 192.00
  A 0.43 0.43 0.0 0 0 360.00 192.43
  L 360.00 239.57
  A 0.43 0.43 0.0 0 0 360.43 240.00
  L 407.57 240.00
  A 0.43 0.43 0.0 0 0 408.00 239.57
  L 408.00 192.43
  Z
  M 456.14 203.24
  A 0.47 0.47 0.0 0 0 456.00 203.57
  L 456.00 228.43
  A 0.47 0.47 0.0 0 0 456.14 228.76
  L 467.24 239.86
  A 0.47 0.47 0.0 0 0 467.57 240.00
  L 479.53 240.00
  A 0.47 0.47 0.0 0 0 480.00 239.53
  L 480.00 192.47
  A 0.47 0.47 0.0 0 0 479.53 192.00
  L 467.57 192.00
  A 0.47 0.47 0.0 0 0 467.24 192.14
  L 456.14 203.24
  Z
  M 326.25 208.03
  C 321.34 208.10 317.89 209.57 316.62 214.60
  Q 311.52 234.88 306.42 255.31
  Q 306.28 255.86 306.85 255.89
  C 333.63 257.51 317.70 223.92 343.51 223.98
  A 0.49 0.49 0.0 0 0 344.00 223.49
  L 344.00 208.52
  Q 344.00 208.05 343.53 208.04
  Q 334.80 207.90 326.25 208.03
  Z
  M 440.0128 208.6540
  A 0.64 0.64 0.0 0 0 439.3740 208.0129
  L 424.6540 207.9872
  A 0.64 0.64 0.0 0 0 424.0129 208.6260
  L 423.9872 223.3460
  A 0.64 0.64 0.0 0 0 424.6260 223.9871
  L 439.3460 224.0128
  A 0.64 0.64 0.0 0 0 439.9871 223.3740
  L 440.0128 208.6540
  Z
  M 232.00 240.65
  A 0.65 0.65 0.0 0 0 231.35 240.00
  L 184.65 240.00
  A 0.65 0.65 0.0 0 0 184.00 240.65
  L 184.00 255.35
  A 0.65 0.65 0.0 0 0 184.65 256.00
  L 231.35 256.00
  A 0.65 0.65 0.0 0 0 232.00 255.35
  L 232.00 240.65
  Z
  M 328.77 288.04
  L 351.34 288.08
  Q 352.00 288.08 352.00 287.41
  L 352.00 254.25
  A 0.98 0.98 0.0 0 0 351.56 253.43
  Q 344.73 248.95 344.03 240.73
  A 1.00 1.00 0.0 0 0 342.06 240.62
  C 340.10 250.43 336.84 259.03 328.61 265.28
  A 1.53 1.52 -18.6 0 0 328.00 266.50
  L 328.00 287.27
  A 0.77 0.77 0.0 0 0 328.77 288.04
  Z
  M 192.07 279.90
  L 192.09 287.39
  Q 192.09 288.00 192.70 288.00
  L 223.30 288.00
  Q 223.94 288.00 223.94 287.35
  L 223.93 279.91
  L 223.91 272.61
  Q 223.91 272.00 223.30 272.00
  L 192.70 272.00
  Q 192.06 272.00 192.06 272.64
  L 192.07 279.90
  Z
  M 64.01 359.45
  L 64.01 415.49
  A 0.51 0.51 0.0 0 0 64.52 416.00
  L 431.50 416.00
  A 0.50 0.50 0.0 0 0 432.00 415.50
  L 432.00 368.50
  A 0.50 0.50 0.0 0 0 431.50 368.00
  L 80.50 368.00
  Q 80.02 368.00 80.02 367.52
  L 80.02 359.87
  L 80.02 352.48
  Q 80.02 352.00 80.50 352.00
  L 431.50 352.00
  A 0.50 0.50 0.0 0 0 432.00 351.50
  L 432.00 304.50
  A 0.50 0.50 0.0 0 0 431.50 304.00
  L 64.51 304.00
  Q 64.02 304.00 64.02 304.49
  L 64.01 359.45
  Z
  M 432.00 432.57
  A 0.57 0.57 0.0 0 0 431.43 432.00
  L 64.57 432.00
  A 0.57 0.57 0.0 0 0 64.00 432.57
  L 64.00 479.43
  A 0.57 0.57 0.0 0 0 64.57 480.00
  L 431.43 480.00
  A 0.57 0.57 0.0 0 0 432.00 479.43
  L 432.00 432.57
  Z"
/>
<path fill="#c6c5ca" d="
  M 197.23 32.00
  L 218.74 32.00
  A 0.38 0.38 0.0 0 1 219.08 32.21
  L 226.78 47.45
  A 0.38 0.38 0.0 0 1 226.44 48.00
  L 189.61 48.00
  A 0.38 0.38 0.0 0 1 189.27 47.45
  L 196.89 32.21
  A 0.38 0.38 0.0 0 1 197.23 32.00
  Z"
/>
<path fill="#d8d7da" d="
  M 192.01 223.96
  L 192.00 208.07
  L 199.48 207.99
  Q 200.00 207.99 200.00 207.47
  Q 200.00 148.97 200.00 90.50
  C 200.00 82.65 192.82 71.75 189.35 64.61
  Q 189.06 64.00 189.74 64.00
  L 226.49 64.00
  Q 227.02 64.00 226.78 64.48
  C 223.01 72.01 215.99 82.60 215.99 91.02
  Q 216.03 157.20 215.99 223.38
  Q 215.99 223.93 215.43 223.93
  L 192.01 223.96
  Z"
/>
<path fill="#d8d7da" d="
  M 320.02 176.01
  L 320.09 192.32
  C 308.27 195.16 303.38 202.09 300.42 213.57
  Q 294.17 237.75 290.72 252.24
  C 287.66 265.07 299.11 273.79 311.32 271.67
  A 0.58 0.58 0.0 0 1 312.00 272.24
  L 312.00 287.50
  Q 312.00 288.00 311.50 288.00
  L 280.55 288.00
  Q 280.02 288.00 280.02 287.48
  Q 279.96 227.07 280.01 166.76
  C 280.01 158.45 276.68 156.05 270.05 150.18
  C 250.95 133.27 251.53 104.41 271.47 88.51
  Q 271.97 88.11 271.98 88.75
  C 272.06 95.93 271.22 104.70 273.12 110.89
  C 276.53 121.98 287.11 128.99 298.60 127.79
  C 309.87 126.60 319.55 116.11 319.93 105.18
  Q 320.21 96.84 319.73 88.65
  A 0.41 0.40 17.6 0 1 320.39 88.31
  C 330.71 96.58 336.36 108.32 335.76 121.64
  Q 334.89 140.88 317.88 153.65
  C 311.41 158.51 311.83 166.90 312.06 175.50
  Q 312.07 175.99 312.56 175.99
  L 320.02 176.01
  Z"
/>
<path fill="#d8d7da" d="
  M 112.21 112.13
  C 143.28 112.35 167.19 142.93 157.85 173.46
  Q 152.37 191.35 135.05 202.06
  C 129.36 205.58 128.02 211.76 128.01 218.70
  Q 128.00 253.10 128.00 287.49
  Q 128.00 288.00 127.49 288.00
  L 96.52 288.00
  A 0.49 0.49 0.0 0 1 96.03 287.51
  Q 95.93 251.70 96.02 216.01
  C 96.04 208.97 92.78 204.64 86.85 200.85
  C 46.24 174.85 63.87 111.78 112.21 112.13
  Z
  M 124.95 130.41
  C 119.83 127.20 110.82 127.72 106.07 128.07
  C 97.96 128.66 90.01 138.26 84.77 144.08
  C 79.30 150.15 79.88 155.25 80.01 163.48
  C 80.18 173.67 88.27 180.38 96.31 187.42
  C 102.72 193.03 109.76 192.25 117.69 191.92
  C 125.78 191.58 133.75 182.00 138.96 176.21
  C 144.99 169.51 144.46 162.04 143.93 154.32
  C 143.41 146.75 136.81 141.08 131.55 136.16
  Q 126.29 131.25 124.95 130.41
  Z"
/>
<path fill="#000000" d="
  M 131.55 136.16
  C 136.81 141.08 143.41 146.75 143.93 154.32
  C 144.46 162.04 144.99 169.51 138.96 176.21
  C 133.75 182.00 125.78 191.58 117.69 191.92
  C 109.76 192.25 102.72 193.03 96.31 187.42
  C 88.27 180.38 80.18 173.67 80.01 163.48
  C 79.88 155.25 79.30 150.15 84.77 144.08
  C 90.01 138.26 97.96 128.66 106.07 128.07
  C 110.82 127.72 119.83 127.20 124.95 130.41
  Q 126.29 131.25 131.55 136.16
  Z
  M 107.50 144.00
  A 0.31 0.31 0.0 0 0 107.28 144.09
  L 96.09 155.28
  A 0.31 0.31 0.0 0 0 96.00 155.50
  L 96.00 164.49
  A 0.31 0.31 0.0 0 0 96.09 164.71
  L 107.29 175.91
  A 0.31 0.31 0.0 0 0 107.51 176.00
  L 116.50 176.00
  A 0.31 0.31 0.0 0 0 116.72 175.91
  L 127.91 164.71
  A 0.31 0.31 0.0 0 0 128.00 164.49
  L 128.00 155.51
  A 0.31 0.31 0.0 0 0 127.91 155.29
  L 116.72 144.09
  A 0.31 0.31 0.0 0 0 116.50 144.00
  L 107.50 144.00
  Z"
/>
<rect fill="#d8d7da" x="360.00" y="192.00" width="48.00" height="48.00" rx="0.43"/>
<path fill="#c6c5ca" d="
  M 456.14 203.24
  L 467.24 192.14
  A 0.47 0.47 0.0 0 1 467.57 192.00
  L 479.53 192.00
  A 0.47 0.47 0.0 0 1 480.00 192.47
  L 480.00 239.53
  A 0.47 0.47 0.0 0 1 479.53 240.00
  L 467.57 240.00
  A 0.47 0.47 0.0 0 1 467.24 239.86
  L 456.14 228.76
  A 0.47 0.47 0.0 0 1 456.00 228.43
  L 456.00 203.57
  A 0.47 0.47 0.0 0 1 456.14 203.24
  Z"
/>
<path fill="#c6c5ca" d="
  M 316.62 214.60
  C 317.89 209.57 321.34 208.10 326.25 208.03
  Q 334.80 207.90 343.53 208.04
  Q 344.00 208.05 344.00 208.52
  L 344.00 223.49
  A 0.49 0.49 0.0 0 1 343.51 223.98
  C 317.70 223.92 333.63 257.51 306.85 255.89
  Q 306.28 255.86 306.42 255.31
  Q 311.52 234.88 316.62 214.60
  Z"
/>
<rect fill="#c6c5ca" x="-8.00" y="-8.00" transform="translate(432.00,216.00) rotate(0.1)" width="16.00" height="16.00" rx="0.64"/>
<rect fill="#3d9ae2" x="184.00" y="240.00" width="48.00" height="16.00" rx="0.65"/>
<path fill="#1e81ce" d="
  M 407.98 256.11
  L 407.99 263.96
  L 368.02 264.02
  L 368.07 256.70
  Q 368.07 256.09 368.68 256.09
  L 407.98 256.11
  Z"
/>
<path fill="#3d9ae2" d="
  M 407.99 263.96
  L 408.00 271.89
  L 400.50 272.00
  Q 400.00 272.00 400.00 272.51
  L 400.00 287.50
  A 0.50 0.50 0.0 0 1 399.50 288.00
  L 368.74 288.00
  Q 368.01 288.00 368.01 287.27
  L 368.02 264.02
  L 407.99 263.96
  Z"
/>
<path fill="#1e81ce" d="
  M 223.93 279.91
  L 192.07 279.90
  L 192.06 272.64
  Q 192.06 272.00 192.70 272.00
  L 223.30 272.00
  Q 223.91 272.00 223.91 272.61
  L 223.93 279.91
  Z"
/>
<path fill="#3d9ae2" d="
  M 192.07 279.90
  L 223.93 279.91
  L 223.94 287.35
  Q 223.94 288.00 223.30 288.00
  L 192.70 288.00
  Q 192.09 288.00 192.09 287.39
  L 192.07 279.90
  Z"
/>
<path fill="#ee8700" d="
  M 80.02 359.87
  Q 71.73 360.47 64.01 359.45
  L 64.02 304.49
  Q 64.02 304.00 64.51 304.00
  L 431.50 304.00
  A 0.50 0.50 0.0 0 1 432.00 304.50
  L 432.00 351.50
  A 0.50 0.50 0.0 0 1 431.50 352.00
  L 80.50 352.00
  Q 80.02 352.00 80.02 352.48
  L 80.02 359.87
  Z
  M 96.00 320.27
  A 0.27 0.27 0.0 0 0 95.73 320.00
  L 80.27 320.00
  A 0.27 0.27 0.0 0 0 80.00 320.27
  L 80.00 335.73
  A 0.27 0.27 0.0 0 0 80.27 336.00
  L 95.73 336.00
  A 0.27 0.27 0.0 0 0 96.00 335.73
  L 96.00 320.27
  Z
  M 416.00 320.31
  A 0.31 0.31 0.0 0 0 415.69 320.00
  L 400.31 320.00
  A 0.31 0.31 0.0 0 0 400.00 320.31
  L 400.00 335.69
  A 0.31 0.31 0.0 0 0 400.31 336.00
  L 415.69 336.00
  A 0.31 0.31 0.0 0 0 416.00 335.69
  L 416.00 320.31
  Z"
/>
<rect fill="#000000" x="80.00" y="320.00" width="16.00" height="16.00" rx="0.27"/>
<rect fill="#000000" x="400.00" y="320.00" width="16.00" height="16.00" rx="0.31"/>
<path fill="#ff9811" d="
  M 64.01 359.45
  Q 71.73 360.47 80.02 359.87
  L 80.02 367.52
  Q 80.02 368.00 80.50 368.00
  L 431.50 368.00
  A 0.50 0.50 0.0 0 1 432.00 368.50
  L 432.00 415.50
  A 0.50 0.50 0.0 0 1 431.50 416.00
  L 64.52 416.00
  A 0.51 0.51 0.0 0 1 64.01 415.49
  L 64.01 359.45
  Z
  M 96.00 384.31
  A 0.31 0.31 0.0 0 0 95.69 384.00
  L 80.31 384.00
  A 0.31 0.31 0.0 0 0 80.00 384.31
  L 80.00 399.69
  A 0.31 0.31 0.0 0 0 80.31 400.00
  L 95.69 400.00
  A 0.31 0.31 0.0 0 0 96.00 399.69
  L 96.00 384.31
  Z
  M 416.00 384.31
  A 0.31 0.31 0.0 0 0 415.69 384.00
  L 400.31 384.00
  A 0.31 0.31 0.0 0 0 400.00 384.31
  L 400.00 399.69
  A 0.31 0.31 0.0 0 0 400.31 400.00
  L 415.69 400.00
  A 0.31 0.31 0.0 0 0 416.00 399.69
  L 416.00 384.31
  Z"
/>
<rect fill="#000000" x="80.00" y="384.00" width="16.00" height="16.00" rx="0.31"/>
<rect fill="#000000" x="400.00" y="384.00" width="16.00" height="16.00" rx="0.31"/>
<path fill="#ee8700" d="
  M 432.00 479.43
  A 0.57 0.57 0.0 0 1 431.43 480.00
  L 64.57 480.00
  A 0.57 0.57 0.0 0 1 64.00 479.43
  L 64.00 432.57
  A 0.57 0.57 0.0 0 1 64.57 432.00
  L 431.43 432.00
  A 0.57 0.57 0.0 0 1 432.00 432.57
  L 432.00 479.43
  Z
  M 96.00 448.27
  A 0.27 0.27 0.0 0 0 95.73 448.00
  L 80.27 448.00
  A 0.27 0.27 0.0 0 0 80.00 448.27
  L 80.00 463.73
  A 0.27 0.27 0.0 0 0 80.27 464.00
  L 95.73 464.00
  A 0.27 0.27 0.0 0 0 96.00 463.73
  L 96.00 448.27
  Z
  M 416.00 448.27
  A 0.27 0.27 0.0 0 0 415.73 448.00
  L 400.27 448.00
  A 0.27 0.27 0.0 0 0 400.00 448.27
  L 400.00 463.73
  A 0.27 0.27 0.0 0 0 400.27 464.00
  L 415.73 464.00
  A 0.27 0.27 0.0 0 0 416.00 463.73
  L 416.00 448.27
  Z"
/>
<rect fill="#000000" x="80.00" y="448.00" width="16.00" height="16.00" rx="0.27"/>
<rect fill="#000000" x="400.00" y="448.00" width="16.00" height="16.00" rx="0.27"/>
</svg>
